DGAgnadeen-Regular.ufo
<glyph name="exclam" format="2">
  <advance width="603"/>
  <unicode hex="0021"/>
  <outline>
    <contour>
      <point x="180" y="1468" type="line"/>
      <point x="423" y="1468" type="line"/>
      <point x="407" y="473" type="line"/>
      <point x="196" y="473" type="line"/>
    </contour>
    <contour>
      <point x="301" y="-25" type="qcurve"/>
      <point x="243" y="-25"/>
      <point x="160" y="57"/>
      <point x="160" y="115" type="qcurve"/>
      <point x="160" y="174"/>
      <point x="243" y="256"/>
      <point x="301" y="256" type="qcurve"/>
      <point x="360" y="256"/>
      <point x="443" y="174"/>
      <point x="443" y="115" type="qcurve"/>
      <point x="443" y="57"/>
      <point x="360" y="-25"/>
    </contour>
  </outline>
</glyph>
<glyph name="quotedbl" format="2">
  <advance width="925"/>
  <unicode hex="0022"/>
  <outline>
    <contour>
      <point x="226" y="1502" type="line"/>
      <point x="412" y="1502" type="line"/>
      <point x="412" y="924" type="line"/>
      <point x="226" y="924" type="line"/>
    </contour>
    <contour>
      <point x="513" y="1502" type="line"/>
      <point x="699" y="1502" type="line"/>
      <point x="699" y="924" type="line"/>
      <point x="513" y="924" type="line"/>
    </contour>
  </outline>
</glyph>
<glyph name="numbersign" format="2">
  <advance width="1281"/>
  <unicode hex="0023"/>
  <outline>
    <contour>
      <point x="625" y="-10" type="line"/>
      <point x="705" y="389" type="line"/>
      <point x="422" y="389" type="line"/>
      <point x="342" y="-10" type="line"/>
      <point x="152" y="-10" type="line"/>
      <point x="231" y="389" type="line"/>
      <point x="0" y="389" type="line"/>
      <point x="37" y="580" type="line"/>
      <point x="270" y="580" type="line"/>
      <point x="332" y="894" type="line"/>
      <point x="91" y="894" type="line"/>
      <point x="129" y="1084" type="line"/>
      <point x="370" y="1084" type="line"/>
      <point x="449" y="1467" type="line"/>
      <point x="639" y="1467" type="line"/>
      <point x="563" y="1084" type="line"/>
      <point x="845" y="1084" type="line"/>
      <point x="923" y="1467" type="line"/>
      <point x="1114" y="1467" type="line"/>
      <point x="1037" y="1084" type="line"/>
      <point x="1281" y="1084" type="line"/>
      <point x="1245" y="894" type="line"/>
      <point x="998" y="894" type="line"/>
      <point x="934" y="580" type="line"/>
      <point x="1188" y="580" type="line"/>
      <point x="1152" y="389" type="line"/>
      <point x="897" y="389" type="line"/>
      <point x="817" y="-10" type="line"/>
    </contour>
    <contour>
      <point x="453" y="572" type="line"/>
      <point x="747" y="572" type="line"/>
      <point x="814" y="901" type="line"/>
      <point x="519" y="901" type="line"/>
    </contour>
  </outline>
</glyph>
<glyph name="dollar" format="2">
  <advance width="1290"/>
  <unicode hex="0024"/>
  <outline>
    <contour>
      <point x="727" y="-147" type="line"/>
      <point x="570" y="-147" type="line"/>
      <point x="570" y="-13" type="line"/>
      <point x="358" y="3"/>
      <point x="105" y="229"/>
      <point x="101" y="416" type="qcurve"/>
      <point x="332" y="416" type="line"/>
      <point x="341" y="319"/>
      <point x="466" y="203"/>
      <point x="570" y="190" type="qcurve"/>
      <point x="570" y="649" type="line"/>
      <point x="489" y="670" type="line"/>
      <point x="318" y="714"/>
      <point x="134" y="918"/>
      <point x="134" y="1068" type="qcurve"/>
      <point x="134" y="1244"/>
      <point x="369" y="1466"/>
      <point x="570" y="1486" type="qcurve"/>
      <point x="570" y="1627" type="line"/>
      <point x="727" y="1627" type="line"/>
      <point x="727" y="1486" type="line"/>
      <point x="921" y="1468"/>
      <point x="1157" y="1242"/>
      <point x="1164" y="1062" type="qcurve"/>
      <point x="935" y="1062" type="line"/>
      <point x="931" y="1153"/>
      <point x="817" y="1269"/>
      <point x="727" y="1282" type="qcurve"/>
      <point x="727" y="850" type="line"/>
      <point x="812" y="830" type="line"/>
      <point x="1001" y="783"/>
      <point x="1189" y="582"/>
      <point x="1189" y="422" type="qcurve"/>
      <point x="1189" y="234"/>
      <point x="944" y="7"/>
      <point x="727" y="-12" type="qcurve"/>
    </contour>
    <contour>
      <point x="957" y="401" type="qcurve"/>
      <point x="957" y="488"/>
      <point x="845" y="594"/>
      <point x="727" y="618" type="qcurve"/>
      <point x="727" y="187" type="line"/>
      <point x="837" y="193"/>
      <point x="957" y="305"/>
    </contour>
    <contour>
      <point x="368" y="1083" type="qcurve"/>
      <point x="368" y="1005"/>
      <point x="473" y="904"/>
      <point x="570" y="883" type="qcurve"/>
      <point x="570" y="1283" type="line"/>
      <point x="483" y="1276"/>
      <point x="368" y="1167"/>
    </contour>
  </outline>
</glyph>
<glyph name="percent" format="2">
  <advance width="1580"/>
  <unicode hex="0025"/>
  <outline>
    <contour>
      <point x="693" y="1111" type="qcurve"/>
      <point x="693" y="940"/>
      <point x="516" y="734"/>
      <point x="371" y="734" type="qcurve"/>
      <point x="225" y="734"/>
      <point x="48" y="940"/>
      <point x="48" y="1111" type="qcurve"/>
      <point x="48" y="1282"/>
      <point x="225" y="1489"/>
      <point x="371" y="1489" type="qcurve"/>
      <point x="516" y="1489"/>
      <point x="693" y="1282"/>
    </contour>
    <contour>
      <point x="371" y="896" type="qcurve"/>
      <point x="426" y="896"/>
      <point x="490" y="1009"/>
      <point x="490" y="1112" type="qcurve"/>
      <point x="490" y="1215"/>
      <point x="426" y="1327"/>
      <point x="371" y="1327" type="qcurve"/>
      <point x="315" y="1327"/>
      <point x="251" y="1215"/>
      <point x="251" y="1112" type="qcurve"/>
      <point x="251" y="1009"/>
      <point x="315" y="896"/>
    </contour>
    <contour>
      <point x="367" y="-10" type="line"/>
      <point x="144" y="-10" type="line"/>
      <point x="714" y="777" type="line"/>
      <point x="1214" y="1468" type="line"/>
      <point x="1436" y="1468" type="line"/>
      <point x="881" y="700" type="line"/>
    </contour>
    <contour>
      <point x="1532" y="351" type="qcurve"/>
      <point x="1532" y="180"/>
      <point x="1356" y="-27"/>
      <point x="1210" y="-27" type="qcurve"/>
      <point x="1064" y="-27"/>
      <point x="888" y="180"/>
      <point x="888" y="351" type="qcurve"/>
      <point x="888" y="522"/>
      <point x="1064" y="729"/>
      <point x="1210" y="729" type="qcurve"/>
      <point x="1356" y="729"/>
      <point x="1532" y="522"/>
    </contour>
    <contour>
      <point x="1210" y="136" type="qcurve"/>
      <point x="1266" y="136"/>
      <point x="1329" y="248"/>
      <point x="1329" y="352" type="qcurve"/>
      <point x="1329" y="455"/>
      <point x="1266" y="567"/>
      <point x="1210" y="567" type="qcurve"/>
      <point x="1154" y="567"/>
      <point x="1091" y="455"/>
      <point x="1091" y="352" type="qcurve"/>
      <point x="1091" y="248"/>
      <point x="1154" y="136"/>
    </contour>
  </outline>
</glyph>
<glyph name="ampersand" format="2">
  <advance width="1427"/>
  <unicode hex="0026"/>
  <outline>
    <contour>
      <point x="1155" y="-10" type="line"/>
      <point x="1033" y="124" type="line"/>
      <point x="948" y="50"/>
      <point x="708" y="-35"/>
      <point x="578" y="-35" type="qcurve"/>
      <point x="356" y="-35"/>
      <point x="77" y="199"/>
      <point x="77" y="386" type="qcurve"/>
      <point x="77" y="644"/>
      <point x="359" y="793" type="qcurve"/>
      <point x="372" y="799"/>
      <point x="395" y="812"/>
      <point x="408" y="820"/>
      <point x="405" y="819" type="qcurve"/>
      <point x="315" y="913"/>
      <point x="234" y="1069"/>
      <point x="234" y="1152" type="qcurve"/>
      <point x="234" y="1296"/>
      <point x="458" y="1490"/>
      <point x="624" y="1490" type="qcurve"/>
      <point x="793" y="1490"/>
      <point x="1012" y="1299"/>
      <point x="1012" y="1152" type="qcurve"/>
      <point x="1012" y="1038"/>
      <point x="867" y="855"/>
      <point x="715" y="774" type="qcurve"/>
      <point x="1025" y="438" type="line"/>
      <point x="1051" y="486"/>
      <point x="1079" y="648"/>
      <point x="1079" y="767" type="qcurve"/>
      <point x="1079" y="832" type="line"/>
      <point x="1293" y="832" type="line"/>
      <point x="1293" y="761" type="line"/>
      <point x="1293" y="450"/>
      <point x="1176" y="277" type="qcurve"/>
      <point x="1445" y="-10" type="line"/>
    </contour>
    <contour>
      <point x="492" y="657" type="qcurve"/>
      <point x="394" y="597"/>
      <point x="309" y="478"/>
      <point x="309" y="402" type="qcurve"/>
      <point x="309" y="292"/>
      <point x="467" y="160"/>
      <point x="599" y="160" type="qcurve"/>
      <point x="688" y="160"/>
      <point x="850" y="221"/>
      <point x="897" y="272" type="qcurve"/>
      <point x="530" y="678" type="line"/>
      <point x="514" y="669"/>
    </contour>
    <contour>
      <point x="591" y="903" type="qcurve"/>
      <point x="702" y="960"/>
      <point x="797" y="1070"/>
      <point x="797" y="1141" type="qcurve"/>
      <point x="797" y="1216"/>
      <point x="704" y="1308"/>
      <point x="625" y="1308" type="qcurve"/>
      <point x="549" y="1308"/>
      <point x="453" y="1214"/>
      <point x="453" y="1140" type="qcurve"/>
      <point x="453" y="1085"/>
      <point x="516" y="978"/>
    </contour>
  </outline>
</glyph>
<glyph name="quotesingle" format="2">
  <advance width="622"/>
  <unicode hex="0027"/>
  <outline>
    <contour>
      <point x="218" y="1502" type="line"/>
      <point x="404" y="1502" type="line"/>
      <point x="404" y="924" type="line"/>
      <point x="218" y="924" type="line"/>
    </contour>
  </outline>
</glyph>
<glyph name="parenleft" format="2">
  <advance width="644"/>
  <unicode hex="0028"/>
  <outline>
    <contour>
      <point x="403" y="-431" type="line"/>
      <point x="272" y="-145" type="line"/>
      <point x="223" y="-44"/>
      <point x="185" y="56" type="qcurve"/>
      <point x="96" y="292"/>
      <point x="96" y="568" type="qcurve"/>
      <point x="96" y="816"/>
      <point x="180" y="1068" type="qcurve"/>
      <point x="223" y="1197"/>
      <point x="287" y="1317" type="qcurve"/>
      <point x="405" y="1552" type="line"/>
      <point x="695" y="1552" type="line"/>
      <point x="503" y="1267" type="line"/>
      <point x="450" y="1151"/>
      <point x="420" y="1039" type="qcurve"/>
      <point x="360" y="813"/>
      <point x="360" y="568" type="qcurve"/>
      <point x="360" y="315"/>
      <point x="421" y="88" type="qcurve"/>
      <point x="449" y="-13"/>
      <point x="494" y="-118" type="qcurve"/>
      <point x="693" y="-431" type="line"/>
    </contour>
  </outline>
</glyph>
<glyph name="parenright" format="2">
  <advance width="644"/>
  <unicode hex="0029"/>
  <outline>
    <contour>
      <point x="238" y="-431" type="line"/>
      <point x="-52" y="-431" type="line"/>
      <point x="147" y="-118" type="line"/>
      <point x="192" y="-13"/>
      <point x="220" y="88" type="qcurve"/>
      <point x="281" y="315"/>
      <point x="281" y="568" type="qcurve"/>
      <point x="281" y="813"/>
      <point x="221" y="1039" type="qcurve"/>
      <point x="191" y="1151"/>
      <point x="137" y="1267" type="qcurve"/>
      <point x="-54" y="1552" type="line"/>
      <point x="236" y="1552" type="line"/>
      <point x="354" y="1317" type="line"/>
      <point x="418" y="1197"/>
      <point x="461" y="1068" type="qcurve"/>
      <point x="545" y="816"/>
      <point x="545" y="568" type="qcurve"/>
      <point x="545" y="292"/>
      <point x="455" y="56" type="qcurve"/>
      <point x="418" y="-44"/>
      <point x="368" y="-145" type="qcurve"/>
    </contour>
  </outline>
</glyph>
<glyph name="asterisk" format="2">
  <advance width="826"/>
  <unicode hex="002A"/>
  <outline>
    <contour>
      <point x="503" y="1304" type="line"/>
      <point x="704" y="1379" type="line"/>
      <point x="777" y="1206" type="line"/>
      <point x="564" y="1132" type="line"/>
      <point x="691" y="957" type="line"/>
      <point x="543" y="845" type="line"/>
      <point x="411" y="1028" type="line"/>
      <point x="287" y="846" type="line"/>
      <point x="128" y="955" type="line"/>
      <point x="254" y="1132" type="line"/>
      <point x="49" y="1206" type="line"/>
      <point x="114" y="1379" type="line"/>
      <point x="315" y="1304" type="line"/>
      <point x="315" y="1517" type="line"/>
      <point x="503" y="1517" type="line"/>
    </contour>
  </outline>
</glyph>
<glyph name="plus" format="2">
  <advance width="1309"/>
  <unicode hex="002B"/>
  <outline>
    <contour>
      <point x="764" y="-25" type="line"/>
      <point x="544" y="-25" type="line"/>
      <point x="544" y="424" type="line"/>
      <point x="98" y="424" type="line"/>
      <point x="98" y="643" type="line"/>
      <point x="544" y="643" type="line"/>
      <point x="544" y="1091" type="line"/>
      <point x="764" y="1091" type="line"/>
      <point x="764" y="643" type="line"/>
      <point x="1210" y="643" type="line"/>
      <point x="1210" y="424" type="line"/>
      <point x="764" y="424" type="line"/>
    </contour>
  </outline>
</glyph>
<glyph name="comma" format="2">
  <advance width="649"/>
  <unicode hex="002C"/>
  <outline>
    <contour>
      <point x="170" y="282" type="line"/>
      <point x="477" y="282" type="line"/>
      <point x="477" y="35" type="line"/>
      <point x="477" y="-93"/>
      <point x="357" y="-285"/>
      <point x="172" y="-339" type="qcurve"/>
      <point x="172" y="-155" type="line"/>
      <point x="225" y="-137"/>
      <point x="261" y="-103"/>
      <point x="282" y="-56"/>
      <point x="293" y="-7"/>
      <point x="294" y="-25" type="qcurve"/>
      <point x="170" y="-25" type="line"/>
    </contour>
  </outline>
</glyph>
<glyph name="hyphenminus" format="2">
  <advance width="877"/>
  <unicode hex="002D"/>
  <outline>
    <contour>
      <point x="102" y="706" type="line"/>
      <point x="774" y="706" type="line"/>
      <point x="774" y="462" type="line"/>
      <point x="102" y="462" type="line"/>
    </contour>
  </outline>
</glyph>
<glyph name="period" format="2">
  <advance width="649"/>
  <unicode hex="002E"/>
  <outline>
    <contour>
      <point x="170" y="282" type="line"/>
      <point x="477" y="282" type="line"/>
      <point x="477" y="-25" type="line"/>
      <point x="170" y="-25" type="line"/>
    </contour>
  </outline>
</glyph>
<glyph name="slash" format="2">
  <advance width="799"/>
  <unicode hex="002F"/>
  <outline>
    <contour>
      <point x="601" y="1552" type="line"/>
      <point x="836" y="1552" type="line"/>
      <point x="199" y="-60" type="line"/>
      <point x="-37" y="-60" type="line"/>
    </contour>
  </outline>
</glyph>
<glyph name="zero" format="2">
  <advance width="1295"/>
  <unicode hex="0030"/>
  <outline>
    <contour>
      <point x="648" y="-37" type="qcurve"/>
      <point x="472" y="-37"/>
      <point x="221" y="152"/>
      <point x="87" y="497"/>
      <point x="87" y="731" type="qcurve"/>
      <point x="87" y="963"/>
      <point x="222" y="1306"/>
      <point x="473" y="1495"/>
      <point x="648" y="1495" type="qcurve"/>
      <point x="823" y="1495"/>
      <point x="1073" y="1307"/>
      <point x="1207" y="964"/>
      <point x="1207" y="732" type="qcurve"/>
      <point x="1207" y="498"/>
      <point x="1074" y="152"/>
      <point x="824" y="-37"/>
    </contour>
    <contour>
      <point x="648" y="173" type="qcurve"/>
      <point x="798" y="173"/>
      <point x="961" y="468"/>
      <point x="961" y="731" type="qcurve"/>
      <point x="961" y="989"/>
      <point x="797" y="1285"/>
      <point x="648" y="1285" type="qcurve"/>
      <point x="499" y="1285"/>
      <point x="334" y="988"/>
      <point x="334" y="731" type="qcurve"/>
      <point x="334" y="469"/>
      <point x="498" y="173"/>
    </contour>
  </outline>
</glyph>
<glyph name="one" format="2">
  <advance width="955"/>
  <unicode hex="0031"/>
  <outline>
    <contour>
      <point x="477" y="-10" type="line"/>
      <point x="477" y="1223" type="line"/>
      <point x="485" y="1223" type="line"/>
      <point x="95" y="943" type="line"/>
      <point x="95" y="1190" type="line"/>
      <point x="482" y="1467" type="line"/>
      <point x="716" y="1467" type="line"/>
      <point x="716" y="-10" type="line"/>
    </contour>
  </outline>
</glyph>
<glyph name="two" format="2">
  <advance width="1206"/>
  <unicode hex="0032"/>
  <outline>
    <contour>
      <point x="100" y="1030" type="line"/>
      <point x="100" y="1164"/>
      <point x="232" y="1374"/>
      <point x="461" y="1495"/>
      <point x="606" y="1495" type="qcurve"/>
      <point x="745" y="1495"/>
      <point x="967" y="1384"/>
      <point x="1096" y="1195"/>
      <point x="1096" y="1077" type="qcurve"/>
      <point x="1096" y="947"/>
      <point x="950" y="715"/>
      <point x="792" y="556" type="qcurve"/>
      <point x="434" y="192" type="line"/>
      <point x="434" y="201" type="line"/>
      <point x="1119" y="201" type="line"/>
      <point x="1119" y="-10" type="line"/>
      <point x="112" y="-10" type="line"/>
      <point x="112" y="158" type="line"/>
      <point x="636" y="697" type="line"/>
      <point x="764" y="830"/>
      <point x="855" y="982"/>
      <point x="855" y="1066" type="qcurve"/>
      <point x="855" y="1159"/>
      <point x="709" y="1288"/>
      <point x="599" y="1288" type="qcurve"/>
      <point x="484" y="1288"/>
      <point x="332" y="1142"/>
      <point x="332" y="1031" type="qcurve"/>
      <point x="332" y="1018" type="line"/>
      <point x="100" y="1018" type="line"/>
    </contour>
  </outline>
</glyph>
<glyph name="three" format="2">
  <advance width="1261"/>
  <unicode hex="0033"/>
  <outline>
    <contour>
      <point x="427" y="650" type="line"/>
      <point x="427" y="848" type="line"/>
      <point x="611" y="848" type="line"/>
      <point x="725" y="848"/>
      <point x="864" y="974"/>
      <point x="864" y="1074" type="qcurve"/>
      <point x="864" y="1172"/>
      <point x="736" y="1289"/>
      <point x="611" y="1289" type="qcurve"/>
      <point x="496" y="1289"/>
      <point x="358" y="1167"/>
      <point x="347" y="1055" type="qcurve"/>
      <point x="116" y="1055" type="line"/>
      <point x="132" y="1260"/>
      <point x="403" y="1495"/>
      <point x="621" y="1495" type="qcurve"/>
      <point x="759" y="1495"/>
      <point x="977" y="1395"/>
      <point x="1103" y="1219"/>
      <point x="1103" y="1104" type="qcurve"/>
      <point x="1103" y="965"/>
      <point x="938" y="777"/>
      <point x="806" y="751" type="qcurve"/>
      <point x="806" y="765" type="line"/>
      <point x="967" y="752"/>
      <point x="1163" y="558"/>
      <point x="1163" y="402" type="qcurve"/>
      <point x="1163" y="273"/>
      <point x="1019" y="75"/>
      <point x="775" y="-37"/>
      <point x="623" y="-37" type="qcurve"/>
      <point x="387" y="-37"/>
      <point x="101" y="205"/>
      <point x="87" y="407" type="qcurve"/>
      <point x="322" y="407" type="line"/>
      <point x="333" y="298"/>
      <point x="489" y="172"/>
      <point x="623" y="172" type="qcurve"/>
      <point x="752" y="172"/>
      <point x="915" y="302"/>
      <point x="915" y="405" type="qcurve"/>
      <point x="915" y="520"/>
      <point x="756" y="650"/>
      <point x="617" y="650" type="qcurve"/>
    </contour>
  </outline>
</glyph>
<glyph name="four" format="2">
  <advance width="1291"/>
  <unicode hex="0034"/>
  <outline>
    <contour>
      <point x="798" y="-10" type="line"/>
      <point x="798" y="278" type="line"/>
      <point x="76" y="278" type="line"/>
      <point x="76" y="488" type="line"/>
      <point x="233" y="797"/>
      <point x="694" y="1467" type="qcurve"/>
      <point x="1033" y="1467" type="line"/>
      <point x="1033" y="488" type="line"/>
      <point x="1231" y="488" type="line"/>
      <point x="1231" y="278" type="line"/>
      <point x="1033" y="278" type="line"/>
      <point x="1033" y="-10" type="line"/>
    </contour>
    <contour>
      <point x="305" y="477" type="qcurve"/>
      <point x="305" y="485" type="line"/>
      <point x="800" y="485" type="line"/>
      <point x="800" y="1273" type="line"/>
      <point x="811" y="1273" type="line"/>
      <point x="458" y="761"/>
    </contour>
  </outline>
</glyph>
<glyph name="five" format="2">
  <advance width="1249"/>
  <unicode hex="0035"/>
  <outline>
    <contour>
      <point x="640" y="-37" type="qcurve"/>
      <point x="421" y="-37"/>
      <point x="131" y="210"/>
      <point x="117" y="415" type="qcurve"/>
      <point x="350" y="415" type="line"/>
      <point x="365" y="302"/>
      <point x="523" y="172"/>
      <point x="642" y="172" type="qcurve"/>
      <point x="775" y="172"/>
      <point x="940" y="339"/>
      <point x="940" y="473" type="qcurve"/>
      <point x="940" y="607"/>
      <point x="775" y="777"/>
      <point x="644" y="777" type="qcurve"/>
      <point x="552" y="777"/>
      <point x="404" y="698"/>
      <point x="360" y="624" type="qcurve"/>
      <point x="139" y="624" type="line"/>
      <point x="216" y="1468" type="line"/>
      <point x="1095" y="1468" type="line"/>
      <point x="1095" y="1257" type="line"/>
      <point x="415" y="1257" type="line"/>
      <point x="376" y="829" type="line"/>
      <point x="365" y="829" type="line"/>
      <point x="413" y="898"/>
      <point x="585" y="977"/>
      <point x="693" y="977" type="qcurve"/>
      <point x="833" y="977"/>
      <point x="1053" y="847"/>
      <point x="1179" y="622"/>
      <point x="1179" y="479" type="qcurve"/>
      <point x="1179" y="327"/>
      <point x="1040" y="95"/>
      <point x="797" y="-37"/>
    </contour>
  </outline>
</glyph>
<glyph name="six" format="2">
  <advance width="1279"/>
  <unicode hex="0036"/>
  <outline>
    <contour>
      <point x="665" y="-38" type="qcurve"/>
      <point x="503" y="-38"/>
      <point x="251" y="124"/>
      <point x="178" y="275" type="qcurve"/>
      <point x="88" y="452"/>
      <point x="88" y="709" type="qcurve"/>
      <point x="88" y="1078"/>
      <point x="400" y="1496"/>
      <point x="675" y="1496" type="qcurve"/>
      <point x="869" y="1496"/>
      <point x="1146" y="1277"/>
      <point x="1184" y="1089" type="qcurve"/>
      <point x="941" y="1089" type="line"/>
      <point x="912" y="1182"/>
      <point x="770" y="1286"/>
      <point x="673" y="1286" type="qcurve"/>
      <point x="507" y="1286"/>
      <point x="325" y="998"/>
      <point x="323" y="731" type="qcurve"/>
      <point x="311" y="731" type="line"/>
      <point x="359" y="837"/>
      <point x="576" y="968"/>
      <point x="713" y="968" type="qcurve"/>
      <point x="853" y="968"/>
      <point x="1074" y="839"/>
      <point x="1202" y="616"/>
      <point x="1202" y="476" type="qcurve"/>
      <point x="1202" y="328"/>
      <point x="1063" y="96"/>
      <point x="820" y="-38"/>
    </contour>
    <contour>
      <point x="663" y="173" type="qcurve"/>
      <point x="787" y="173"/>
      <point x="959" y="344"/>
      <point x="959" y="469" type="qcurve"/>
      <point x="959" y="598"/>
      <point x="795" y="763"/>
      <point x="665" y="763" type="qcurve"/>
      <point x="536" y="763"/>
      <point x="368" y="599"/>
      <point x="368" y="473" type="qcurve"/>
      <point x="368" y="346"/>
      <point x="537" y="173"/>
    </contour>
  </outline>
</glyph>
<glyph name="seven" format="2">
  <advance width="1159"/>
  <unicode hex="0037"/>
  <outline>
    <contour>
      <point x="186" y="-10" type="line"/>
      <point x="833" y="1264" type="line"/>
      <point x="833" y="1257" type="line"/>
      <point x="72" y="1257" type="line"/>
      <point x="72" y="1467" type="line"/>
      <point x="1074" y="1467" type="line"/>
      <point x="1074" y="1259" type="line"/>
      <point x="443" y="-10" type="line"/>
    </contour>
  </outline>
</glyph>
<glyph name="eight" format="2">
  <advance width="1286"/>
  <unicode hex="0038"/>
  <outline>
    <contour>
      <point x="643" y="-37" type="qcurve"/>
      <point x="480" y="-37"/>
      <point x="229" y="74"/>
      <point x="87" y="269"/>
      <point x="87" y="394" type="qcurve"/>
      <point x="87" y="536"/>
      <point x="266" y="745"/>
      <point x="408" y="777" type="qcurve"/>
      <point x="408" y="766" type="line"/>
      <point x="289" y="801"/>
      <point x="145" y="981"/>
      <point x="145" y="1101" type="qcurve"/>
      <point x="145" y="1214"/>
      <point x="275" y="1392"/>
      <point x="500" y="1495"/>
      <point x="643" y="1495" type="qcurve"/>
      <point x="787" y="1495"/>
      <point x="1011" y="1393"/>
      <point x="1140" y="1214"/>
      <point x="1140" y="1100" type="qcurve"/>
      <point x="1140" y="982"/>
      <point x="997" y="802"/>
      <point x="878" y="766" type="qcurve"/>
      <point x="878" y="777" type="line"/>
      <point x="1021" y="745"/>
      <point x="1199" y="536"/>
      <point x="1199" y="394" type="qcurve"/>
      <point x="1199" y="268"/>
      <point x="1056" y="73"/>
      <point x="805" y="-37"/>
    </contour>
    <contour>
      <point x="643" y="165" type="qcurve"/>
      <point x="778" y="165"/>
      <point x="947" y="303"/>
      <point x="947" y="410" type="qcurve"/>
      <point x="947" y="520"/>
      <point x="778" y="658"/>
      <point x="643" y="658" type="qcurve"/>
      <point x="508" y="658"/>
      <point x="338" y="519"/>
      <point x="338" y="410" type="qcurve"/>
      <point x="338" y="303"/>
      <point x="508" y="165"/>
    </contour>
    <contour>
      <point x="643" y="860" type="qcurve"/>
      <point x="756" y="860"/>
      <point x="899" y="981"/>
      <point x="899" y="1077" type="qcurve"/>
      <point x="899" y="1173"/>
      <point x="757" y="1295"/>
      <point x="643" y="1295" type="qcurve"/>
      <point x="528" y="1295"/>
      <point x="387" y="1174"/>
      <point x="387" y="1077" type="qcurve"/>
      <point x="387" y="981"/>
      <point x="528" y="860"/>
    </contour>
  </outline>
</glyph>
<glyph name="nine" format="2">
  <advance width="1280"/>
  <unicode hex="0039"/>
  <outline>
    <contour>
      <point x="606" y="-37" type="qcurve"/>
      <point x="411" y="-37"/>
      <point x="133" y="182"/>
      <point x="95" y="370" type="qcurve"/>
      <point x="340" y="370" type="line"/>
      <point x="367" y="277"/>
      <point x="512" y="171"/>
      <point x="609" y="171" type="qcurve"/>
      <point x="774" y="171"/>
      <point x="956" y="465"/>
      <point x="956" y="739" type="qcurve"/>
      <point x="966" y="729"/>
      <point x="964" y="729" type="qcurve"/>
      <point x="964" y="729"/>
      <point x="963" y="729" type="qcurve"/>
      <point x="963" y="729"/>
      <point x="962" y="729" type="qcurve"/>
      <point x="922" y="622"/>
      <point x="708" y="490"/>
      <point x="566" y="490" type="qcurve"/>
      <point x="427" y="490"/>
      <point x="206" y="619"/>
      <point x="77" y="842"/>
      <point x="77" y="982" type="qcurve"/>
      <point x="77" y="1130"/>
      <point x="217" y="1362"/>
      <point x="459" y="1496"/>
      <point x="614" y="1496" type="qcurve"/>
      <point x="777" y="1496"/>
      <point x="1030" y="1334"/>
      <point x="1102" y="1184" type="qcurve"/>
      <point x="1192" y="1007"/>
      <point x="1192" y="750" type="qcurve"/>
      <point x="1192" y="381"/>
      <point x="881" y="-37"/>
    </contour>
    <contour>
      <point x="614" y="695" type="qcurve"/>
      <point x="744" y="695"/>
      <point x="913" y="859"/>
      <point x="913" y="985" type="qcurve"/>
      <point x="913" y="1111"/>
      <point x="743" y="1283"/>
      <point x="617" y="1283" type="qcurve"/>
      <point x="491" y="1283"/>
      <point x="320" y="1113"/>
      <point x="320" y="989" type="qcurve"/>
      <point x="320" y="861"/>
      <point x="486" y="695"/>
    </contour>
  </outline>
</glyph>
<glyph name="colon" format="2">
  <advance width="649"/>
  <unicode hex="003A"/>
  <outline>
    <contour>
      <point x="170" y="282" type="line"/>
      <point x="477" y="282" type="line"/>
      <point x="477" y="-25" type="line"/>
      <point x="170" y="-25" type="line"/>
    </contour>
    <contour>
      <point x="477" y="806" type="line"/>
      <point x="170" y="806" type="line"/>
      <point x="170" y="1114" type="line"/>
      <point x="477" y="1114" type="line"/>
    </contour>
  </outline>
</glyph>
<glyph name="semicolon" format="2">
  <advance width="649"/>
  <unicode hex="003B"/>
  <outline>
    <contour>
      <point x="170" y="282" type="line"/>
      <point x="477" y="282" type="line"/>
      <point x="477" y="36" type="line"/>
      <point x="480" y="-93"/>
      <point x="356" y="-285"/>
      <point x="172" y="-339" type="qcurve"/>
      <point x="172" y="-155" type="line"/>
      <point x="225" y="-137"/>
      <point x="261" y="-103"/>
      <point x="282" y="-56"/>
      <point x="293" y="-7"/>
      <point x="294" y="-25" type="qcurve"/>
      <point x="170" y="-25" type="line"/>
    </contour>
    <contour>
      <point x="477" y="806" type="line"/>
      <point x="170" y="806" type="line"/>
      <point x="170" y="1114" type="line"/>
      <point x="477" y="1114" type="line"/>
    </contour>
  </outline>
</glyph>
<glyph name="less" format="2">
  <advance width="1309"/>
  <unicode hex="003C"/>
  <outline>
    <contour>
      <point x="1214" y="903" type="line"/>
      <point x="401" y="533" type="line"/>
      <point x="1214" y="164" type="line"/>
      <point x="1214" y="-63" type="line"/>
      <point x="94" y="444" type="line"/>
      <point x="94" y="622" type="line"/>
      <point x="1214" y="1130" type="line"/>
    </contour>
  </outline>
</glyph>
<glyph name="equal" format="2">
  <advance width="1309"/>
  <unicode hex="003D"/>
  <outline>
    <contour>
      <point x="1210" y="630" type="line"/>
      <point x="98" y="630" type="line"/>
      <point x="98" y="850" type="line"/>
      <point x="1210" y="850" type="line"/>
    </contour>
    <contour>
      <point x="98" y="436" type="line"/>
      <point x="1210" y="436" type="line"/>
      <point x="1210" y="217" type="line"/>
      <point x="98" y="217" type="line"/>
    </contour>
  </outline>
</glyph>
<glyph name="greater" format="2">
  <advance width="1309"/>
  <unicode hex="003E"/>
  <outline>
    <contour>
      <point x="94" y="164" type="line"/>
      <point x="908" y="533" type="line"/>
      <point x="94" y="903" type="line"/>
      <point x="94" y="1130" type="line"/>
      <point x="1214" y="622" type="line"/>
      <point x="1214" y="444" type="line"/>
      <point x="94" y="-63" type="line"/>
    </contour>
  </outline>
</glyph>
<glyph name="question" format="2">
  <advance width="1053"/>
  <unicode hex="003F"/>
  <outline>
    <contour>
      <point x="625" y="421" type="line"/>
      <point x="400" y="421" type="line"/>
      <point x="400" y="538" type="line"/>
      <point x="399" y="644"/>
      <point x="503" y="799"/>
      <point x="612" y="863" type="qcurve"/>
      <point x="695" y="914"/>
      <point x="761" y="1012"/>
      <point x="761" y="1083" type="qcurve"/>
      <point x="761" y="1138"/>
      <point x="708" y="1224"/>
      <point x="608" y="1273"/>
      <point x="541" y="1273" type="qcurve"/>
      <point x="438" y="1273"/>
      <point x="315" y="1162"/>
      <point x="306" y="1041" type="qcurve"/>
      <point x="86" y="1041" type="line"/>
      <point x="93" y="1183"/>
      <point x="202" y="1371"/>
      <point x="406" y="1479"/>
      <point x="548" y="1479" type="qcurve"/>
      <point x="678" y="1479"/>
      <point x="882" y="1379"/>
      <point x="997" y="1201"/>
      <point x="997" y="1092" type="qcurve"/>
      <point x="997" y="859"/>
      <point x="776" y="726" type="qcurve"/>
      <point x="714" y="689"/>
      <point x="650" y="628"/>
      <point x="625" y="560"/>
      <point x="625" y="511" type="qcurve"/>
    </contour>
    <contour>
      <point x="572" y="-35"/>
      <point x="513" y="-35" type="qcurve"/>
      <point x="455" y="-35"/>
      <point x="374" y="46"/>
      <point x="374" y="104" type="qcurve"/>
      <point x="374" y="163"/>
      <point x="455" y="243"/>
      <point x="513" y="243" type="qcurve"/>
      <point x="572" y="243"/>
      <point x="652" y="163"/>
      <point x="652" y="104" type="qcurve"/>
      <point x="652" y="46"/>
    </contour>
  </outline>
</glyph>
<glyph name="at" format="2">
  <advance width="1838"/>
  <unicode hex="0040"/>
  <outline>
    <contour>
      <point x="910" y="865" type="qcurve"/>
      <point x="825" y="865"/>
      <point x="733" y="738"/>
      <point x="733" y="617" type="qcurve"/>
      <point x="733" y="497"/>
      <point x="825" y="369"/>
      <point x="909" y="369" type="qcurve"/>
      <point x="996" y="369"/>
      <point x="1096" y="499"/>
      <point x="1096" y="617" type="qcurve"/>
      <point x="1096" y="735"/>
      <point x="997" y="865"/>
    </contour>
    <contour>
      <point x="945" y="1494" type="qcurve"/>
      <point x="1183" y="1494"/>
      <point x="1555" y="1299"/>
      <point x="1768" y="951"/>
      <point x="1768" y="721" type="qcurve"/>
      <point x="1768" y="555"/>
      <point x="1671" y="303"/>
      <point x="1490" y="162"/>
      <point x="1366" y="162" type="qcurve"/>
      <point x="1274" y="162"/>
      <point x="1132" y="264"/>
      <point x="1116" y="349" type="qcurve"/>
      <point x="1148" y="349" type="line"/>
      <point x="1111" y="262"/>
      <point x="969" y="169"/>
      <point x="877" y="169" type="qcurve"/>
      <point x="714" y="169"/>
      <point x="509" y="422"/>
      <point x="509" y="622" type="qcurve"/>
      <point x="509" y="813"/>
      <point x="714" y="1061"/>
      <point x="873" y="1061" type="qcurve"/>
      <point x="957" y="1061"/>
      <point x="1100" y="974"/>
      <point x="1135" y="897" type="qcurve"/>
      <point x="1104" y="897" type="line"/>
      <point x="1104" y="1041" type="line"/>
      <point x="1313" y="1041" type="line"/>
      <point x="1313" y="441" type="line"/>
      <point x="1313" y="396"/>
      <point x="1353" y="348"/>
      <point x="1400" y="348" type="qcurve"/>
      <point x="1475" y="348"/>
      <point x="1572" y="535"/>
      <point x="1572" y="716" type="qcurve"/>
      <point x="1572" y="897"/>
      <point x="1413" y="1165"/>
      <point x="1126" y="1313"/>
      <point x="934" y="1313" type="qcurve"/>
      <point x="744" y="1313"/>
      <point x="453" y="1137"/>
      <point x="288" y="823"/>
      <point x="288" y="617" type="qcurve"/>
      <point x="288" y="396"/>
      <point x="462" y="92"/>
      <point x="769" y="-66"/>
      <point x="968" y="-66" type="qcurve"/>
      <point x="1060" y="-66"/>
      <point x="1234" y="-40"/>
      <point x="1301" y="-12" type="qcurve"/>
      <point x="1301" y="-197" type="line"/>
      <point x="1146" y="-248"/>
      <point x="961" y="-248" type="qcurve"/>
      <point x="773" y="-248"/>
      <point x="455" y="-131"/>
      <point x="222" y="93"/>
      <point x="92" y="417"/>
      <point x="92" y="623" type="qcurve"/>
      <point x="92" y="881"/>
      <point x="310" y="1273"/>
      <point x="695" y="1494"/>
    </contour>
  </outline>
</glyph>
<glyph name="A" format="2">
  <advance width="1364"/>
  <unicode hex="0041"/>
  <outline>
    <contour>
      <point x="1080" y="-10" type="line"/>
      <point x="948" y="384" type="line"/>
      <point x="412" y="384" type="line"/>
      <point x="280" y="-10" type="line"/>
      <point x="26" y="-10" type="line"/>
      <point x="554" y="1467" type="line"/>
      <point x="810" y="1467" type="line"/>
      <point x="1338" y="-10" type="line"/>
    </contour>
    <contour>
      <point x="684" y="1205" type="line"/>
      <point x="476" y="586" type="line"/>
      <point x="884" y="586" type="line"/>
      <point x="676" y="1205" type="line"/>
    </contour>
  </outline>
</glyph>
<glyph name="B" format="2">
  <advance width="1284"/>
  <unicode hex="0042"/>
  <outline>
    <contour>
      <point x="722" y="-10" type="qcurve"/>
      <point x="133" y="-10" type="line"/>
      <point x="133" y="1467" type="line"/>
      <point x="719" y="1467" type="line"/>
      <point x="914" y="1467"/>
      <point x="1153" y="1262"/>
      <point x="1153" y="1094" type="qcurve"/>
      <point x="1153" y="975"/>
      <point x="1004" y="789"/>
      <point x="896" y="768" type="qcurve"/>
      <point x="896" y="778" type="line"/>
      <point x="1042" y="759"/>
      <point x="1224" y="560"/>
      <point x="1224" y="412" type="qcurve"/>
      <point x="1224" y="216"/>
      <point x="955" y="-10"/>
    </contour>
    <contour>
      <point x="377" y="1263" type="line"/>
      <point x="377" y="847" type="line"/>
      <point x="618" y="847" type="line"/>
      <point x="904" y="847"/>
      <point x="909" y="1063" type="qcurve"/>
      <point x="909" y="1258"/>
      <point x="665" y="1263" type="qcurve"/>
    </contour>
    <contour>
      <point x="377" y="195" type="line"/>
      <point x="676" y="195" type="line"/>
      <point x="974" y="195"/>
      <point x="975" y="426" type="qcurve"/>
      <point x="975" y="655"/>
      <point x="663" y="655" type="qcurve"/>
      <point x="377" y="655" type="line"/>
    </contour>
  </outline>
</glyph>
<glyph name="C" format="2">
  <advance width="1446"/>
  <unicode hex="0043"/>
  <outline>
    <contour>
      <point x="752" y="-34" type="qcurve"/>
      <point x="547" y="-34"/>
      <point x="246" y="153"/>
      <point x="81" y="495"/>
      <point x="81" y="729" type="qcurve"/>
      <point x="81" y="962"/>
      <point x="247" y="1305"/>
      <point x="548" y="1492"/>
      <point x="752" y="1492" type="qcurve"/>
      <point x="1000" y="1492"/>
      <point x="1341" y="1207"/>
      <point x="1375" y="965" type="qcurve"/>
      <point x="1134" y="965" type="line"/>
      <point x="1101" y="1110"/>
      <point x="896" y="1274"/>
      <point x="752" y="1274" type="qcurve"/>
      <point x="559" y="1274"/>
      <point x="330" y="980"/>
      <point x="330" y="729" type="qcurve"/>
      <point x="330" y="477"/>
      <point x="558" y="184"/>
      <point x="753" y="184" type="qcurve"/>
      <point x="901" y="184"/>
      <point x="1099" y="328"/>
      <point x="1134" y="464" type="qcurve"/>
      <point x="1377" y="464" type="line"/>
      <point x="1331" y="225"/>
      <point x="1004" y="-34"/>
    </contour>
  </outline>
</glyph>
<glyph name="D" format="2">
  <advance width="1425"/>
  <unicode hex="0044"/>
  <outline>
    <contour>
      <point x="133" y="1467" type="line"/>
      <point x="652" y="1467" type="line"/>
      <point x="977" y="1467"/>
      <point x="1345" y="1079"/>
      <point x="1345" y="731" type="qcurve"/>
      <point x="1345" y="383"/>
      <point x="978" y="-10"/>
      <point x="652" y="-10" type="qcurve"/>
      <point x="133" y="-10" type="line"/>
    </contour>
    <contour>
      <point x="377" y="1253" type="line"/>
      <point x="377" y="206" type="line"/>
      <point x="631" y="206" type="line"/>
      <point x="857" y="206"/>
      <point x="1096" y="474"/>
      <point x="1096" y="729" type="qcurve"/>
      <point x="1096" y="984"/>
      <point x="856" y="1253"/>
      <point x="631" y="1253" type="qcurve"/>
    </contour>
  </outline>
</glyph>
<glyph name="E" format="2">
  <advance width="1166"/>
  <unicode hex="0045"/>
  <outline>
    <contour>
      <point x="1069" y="206" type="line"/>
      <point x="1069" y="-10" type="line"/>
      <point x="133" y="-10" type="line"/>
      <point x="133" y="1467" type="line"/>
      <point x="1069" y="1467" type="line"/>
      <point x="1069" y="1253" type="line"/>
      <point x="377" y="1253" type="line"/>
      <point x="377" y="846" type="line"/>
      <point x="1032" y="846" type="line"/>
      <point x="1032" y="638" type="line"/>
      <point x="377" y="638" type="line"/>
      <point x="377" y="206" type="line"/>
    </contour>
  </outline>
</glyph>
<glyph name="F" format="2">
  <advance width="1116"/>
  <unicode hex="0046"/>
  <outline>
    <contour>
      <point x="377" y="-10" type="line"/>
      <point x="133" y="-10" type="line"/>
      <point x="133" y="1467" type="line"/>
      <point x="1054" y="1467" type="line"/>
      <point x="1054" y="1253" type="line"/>
      <point x="377" y="1253" type="line"/>
      <point x="377" y="811" type="line"/>
      <point x="997" y="811" type="line"/>
      <point x="997" y="600" type="line"/>
      <point x="377" y="600" type="line"/>
    </contour>
  </outline>
</glyph>
<glyph name="G" format="2">
  <advance width="1482"/>
  <unicode hex="0047"/>
  <outline>
    <contour>
      <point x="1396" y="606" type="line"/>
      <point x="1396" y="307"/>
      <point x="1060" y="-34"/>
      <point x="764" y="-34" type="qcurve"/>
      <point x="555" y="-34"/>
      <point x="249" y="154"/>
      <point x="81" y="500"/>
      <point x="81" y="736" type="qcurve"/>
      <point x="81" y="967"/>
      <point x="248" y="1307"/>
      <point x="553" y="1492"/>
      <point x="761" y="1492" type="qcurve"/>
      <point x="1004" y="1492"/>
      <point x="1344" y="1222"/>
      <point x="1387" y="989" type="qcurve"/>
      <point x="1138" y="989" type="line"/>
      <point x="1095" y="1128"/>
      <point x="901" y="1274"/>
      <point x="762" y="1274" type="qcurve"/>
      <point x="559" y="1274"/>
      <point x="330" y="992"/>
      <point x="330" y="738" type="qcurve"/>
      <point x="330" y="479"/>
      <point x="563" y="184"/>
      <point x="766" y="184" type="qcurve"/>
      <point x="939" y="184"/>
      <point x="1150" y="382"/>
      <point x="1155" y="547" type="qcurve"/>
      <point x="1155" y="562" type="line"/>
      <point x="782" y="562" type="line"/>
      <point x="782" y="765" type="line"/>
      <point x="1396" y="765" type="line"/>
    </contour>
  </outline>
</glyph>
<glyph name="H" format="2">
  <advance width="1474"/>
  <unicode hex="0048"/>
  <outline>
    <contour>
      <point x="1342" y="-10" type="line"/>
      <point x="1098" y="-10" type="line"/>
      <point x="1098" y="635" type="line"/>
      <point x="377" y="635" type="line"/>
      <point x="377" y="-10" type="line"/>
      <point x="133" y="-10" type="line"/>
      <point x="133" y="1467" type="line"/>
      <point x="377" y="1467" type="line"/>
      <point x="377" y="851" type="line"/>
      <point x="1098" y="851" type="line"/>
      <point x="1098" y="1467" type="line"/>
      <point x="1342" y="1467" type="line"/>
    </contour>
  </outline>
</glyph>
<glyph name="I" format="2">
  <advance width="510"/>
  <unicode hex="0049"/>
  <outline>
    <contour>
      <point x="377" y="-10" type="line"/>
      <point x="133" y="-10" type="line"/>
      <point x="133" y="1467" type="line"/>
      <point x="377" y="1467" type="line"/>
    </contour>
  </outline>
</glyph>
<glyph name="J" format="2">
  <advance width="1080"/>
  <unicode hex="004A"/>
  <outline>
    <contour>
      <point x="38" y="384" type="qcurve"/>
      <point x="278" y="384" type="line"/>
      <point x="281" y="288"/>
      <point x="392" y="180"/>
      <point x="483" y="180" type="qcurve"/>
      <point x="697" y="180"/>
      <point x="700" y="426" type="qcurve"/>
      <point x="700" y="1468" type="line"/>
      <point x="944" y="1468" type="line"/>
      <point x="944" y="425" type="line"/>
      <point x="944" y="205"/>
      <point x="699" y="-42"/>
      <point x="485" y="-42" type="qcurve"/>
      <point x="353" y="-42"/>
      <point x="152" y="64"/>
      <point x="38" y="256"/>
    </contour>
  </outline>
</glyph>
<glyph name="K" format="2">
  <advance width="1323"/>
  <unicode hex="004B"/>
  <outline>
    <contour>
      <point x="377" y="-10" type="line"/>
      <point x="133" y="-10" type="line"/>
      <point x="133" y="1467" type="line"/>
      <point x="377" y="1467" type="line"/>
      <point x="377" y="774" type="line"/>
      <point x="371" y="774" type="line"/>
      <point x="974" y="1467" type="line"/>
      <point x="1267" y="1467" type="line"/>
      <point x="686" y="812" type="line"/>
      <point x="1313" y="-10" type="line"/>
      <point x="1010" y="-10" type="line"/>
      <point x="514" y="641" type="line"/>
      <point x="377" y="482" type="line"/>
    </contour>
  </outline>
</glyph>
<glyph name="L" format="2">
  <advance width="1108"/>
  <unicode hex="004C"/>
  <outline>
    <contour>
      <point x="1049" y="206" type="line"/>
      <point x="1049" y="-10" type="line"/>
      <point x="133" y="-10" type="line"/>
      <point x="133" y="1467" type="line"/>
      <point x="377" y="1467" type="line"/>
      <point x="377" y="206" type="line"/>
    </contour>
  </outline>
</glyph>
<glyph name="M" format="2">
  <advance width="1746"/>
  <unicode hex="004D"/>
  <outline>
    <contour>
      <point x="1613" y="-10" type="line"/>
      <point x="1388" y="-10" type="line"/>
      <point x="1388" y="1063" type="line"/>
      <point x="1398" y="1063" type="line"/>
      <point x="963" y="1" type="line"/>
      <point x="783" y="1" type="line"/>
      <point x="347" y="1063" type="line"/>
      <point x="357" y="1063" type="line"/>
      <point x="357" y="-10" type="line"/>
      <point x="133" y="-10" type="line"/>
      <point x="133" y="1467" type="line"/>
      <point x="409" y="1467" type="line"/>
      <point x="876" y="317" type="line"/>
      <point x="870" y="317" type="line"/>
      <point x="1336" y="1467" type="line"/>
      <point x="1613" y="1467" type="line"/>
    </contour>
  </outline>
</glyph>
<glyph name="N" format="2">
  <advance width="1463"/>
  <unicode hex="004E"/>
  <outline>
    <contour>
      <point x="371" y="-10" type="line"/>
      <point x="133" y="-10" type="line"/>
      <point x="133" y="1467" type="line"/>
      <point x="351" y="1467" type="line"/>
      <point x="1099" y="393" type="line"/>
      <point x="1092" y="393" type="line"/>
      <point x="1092" y="1467" type="line"/>
      <point x="1330" y="1467" type="line"/>
      <point x="1330" y="-10" type="line"/>
      <point x="1113" y="-10" type="line"/>
      <point x="365" y="1064" type="line"/>
      <point x="371" y="1064" type="line"/>
    </contour>
  </outline>
</glyph>
<glyph name="O" format="2">
  <advance width="1533"/>
  <unicode hex="004F"/>
  <outline>
    <contour>
      <point x="767" y="1492" type="qcurve"/>
      <point x="977" y="1492"/>
      <point x="1285" y="1305"/>
      <point x="1453" y="962"/>
      <point x="1453" y="728" type="qcurve"/>
      <point x="1453" y="495"/>
      <point x="1285" y="152"/>
      <point x="977" y="-34"/>
      <point x="767" y="-34" type="qcurve"/>
      <point x="557" y="-34"/>
      <point x="249" y="152"/>
      <point x="81" y="495"/>
      <point x="81" y="728" type="qcurve"/>
      <point x="81" y="962"/>
      <point x="249" y="1305"/>
      <point x="557" y="1492"/>
    </contour>
    <contour>
      <point x="767" y="1273" type="qcurve"/>
      <point x="565" y="1273"/>
      <point x="330" y="981"/>
      <point x="330" y="728" type="qcurve"/>
      <point x="330" y="477"/>
      <point x="565" y="185"/>
      <point x="767" y="185" type="qcurve"/>
      <point x="969" y="185"/>
      <point x="1203" y="477"/>
      <point x="1203" y="728" type="qcurve"/>
      <point x="1203" y="981"/>
      <point x="969" y="1273"/>
    </contour>
  </outline>
</glyph>
<glyph name="P" format="2">
  <advance width="1232"/>
  <unicode hex="0050"/>
  <outline>
    <contour>
      <point x="133" y="1467" type="line"/>
      <point x="684" y="1467" type="line"/>
      <point x="826" y="1467"/>
      <point x="1045" y="1343"/>
      <point x="1169" y="1123"/>
      <point x="1169" y="979" type="qcurve"/>
      <point x="1169" y="834"/>
      <point x="1043" y="613"/>
      <point x="821" y="488"/>
      <point x="677" y="488" type="qcurve"/>
      <point x="377" y="488" type="line"/>
      <point x="377" y="-10" type="line"/>
      <point x="133" y="-10" type="line"/>
    </contour>
    <contour>
      <point x="377" y="1257" type="line"/>
      <point x="377" y="698" type="line"/>
      <point x="624" y="698" type="line"/>
      <point x="767" y="698"/>
      <point x="920" y="843"/>
      <point x="920" y="978" type="qcurve"/>
      <point x="920" y="1112"/>
      <point x="768" y="1257"/>
      <point x="625" y="1257" type="qcurve"/>
    </contour>
  </outline>
</glyph>
<glyph name="Q" format="2">
  <advance width="1533"/>
  <unicode hex="0051"/>
  <outline>
    <contour>
      <point x="767" y="-33" type="qcurve"/>
      <point x="557" y="-33"/>
      <point x="249" y="153"/>
      <point x="81" y="496"/>
      <point x="81" y="730" type="qcurve"/>
      <point x="81" y="963"/>
      <point x="249" y="1306"/>
      <point x="557" y="1493"/>
      <point x="767" y="1493" type="qcurve"/>
      <point x="977" y="1493"/>
      <point x="1285" y="1306"/>
      <point x="1453" y="963"/>
      <point x="1453" y="730" type="qcurve"/>
      <point x="1453" y="524"/>
      <point x="1323" y="207"/>
      <point x="1206" y="115" type="qcurve"/>
      <point x="1399" y="-163" type="line"/>
      <point x="1141" y="-163" type="line"/>
      <point x="1019" y="9" type="line"/>
      <point x="908" y="-33"/>
    </contour>
    <contour>
      <point x="767" y="185" type="qcurve"/>
      <point x="838" y="185"/>
      <point x="886" y="201" type="qcurve"/>
      <point x="711" y="451" type="line"/>
      <point x="962" y="451" type="line"/>
      <point x="1060" y="317" type="line"/>
      <point x="1127" y="379"/>
      <point x="1203" y="590"/>
      <point x="1203" y="730" type="qcurve"/>
      <point x="1203" y="982"/>
      <point x="969" y="1275"/>
      <point x="767" y="1275" type="qcurve"/>
      <point x="565" y="1275"/>
      <point x="330" y="982"/>
      <point x="330" y="730" type="qcurve"/>
      <point x="330" y="478"/>
      <point x="565" y="185"/>
    </contour>
  </outline>
</glyph>
<glyph name="R" format="2">
  <advance width="1284"/>
  <unicode hex="0052"/>
  <outline>
    <contour>
      <point x="377" y="1258" type="line"/>
      <point x="377" y="753" type="line"/>
      <point x="681" y="753" type="line"/>
      <point x="808" y="753"/>
      <point x="943" y="884"/>
      <point x="943" y="1006" type="qcurve"/>
      <point x="943" y="1125"/>
      <point x="802" y="1258"/>
      <point x="675" y="1258" type="qcurve"/>
    </contour>
    <contour>
      <point x="377" y="551" type="line"/>
      <point x="377" y="-10" type="line"/>
      <point x="133" y="-10" type="line"/>
      <point x="133" y="1467" type="line"/>
      <point x="702" y="1467" type="line"/>
      <point x="928" y="1467"/>
      <point x="1194" y="1219"/>
      <point x="1194" y="1012" type="qcurve"/>
      <point x="1194" y="862"/>
      <point x="1046" y="635"/>
      <point x="918" y="590" type="qcurve"/>
      <point x="1244" y="-10" type="line"/>
      <point x="963" y="-10" type="line"/>
      <point x="666" y="556" type="line"/>
      <point x="675" y="551" type="line"/>
    </contour>
  </outline>
</glyph>
<glyph name="S" format="2">
  <advance width="1265"/>
  <unicode hex="0053"/>
  <outline>
    <contour>
      <point x="69" y="416" type="qcurve"/>
      <point x="309" y="416" type="line"/>
      <point x="324" y="304"/>
      <point x="505" y="177"/>
      <point x="646" y="177" type="qcurve"/>
      <point x="780" y="177"/>
      <point x="949" y="298"/>
      <point x="949" y="392" type="qcurve"/>
      <point x="949" y="474"/>
      <point x="828" y="576"/>
      <point x="690" y="610" type="qcurve"/>
      <point x="503" y="655" type="line"/>
      <point x="108" y="747"/>
      <point x="108" y="1058" type="qcurve"/>
      <point x="108" y="1186"/>
      <point x="245" y="1382"/>
      <point x="487" y="1492"/>
      <point x="643" y="1492" type="qcurve"/>
      <point x="874" y="1492"/>
      <point x="1165" y="1250"/>
      <point x="1174" y="1048" type="qcurve"/>
      <point x="936" y="1048" type="line"/>
      <point x="925" y="1161"/>
      <point x="768" y="1281"/>
      <point x="640" y="1281" type="qcurve"/>
      <point x="512" y="1281"/>
      <point x="357" y="1166"/>
      <point x="357" y="1073" type="qcurve"/>
      <point x="357" y="999"/>
      <point x="474" y="906"/>
      <point x="611" y="872" type="qcurve"/>
      <point x="770" y="833" type="line"/>
      <point x="993" y="781"/>
      <point x="1197" y="582"/>
      <point x="1197" y="419" type="qcurve"/>
      <point x="1197" y="211"/>
      <point x="889" y="-34"/>
      <point x="630" y="-34" type="qcurve"/>
      <point x="387" y="-34"/>
      <point x="83" y="205"/>
    </contour>
  </outline>
</glyph>
<glyph name="T" format="2">
  <advance width="1225"/>
  <unicode hex="0054"/>
  <outline>
    <contour>
      <point x="735" y="-10" type="line"/>
      <point x="491" y="-10" type="line"/>
      <point x="491" y="1253" type="line"/>
      <point x="49" y="1253" type="line"/>
      <point x="49" y="1467" type="line"/>
      <point x="1176" y="1467" type="line"/>
      <point x="1176" y="1253" type="line"/>
      <point x="735" y="1253" type="line"/>
    </contour>
  </outline>
</glyph>
<glyph name="U" format="2">
  <advance width="1454"/>
  <unicode hex="0055"/>
  <outline>
    <contour>
      <point x="377" y="1468" type="line"/>
      <point x="377" y="532" type="line"/>
      <point x="377" y="429"/>
      <point x="458" y="274"/>
      <point x="614" y="187"/>
      <point x="727" y="187" type="qcurve"/>
      <point x="840" y="187"/>
      <point x="996" y="274"/>
      <point x="1078" y="429"/>
      <point x="1078" y="532" type="qcurve"/>
      <point x="1078" y="1468" type="line"/>
      <point x="1321" y="1468" type="line"/>
      <point x="1321" y="512" type="line"/>
      <point x="1321" y="353"/>
      <point x="1177" y="107"/>
      <point x="910" y="-34"/>
      <point x="727" y="-34" type="qcurve"/>
      <point x="544" y="-34"/>
      <point x="277" y="107"/>
      <point x="133" y="353"/>
      <point x="133" y="512" type="qcurve"/>
      <point x="133" y="1468" type="line"/>
    </contour>
  </outline>
</glyph>
<glyph name="V" format="2">
  <advance width="1355"/>
  <unicode hex="0056"/>
  <outline>
    <contour>
      <point x="807" y="-10" type="line"/>
      <point x="548" y="-10" type="line"/>
      <point x="26" y="1467" type="line"/>
      <point x="290" y="1467" type="line"/>
      <point x="683" y="265" type="line"/>
      <point x="675" y="265" type="line"/>
      <point x="1069" y="1467" type="line"/>
      <point x="1329" y="1467" type="line"/>
    </contour>
  </outline>
</glyph>
<glyph name="W" format="2">
  <advance width="1949"/>
  <unicode hex="0057"/>
  <outline>
    <contour>
      <point x="977" y="1089" type="line"/>
      <point x="666" y="-10" type="line"/>
      <point x="438" y="-10" type="line"/>
      <point x="44" y="1467" type="line"/>
      <point x="298" y="1467" type="line"/>
      <point x="565" y="326" type="line"/>
      <point x="557" y="326" type="line"/>
      <point x="862" y="1467" type="line"/>
      <point x="1086" y="1467" type="line"/>
      <point x="1392" y="326" type="line"/>
      <point x="1384" y="326" type="line"/>
      <point x="1651" y="1467" type="line"/>
      <point x="1905" y="1467" type="line"/>
      <point x="1510" y="-10" type="line"/>
      <point x="1283" y="-10" type="line"/>
      <point x="971" y="1089" type="line"/>
    </contour>
  </outline>
</glyph>
<glyph name="X" format="2">
  <advance width="1374"/>
  <unicode hex="0058"/>
  <outline>
    <contour>
      <point x="44" y="-10" type="line"/>
      <point x="532" y="733" type="line"/>
      <point x="532" y="734" type="line"/>
      <point x="49" y="1467" type="line"/>
      <point x="340" y="1467" type="line"/>
      <point x="696" y="904" type="line"/>
      <point x="693" y="904" type="line"/>
      <point x="1053" y="1467" type="line"/>
      <point x="1330" y="1467" type="line"/>
      <point x="833" y="726" type="line"/>
      <point x="833" y="726" type="line"/>
      <point x="1321" y="-10" type="line"/>
      <point x="1035" y="-10" type="line"/>
      <point x="676" y="546" type="line"/>
      <point x="680" y="546" type="line"/>
      <point x="316" y="-10" type="line"/>
    </contour>
  </outline>
</glyph>
<glyph name="Y" format="2">
  <advance width="1328"/>
  <unicode hex="0059"/>
  <outline>
    <contour>
      <point x="786" y="-10" type="line"/>
      <point x="542" y="-10" type="line"/>
      <point x="542" y="594" type="line"/>
      <point x="26" y="1467" type="line"/>
      <point x="299" y="1467" type="line"/>
      <point x="667" y="824" type="line"/>
      <point x="663" y="824" type="line"/>
      <point x="1031" y="1467" type="line"/>
      <point x="1302" y="1467" type="line"/>
      <point x="786" y="594" type="line"/>
    </contour>
  </outline>
</glyph>
<glyph name="Z" format="2">
  <advance width="1293"/>
  <unicode hex="005A"/>
  <outline>
    <contour>
      <point x="95" y="-10" type="line"/>
      <point x="95" y="158" type="line"/>
      <point x="885" y="1258" type="line"/>
      <point x="885" y="1253" type="line"/>
      <point x="119" y="1253" type="line"/>
      <point x="119" y="1467" type="line"/>
      <point x="1180" y="1467" type="line"/>
      <point x="1180" y="1300" type="line"/>
      <point x="393" y="200" type="line"/>
      <point x="393" y="206" type="line"/>
      <point x="1199" y="206" type="line"/>
      <point x="1199" y="-10" type="line"/>
    </contour>
  </outline>
</glyph>
<glyph name="bracketleft" format="2">
  <advance width="704"/>
  <unicode hex="005B"/>
  <outline>
    <contour>
      <point x="205" y="1443" type="line"/>
      <point x="682" y="1443" type="line"/>
      <point x="682" y="1279" type="line"/>
      <point x="413" y="1279" type="line"/>
      <point x="413" y="-144" type="line"/>
      <point x="682" y="-144" type="line"/>
      <point x="682" y="-308" type="line"/>
      <point x="205" y="-308" type="line"/>
    </contour>
  </outline>
</glyph>
<glyph name="backslash" format="2">
  <advance width="799"/>
  <unicode hex="005C"/>
  <outline>
    <contour>
      <point x="836" y="-60" type="line"/>
      <point x="601" y="-60" type="line"/>
      <point x="-37" y="1552" type="line"/>
      <point x="199" y="1552" type="line"/>
    </contour>
  </outline>
</glyph>
<glyph name="bracketright" format="2">
  <advance width="704"/>
  <unicode hex="005D"/>
  <outline>
    <contour>
      <point x="499" y="1443" type="line"/>
      <point x="499" y="-308" type="line"/>
      <point x="22" y="-308" type="line"/>
      <point x="22" y="-144" type="line"/>
      <point x="291" y="-144" type="line"/>
      <point x="291" y="1279" type="line"/>
      <point x="22" y="1279" type="line"/>
      <point x="22" y="1443" type="line"/>
    </contour>
  </outline>
</glyph>
<glyph name="asciicircum" format="2">
  <advance width="1359"/>
  <unicode hex="005E"/>
  <outline>
    <contour>
      <point x="589" y="1482" type="line"/>
      <point x="769" y="1482" type="line"/>
      <point x="1256" y="516" type="line"/>
      <point x="1023" y="516" type="line"/>
      <point x="677" y="1203" type="line"/>
      <point x="337" y="516" type="line"/>
      <point x="102" y="516" type="line"/>
    </contour>
  </outline>
</glyph>
<glyph name="underscore" format="2">
  <advance width="1104"/>
  <unicode hex="005F"/>
  <outline>
    <contour>
      <point x="0" y="-99" type="line"/>
      <point x="1104" y="-99" type="line"/>
      <point x="1104" y="-281" type="line"/>
      <point x="0" y="-281" type="line"/>
    </contour>
  </outline>
</glyph>
<glyph name="grave" format="2">
  <advance width="617"/>
  <unicode hex="0060"/>
  <outline>
    <contour>
      <point x="-47" y="1552" type="line"/>
      <point x="290" y="1552" type="line"/>
      <point x="514" y="1179" type="line"/>
      <point x="295" y="1179" type="line"/>
    </contour>
  </outline>
</glyph>
<glyph name="a" format="2">
  <advance width="1081"/>
  <unicode hex="0061"/>
  <outline>
    <contour>
      <point x="485" y="165" type="qcurve"/>
      <point x="595" y="165"/>
      <point x="744" y="298"/>
      <point x="744" y="398" type="qcurve"/>
      <point x="744" y="471" type="line"/>
      <point x="496" y="456" type="line"/>
      <point x="401" y="449"/>
      <point x="303" y="373"/>
      <point x="303" y="308" type="qcurve"/>
      <point x="303" y="242"/>
      <point x="401" y="165"/>
    </contour>
    <contour>
      <point x="425" y="-28" type="qcurve"/>
      <point x="268" y="-28"/>
      <point x="65" y="156"/>
      <point x="65" y="302" type="qcurve"/>
      <point x="65" y="445"/>
      <point x="274" y="614"/>
      <point x="465" y="626" type="qcurve"/>
      <point x="744" y="643" type="line"/>
      <point x="744" y="715" type="line"/>
      <point x="744" y="801"/>
      <point x="639" y="894"/>
      <point x="543" y="894" type="qcurve"/>
      <point x="452" y="894"/>
      <point x="344" y="813"/>
      <point x="329" y="739" type="qcurve"/>
      <point x="106" y="739" type="line"/>
      <point x="113" y="843"/>
      <point x="224" y="1001"/>
      <point x="419" y="1092"/>
      <point x="551" y="1092" type="qcurve"/>
      <point x="745" y="1092"/>
      <point x="979" y="896"/>
      <point x="979" y="732" type="qcurve"/>
      <point x="979" y="-10" type="line"/>
      <point x="752" y="-10" type="line"/>
      <point x="752" y="165" type="line"/>
      <point x="763" y="165" type="line"/>
      <point x="716" y="77"/>
      <point x="530" y="-28"/>
    </contour>
  </outline>
</glyph>
<glyph name="b" format="2">
  <advance width="1187"/>
  <unicode hex="0062"/>
  <outline>
    <contour>
      <point x="677" y="-28" type="qcurve"/>
      <point x="559" y="-28"/>
      <point x="381" y="80"/>
      <point x="333" y="171" type="qcurve"/>
      <point x="345" y="171" type="line"/>
      <point x="345" y="-10" type="line"/>
      <point x="115" y="-10" type="line"/>
      <point x="115" y="1468" type="line"/>
      <point x="351" y="1468" type="line"/>
      <point x="351" y="892" type="line"/>
      <point x="340" y="892" type="line"/>
      <point x="387" y="983"/>
      <point x="564" y="1090"/>
      <point x="678" y="1090" type="qcurve"/>
      <point x="880" y="1090"/>
      <point x="1126" y="786"/>
      <point x="1126" y="531" type="qcurve"/>
      <point x="1126" y="276"/>
      <point x="881" y="-28"/>
    </contour>
    <contour>
      <point x="619" y="886" type="qcurve"/>
      <point x="500" y="886"/>
      <point x="350" y="693"/>
      <point x="350" y="531" type="qcurve"/>
      <point x="350" y="368"/>
      <point x="500" y="177"/>
      <point x="619" y="177" type="qcurve"/>
      <point x="743" y="177"/>
      <point x="884" y="365"/>
      <point x="884" y="531" type="qcurve"/>
      <point x="884" y="696"/>
      <point x="743" y="886"/>
    </contour>
  </outline>
</glyph>
<glyph name="c" format="2">
  <advance width="1079"/>
  <unicode hex="0063"/>
  <outline>
    <contour>
      <point x="1031" y="687" type="qcurve"/>
      <point x="806" y="687" type="line"/>
      <point x="789" y="777"/>
      <point x="669" y="890"/>
      <point x="567" y="890" type="qcurve"/>
      <point x="445" y="890"/>
      <point x="300" y="700"/>
      <point x="300" y="531" type="qcurve"/>
      <point x="300" y="359"/>
      <point x="447" y="173"/>
      <point x="569" y="173" type="qcurve"/>
      <point x="763" y="173"/>
      <point x="806" y="370" type="qcurve"/>
      <point x="1033" y="370" type="line"/>
      <point x="1012" y="186"/>
      <point x="760" y="-30"/>
      <point x="567" y="-30" type="qcurve"/>
      <point x="414" y="-30"/>
      <point x="186" y="106"/>
      <point x="60" y="358"/>
      <point x="60" y="531" type="qcurve"/>
      <point x="60" y="787"/>
      <point x="337" y="1092"/>
      <point x="565" y="1092" type="qcurve"/>
      <point x="703" y="1092"/>
      <point x="904" y="983"/>
      <point x="1020" y="800"/>
    </contour>
  </outline>
</glyph>
<glyph name="d" format="2">
  <advance width="1185"/>
  <unicode hex="0064"/>
  <outline>
    <contour>
      <point x="512" y="-28" type="qcurve"/>
      <point x="309" y="-28"/>
      <point x="60" y="277"/>
      <point x="60" y="531" type="qcurve"/>
      <point x="60" y="786"/>
      <point x="308" y="1090"/>
      <point x="510" y="1090" type="qcurve"/>
      <point x="625" y="1090"/>
      <point x="802" y="983"/>
      <point x="846" y="896" type="qcurve"/>
      <point x="834" y="896" type="line"/>
      <point x="834" y="1468" type="line"/>
      <point x="1071" y="1468" type="line"/>
      <point x="1071" y="-10" type="line"/>
      <point x="841" y="-10" type="line"/>
      <point x="841" y="171" type="line"/>
      <point x="853" y="171" type="line"/>
      <point x="807" y="81"/>
      <point x="629" y="-28"/>
    </contour>
    <contour>
      <point x="569" y="886" type="qcurve"/>
      <point x="444" y="886"/>
      <point x="301" y="696"/>
      <point x="301" y="531" type="qcurve"/>
      <point x="301" y="366"/>
      <point x="444" y="177"/>
      <point x="569" y="177" type="qcurve"/>
      <point x="690" y="177"/>
      <point x="836" y="367"/>
      <point x="836" y="531" type="qcurve"/>
      <point x="836" y="694"/>
      <point x="690" y="886"/>
    </contour>
  </outline>
</glyph>
<glyph name="e" format="2">
  <advance width="1101"/>
  <unicode hex="0065"/>
  <outline>
    <contour>
      <point x="557" y="896" type="qcurve"/>
      <point x="447" y="896"/>
      <point x="309" y="752"/>
      <point x="300" y="639" type="qcurve"/>
      <point x="805" y="639" type="line"/>
      <point x="800" y="753"/>
      <point x="667" y="896"/>
    </contour>
    <contour>
      <point x="807" y="322" type="qcurve"/>
      <point x="1031" y="322" type="line"/>
      <point x="1003" y="163"/>
      <point x="749" y="-30"/>
      <point x="566" y="-30" type="qcurve"/>
      <point x="331" y="-30"/>
      <point x="60" y="272"/>
      <point x="60" y="526" type="qcurve"/>
      <point x="60" y="695"/>
      <point x="183" y="950"/>
      <point x="406" y="1092"/>
      <point x="557" y="1092" type="qcurve"/>
      <point x="705" y="1092"/>
      <point x="923" y="958"/>
      <point x="1041" y="715"/>
      <point x="1041" y="552" type="qcurve"/>
      <point x="1041" y="467" type="line"/>
      <point x="298" y="467" type="line"/>
      <point x="298" y="464" type="line"/>
      <point x="298" y="328"/>
      <point x="445" y="167"/>
      <point x="571" y="167" type="qcurve"/>
      <point x="751" y="167"/>
    </contour>
  </outline>
</glyph>
<glyph name="f" format="2">
  <advance width="680"/>
  <unicode hex="0066"/>
  <outline>
    <contour>
      <point x="170" y="-10" type="line"/>
      <point x="170" y="880" type="line"/>
      <point x="25" y="880" type="line"/>
      <point x="25" y="1071" type="line"/>
      <point x="170" y="1071" type="line"/>
      <point x="170" y="1165" type="line"/>
      <point x="170" y="1480"/>
      <point x="490" y="1478" type="qcurve"/>
      <point x="557" y="1478"/>
      <point x="621" y="1466" type="qcurve"/>
      <point x="621" y="1284" type="line"/>
      <point x="575" y="1292"/>
      <point x="532" y="1292" type="qcurve"/>
      <point x="465" y="1292"/>
      <point x="404" y="1228"/>
      <point x="404" y="1160" type="qcurve"/>
      <point x="404" y="1071" type="line"/>
      <point x="617" y="1071" type="line"/>
      <point x="617" y="880" type="line"/>
      <point x="407" y="880" type="line"/>
      <point x="407" y="-10" type="line"/>
    </contour>
  </outline>
</glyph>
<glyph name="g" format="2">
  <advance width="1177"/>
  <unicode hex="0067"/>
  <outline>
    <contour>
      <point x="565" y="191" type="qcurve"/>
      <point x="688" y="191"/>
      <point x="835" y="377"/>
      <point x="835" y="538" type="qcurve"/>
      <point x="835" y="699"/>
      <point x="688" y="890"/>
      <point x="565" y="890" type="qcurve"/>
      <point x="444" y="890"/>
      <point x="301" y="702"/>
      <point x="301" y="538" type="qcurve"/>
      <point x="301" y="374"/>
      <point x="444" y="191"/>
    </contour>
    <contour>
      <point x="567" y="-406" type="qcurve"/>
      <point x="379" y="-406"/>
      <point x="122" y="-221"/>
      <point x="96" y="-69" type="qcurve"/>
      <point x="332" y="-69" type="line"/>
      <point x="357" y="-139"/>
      <point x="485" y="-216"/>
      <point x="575" y="-216" type="qcurve"/>
      <point x="699" y="-216"/>
      <point x="834" y="-90"/>
      <point x="834" y="16" type="qcurve"/>
      <point x="834" y="181" type="line"/>
      <point x="846" y="181" type="line"/>
      <point x="802" y="95"/>
      <point x="622" y="-10"/>
      <point x="507" y="-10" type="qcurve"/>
      <point x="305" y="-10"/>
      <point x="60" y="288"/>
      <point x="60" y="539" type="qcurve"/>
      <point x="60" y="793"/>
      <point x="306" y="1094"/>
      <point x="512" y="1094" type="qcurve"/>
      <point x="626" y="1094"/>
      <point x="805" y="986"/>
      <point x="853" y="895" type="qcurve"/>
      <point x="841" y="895" type="line"/>
      <point x="841" y="1076" type="line"/>
      <point x="1071" y="1076" type="line"/>
      <point x="1071" y="23" type="line"/>
      <point x="1071" y="-170"/>
      <point x="795" y="-406"/>
    </contour>
  </outline>
</glyph>
<glyph name="h" format="2">
  <advance width="1157"/>
  <unicode hex="0068"/>
  <outline>
    <contour>
      <point x="115" y="-10" type="line"/>
      <point x="115" y="1467" type="line"/>
      <point x="349" y="1467" type="line"/>
      <point x="349" y="895" type="line"/>
      <point x="338" y="895" type="line"/>
      <point x="381" y="987"/>
      <point x="555" y="1091"/>
      <point x="677" y="1091" type="qcurve"/>
      <point x="854" y="1091"/>
      <point x="1056" y="868"/>
      <point x="1056" y="685" type="qcurve"/>
      <point x="1056" y="-10" type="line"/>
      <point x="819" y="-10" type="line"/>
      <point x="819" y="642" type="line"/>
      <point x="819" y="757"/>
      <point x="709" y="883"/>
      <point x="599" y="883" type="qcurve"/>
      <point x="482" y="883"/>
      <point x="351" y="737"/>
      <point x="351" y="614" type="qcurve"/>
      <point x="351" y="-10" type="line"/>
    </contour>
  </outline>
</glyph>
<glyph name="i" format="2">
  <advance width="464"/>
  <unicode hex="0069"/>
  <outline>
    <contour>
      <point x="114" y="-10" type="line"/>
      <point x="114" y="1073" type="line"/>
      <point x="350" y="1073" type="line"/>
      <point x="350" y="-10" type="line"/>
    </contour>
    <contour>
      <point x="232" y="1208" type="qcurve"/>
      <point x="177" y="1208"/>
      <point x="97" y="1288"/>
      <point x="97" y="1342" type="qcurve"/>
      <point x="97" y="1398"/>
      <point x="177" y="1478"/>
      <point x="232" y="1478" type="qcurve"/>
      <point x="288" y="1478"/>
      <point x="368" y="1398"/>
      <point x="368" y="1342" type="qcurve"/>
      <point x="368" y="1288"/>
      <point x="288" y="1208"/>
    </contour>
  </outline>
</glyph>
<glyph name="j" format="2">
  <advance width="464"/>
  <unicode hex="006A"/>
  <outline>
    <contour>
      <point x="350" y="1076" type="line"/>
      <point x="350" y="-47" type="line"/>
      <point x="350" y="-378"/>
      <point x="-4" y="-376" type="qcurve"/>
      <point x="-11" y="-376"/>
      <point x="-52" y="-375"/>
      <point x="-64" y="-371" type="qcurve"/>
      <point x="-64" y="-182" type="line"/>
      <point x="-43" y="-182"/>
      <point x="-23" y="-183" type="qcurve"/>
      <point x="54" y="-183"/>
      <point x="114" y="-123"/>
      <point x="114" y="-46" type="qcurve"/>
      <point x="114" y="1076" type="line"/>
    </contour>
    <contour>
      <point x="232" y="1212" type="qcurve"/>
      <point x="177" y="1212"/>
      <point x="97" y="1291"/>
      <point x="97" y="1346" type="qcurve"/>
      <point x="97" y="1401"/>
      <point x="177" y="1481"/>
      <point x="232" y="1481" type="qcurve"/>
      <point x="288" y="1481"/>
      <point x="368" y="1401"/>
      <point x="368" y="1346" type="qcurve"/>
      <point x="368" y="1291"/>
      <point x="288" y="1212"/>
    </contour>
  </outline>
</glyph>
<glyph name="k" format="2">
  <advance width="1063"/>
  <unicode hex="006B"/>
  <outline>
    <contour>
      <point x="339" y="617" type="line"/>
      <point x="764" y="1073" type="line"/>
      <point x="1045" y="1073" type="line"/>
      <point x="599" y="604" type="line"/>
      <point x="1059" y="-10" type="line"/>
      <point x="783" y="-10" type="line"/>
      <point x="430" y="456" type="line"/>
      <point x="351" y="378" type="line"/>
      <point x="351" y="-10" type="line"/>
      <point x="115" y="-10" type="line"/>
      <point x="115" y="1467" type="line"/>
      <point x="351" y="1467" type="line"/>
      <point x="351" y="617" type="line"/>
    </contour>
  </outline>
</glyph>
<glyph name="l" format="2">
  <advance width="466"/>
  <unicode hex="006C"/>
  <outline>
    <contour>
      <point x="115" y="-10" type="line"/>
      <point x="115" y="1467" type="line"/>
      <point x="351" y="1467" type="line"/>
      <point x="351" y="-10" type="line"/>
    </contour>
  </outline>
</glyph>
<glyph name="m" format="2">
  <advance width="1709"/>
  <unicode hex="006D"/>
  <outline>
    <contour>
      <point x="107" y="-10" type="line"/>
      <point x="107" y="1073" type="line"/>
      <point x="333" y="1073" type="line"/>
      <point x="333" y="894" type="line"/>
      <point x="321" y="894" type="line"/>
      <point x="357" y="981"/>
      <point x="518" y="1091"/>
      <point x="627" y="1091" type="qcurve"/>
      <point x="739" y="1091"/>
      <point x="897" y="980"/>
      <point x="928" y="883" type="qcurve"/>
      <point x="919" y="883" type="line"/>
      <point x="960" y="978"/>
      <point x="1139" y="1091"/>
      <point x="1254" y="1091" type="qcurve"/>
      <point x="1413" y="1091"/>
      <point x="1608" y="892"/>
      <point x="1608" y="730" type="qcurve"/>
      <point x="1608" y="-10" type="line"/>
      <point x="1371" y="-10" type="line"/>
      <point x="1371" y="678" type="line"/>
      <point x="1371" y="778"/>
      <point x="1273" y="884"/>
      <point x="1180" y="884" type="qcurve"/>
      <point x="1087" y="884"/>
      <point x="973" y="761"/>
      <point x="973" y="664" type="qcurve"/>
      <point x="973" y="-10" type="line"/>
      <point x="741" y="-10" type="line"/>
      <point x="741" y="694" type="line"/>
      <point x="741" y="782"/>
      <point x="640" y="884"/>
      <point x="552" y="884" type="qcurve"/>
      <point x="459" y="884"/>
      <point x="343" y="756"/>
      <point x="343" y="657" type="qcurve"/>
      <point x="343" y="-10" type="line"/>
    </contour>
  </outline>
</glyph>
<glyph name="n" format="2">
  <advance width="1135"/>
  <unicode hex="006E"/>
  <outline>
    <contour>
      <point x="107" y="-10" type="line"/>
      <point x="107" y="1073" type="line"/>
      <point x="333" y="1073" type="line"/>
      <point x="333" y="895" type="line"/>
      <point x="322" y="895" type="line"/>
      <point x="364" y="984"/>
      <point x="535" y="1091"/>
      <point x="659" y="1091" type="qcurve"/>
      <point x="836" y="1091"/>
      <point x="1034" y="873"/>
      <point x="1034" y="688" type="qcurve"/>
      <point x="1034" y="-10" type="line"/>
      <point x="797" y="-10" type="line"/>
      <point x="797" y="645" type="line"/>
      <point x="797" y="762"/>
      <point x="692" y="883"/>
      <point x="583" y="883" type="qcurve"/>
      <point x="472" y="883"/>
      <point x="343" y="740"/>
      <point x="343" y="619" type="qcurve"/>
      <point x="343" y="-10" type="line"/>
    </contour>
  </outline>
</glyph>
<glyph name="o" format="2">
  <advance width="1138"/>
  <unicode hex="006F"/>
  <outline>
    <contour>
      <point x="569" y="-30" type="qcurve"/>
      <point x="416" y="-30"/>
      <point x="187" y="106"/>
      <point x="60" y="358"/>
      <point x="60" y="531" type="qcurve"/>
      <point x="60" y="704"/>
      <point x="188" y="956"/>
      <point x="417" y="1092"/>
      <point x="569" y="1092" type="qcurve"/>
      <point x="721" y="1092"/>
      <point x="950" y="956"/>
      <point x="1078" y="704"/>
      <point x="1078" y="531" type="qcurve"/>
      <point x="1078" y="358"/>
      <point x="951" y="106"/>
      <point x="722" y="-30"/>
    </contour>
    <contour>
      <point x="569" y="170" type="qcurve"/>
      <point x="693" y="170"/>
      <point x="838" y="357"/>
      <point x="838" y="531" type="qcurve"/>
      <point x="838" y="705"/>
      <point x="692" y="892"/>
      <point x="569" y="892" type="qcurve"/>
      <point x="446" y="892"/>
      <point x="300" y="705"/>
      <point x="300" y="531" type="qcurve"/>
      <point x="300" y="357"/>
      <point x="446" y="170"/>
    </contour>
  </outline>
</glyph>
<glyph name="p" format="2">
  <advance width="1177"/>
  <unicode hex="0070"/>
  <outline>
    <contour>
      <point x="665" y="1093" type="qcurve"/>
      <point x="869" y="1093"/>
      <point x="1118" y="790"/>
      <point x="1118" y="535" type="qcurve"/>
      <point x="1118" y="280"/>
      <point x="871" y="-25"/>
      <point x="669" y="-25" type="qcurve"/>
      <point x="554" y="-25"/>
      <point x="377" y="81"/>
      <point x="332" y="168" type="qcurve"/>
      <point x="343" y="168" type="line"/>
      <point x="343" y="-358" type="line"/>
      <point x="107" y="-358" type="line"/>
      <point x="107" y="1076" type="line"/>
      <point x="336" y="1076" type="line"/>
      <point x="336" y="893" type="line"/>
      <point x="324" y="893" type="line"/>
      <point x="370" y="984"/>
      <point x="549" y="1093"/>
    </contour>
    <contour>
      <point x="608" y="180" type="qcurve"/>
      <point x="733" y="180"/>
      <point x="876" y="370"/>
      <point x="876" y="535" type="qcurve"/>
      <point x="876" y="699"/>
      <point x="733" y="889"/>
      <point x="608" y="889" type="qcurve"/>
      <point x="488" y="889"/>
      <point x="342" y="697"/>
      <point x="342" y="535" type="qcurve"/>
      <point x="342" y="371"/>
      <point x="487" y="180"/>
    </contour>
  </outline>
</glyph>
<glyph name="q" format="2">
  <advance width="1177"/>
  <unicode hex="0071"/>
  <outline>
    <contour>
      <point x="512" y="1093" type="qcurve"/>
      <point x="628" y="1093"/>
      <point x="806" y="984"/>
      <point x="852" y="893" type="qcurve"/>
      <point x="841" y="893" type="line"/>
      <point x="841" y="1076" type="line"/>
      <point x="1071" y="1076" type="line"/>
      <point x="1071" y="-358" type="line"/>
      <point x="834" y="-358" type="line"/>
      <point x="834" y="172" type="line"/>
      <point x="846" y="172" type="line"/>
      <point x="801" y="84"/>
      <point x="622" y="-25"/>
      <point x="507" y="-25" type="qcurve"/>
      <point x="305" y="-25"/>
      <point x="60" y="281"/>
      <point x="60" y="535" type="qcurve"/>
      <point x="60" y="789"/>
      <point x="307" y="1093"/>
    </contour>
    <contour>
      <point x="565" y="180" type="qcurve"/>
      <point x="686" y="180"/>
      <point x="835" y="371"/>
      <point x="835" y="535" type="qcurve"/>
      <point x="835" y="697"/>
      <point x="686" y="889"/>
      <point x="565" y="889" type="qcurve"/>
      <point x="442" y="889"/>
      <point x="301" y="701"/>
      <point x="301" y="535" type="qcurve"/>
      <point x="301" y="368"/>
      <point x="442" y="180"/>
    </contour>
  </outline>
</glyph>
<glyph name="r" format="2">
  <advance width="692"/>
  <unicode hex="0072"/>
  <outline>
    <contour>
      <point x="107" y="-10" type="line"/>
      <point x="107" y="1073" type="line"/>
      <point x="333" y="1073" type="line"/>
      <point x="333" y="892" type="line"/>
      <point x="320" y="892" type="line"/>
      <point x="347" y="983"/>
      <point x="485" y="1090"/>
      <point x="581" y="1090" type="qcurve"/>
      <point x="629" y="1090"/>
      <point x="665" y="1080" type="qcurve"/>
      <point x="665" y="854" type="line"/>
      <point x="620" y="871"/>
      <point x="558" y="871" type="qcurve"/>
      <point x="457" y="871"/>
      <point x="343" y="746"/>
      <point x="343" y="636" type="qcurve"/>
      <point x="343" y="-10" type="line"/>
    </contour>
  </outline>
</glyph>
<glyph name="s" format="2">
  <advance width="1011"/>
  <unicode hex="0073"/>
  <outline>
    <contour>
      <point x="89" y="762" type="qcurve"/>
      <point x="89" y="908"/>
      <point x="324" y="1092"/>
      <point x="511" y="1092" type="qcurve"/>
      <point x="689" y="1092"/>
      <point x="918" y="906"/>
      <point x="926" y="751" type="qcurve"/>
      <point x="704" y="751" type="line"/>
      <point x="696" y="827"/>
      <point x="593" y="906"/>
      <point x="505" y="906" type="qcurve"/>
      <point x="420" y="906"/>
      <point x="320" y="834"/>
      <point x="320" y="775" type="qcurve"/>
      <point x="320" y="683"/>
      <point x="473" y="647" type="qcurve"/>
      <point x="650" y="606" type="line"/>
      <point x="810" y="568"/>
      <point x="950" y="428"/>
      <point x="950" y="307" type="qcurve"/>
      <point x="950" y="158"/>
      <point x="699" y="-30"/>
      <point x="503" y="-30" type="qcurve"/>
      <point x="314" y="-30"/>
      <point x="77" y="156"/>
      <point x="61" y="315" type="qcurve"/>
      <point x="294" y="315" type="line"/>
      <point x="320" y="157"/>
      <point x="513" y="157" type="qcurve"/>
      <point x="608" y="157"/>
      <point x="713" y="227"/>
      <point x="713" y="287" type="qcurve"/>
      <point x="713" y="335"/>
      <point x="650" y="391"/>
      <point x="570" y="411" type="qcurve"/>
      <point x="383" y="457" type="line"/>
      <point x="89" y="533"/>
    </contour>
  </outline>
</glyph>
<glyph name="t" format="2">
  <advance width="677"/>
  <unicode hex="0074"/>
  <outline>
    <contour>
      <point x="170" y="1324" type="line"/>
      <point x="407" y="1324" type="line"/>
      <point x="407" y="1073" type="line"/>
      <point x="607" y="1073" type="line"/>
      <point x="607" y="880" type="line"/>
      <point x="407" y="880" type="line"/>
      <point x="407" y="304" type="line"/>
      <point x="407" y="238"/>
      <point x="462" y="181"/>
      <point x="525" y="181" type="qcurve"/>
      <point x="558" y="181"/>
      <point x="606" y="188" type="qcurve"/>
      <point x="606" y="-5" type="line"/>
      <point x="549" y="-17"/>
      <point x="476" y="-17" type="qcurve"/>
      <point x="313" y="-17"/>
      <point x="170" y="123"/>
      <point x="170" y="280" type="qcurve"/>
      <point x="170" y="880" type="line"/>
      <point x="17" y="880" type="line"/>
      <point x="17" y="1073" type="line"/>
      <point x="170" y="1073" type="line"/>
    </contour>
  </outline>
</glyph>
<glyph name="u" format="2">
  <advance width="1135"/>
  <unicode hex="0075"/>
  <outline>
    <contour>
      <point x="1029" y="1073" type="line"/>
      <point x="1029" y="-10" type="line"/>
      <point x="802" y="-10" type="line"/>
      <point x="802" y="170" type="line"/>
      <point x="813" y="170" type="line"/>
      <point x="771" y="76"/>
      <point x="604" y="-29"/>
      <point x="481" y="-29" type="qcurve"/>
      <point x="306" y="-29"/>
      <point x="102" y="189"/>
      <point x="102" y="375" type="qcurve"/>
      <point x="102" y="1073" type="line"/>
      <point x="338" y="1073" type="line"/>
      <point x="338" y="417" type="line"/>
      <point x="338" y="181"/>
      <point x="553" y="179" type="qcurve"/>
      <point x="667" y="179"/>
      <point x="793" y="322"/>
      <point x="793" y="444" type="qcurve"/>
      <point x="793" y="1073" type="line"/>
    </contour>
  </outline>
</glyph>
<glyph name="v" format="2">
  <advance width="1050"/>
  <unicode hex="0076"/>
  <outline>
    <contour>
      <point x="1033" y="1073" type="line"/>
      <point x="649" y="-10" type="line"/>
      <point x="403" y="-10" type="line"/>
      <point x="17" y="1073" type="line"/>
      <point x="269" y="1073" type="line"/>
      <point x="533" y="223" type="line"/>
      <point x="522" y="223" type="line"/>
      <point x="786" y="1073" type="line"/>
    </contour>
  </outline>
</glyph>
<glyph name="w" format="2">
  <advance width="1546"/>
  <unicode hex="0077"/>
  <outline>
    <contour>
      <point x="1521" y="1073" type="line"/>
      <point x="1228" y="-10" type="line"/>
      <point x="987" y="-10" type="line"/>
      <point x="766" y="786" type="line"/>
      <point x="777" y="786" type="line"/>
      <point x="558" y="-10" type="line"/>
      <point x="319" y="-10" type="line"/>
      <point x="25" y="1073" type="line"/>
      <point x="262" y="1073" type="line"/>
      <point x="454" y="236" type="line"/>
      <point x="442" y="236" type="line"/>
      <point x="661" y="1073" type="line"/>
      <point x="885" y="1073" type="line"/>
      <point x="1105" y="236" type="line"/>
      <point x="1094" y="236" type="line"/>
      <point x="1286" y="1073" type="line"/>
    </contour>
  </outline>
</glyph>
<glyph name="x" format="2">
  <advance width="1041"/>
  <unicode hex="0078"/>
  <outline>
    <contour>
      <point x="514" y="381" type="line"/>
      <point x="520" y="381" type="line"/>
      <point x="287" y="-10" type="line"/>
      <point x="29" y="-10" type="line"/>
      <point x="383" y="530" type="line"/>
      <point x="34" y="1073" type="line"/>
      <point x="300" y="1073" type="line"/>
      <point x="530" y="688" type="line"/>
      <point x="523" y="688" type="line"/>
      <point x="750" y="1073" type="line"/>
      <point x="1012" y="1073" type="line"/>
      <point x="660" y="537" type="line"/>
      <point x="1008" y="-10" type="line"/>
      <point x="746" y="-10" type="line"/>
    </contour>
  </outline>
</glyph>
<glyph name="y" format="2">
  <advance width="1065"/>
  <unicode hex="0079"/>
  <outline>
    <contour>
      <point x="225" y="-402" type="qcurve"/>
      <point x="199" y="-402"/>
      <point x="127" y="-395" type="qcurve"/>
      <point x="127" y="-197" type="line"/>
      <point x="148" y="-202"/>
      <point x="194" y="-204"/>
      <point x="207" y="-204" type="qcurve"/>
      <point x="280" y="-204"/>
      <point x="361" y="-139"/>
      <point x="384" y="-61" type="qcurve"/>
      <point x="384" y="-61"/>
      <point x="390" y="-41"/>
      <point x="397" y="-16"/>
      <point x="403" y="2"/>
      <point x="403" y="1" type="qcurve"/>
      <point x="19" y="1076" type="line"/>
      <point x="275" y="1076" type="line"/>
      <point x="542" y="212" type="line"/>
      <point x="530" y="212" type="line"/>
      <point x="797" y="1076" type="line"/>
      <point x="1046" y="1076" type="line"/>
      <point x="647" y="-55" type="line"/>
      <point x="581" y="-247"/>
      <point x="392" y="-402"/>
    </contour>
  </outline>
</glyph>
<glyph name="z" format="2">
  <advance width="1006"/>
  <unicode hex="007A"/>
  <outline>
    <contour>
      <point x="85" y="-10" type="line"/>
      <point x="85" y="144" type="line"/>
      <point x="646" y="888" type="line"/>
      <point x="646" y="879" type="line"/>
      <point x="89" y="879" type="line"/>
      <point x="89" y="1073" type="line"/>
      <point x="914" y="1073" type="line"/>
      <point x="914" y="910" type="line"/>
      <point x="367" y="174" type="line"/>
      <point x="367" y="184" type="line"/>
      <point x="920" y="184" type="line"/>
      <point x="920" y="-10" type="line"/>
    </contour>
  </outline>
</glyph>
<glyph name="braceleft" format="2">
  <advance width="762"/>
  <unicode hex="007B"/>
  <outline>
    <contour>
      <point x="714" y="-228" type="line"/>
      <point x="714" y="-431" type="line"/>
      <point x="528" y="-431" type="line"/>
      <point x="483" y="-431"/>
      <point x="390" y="-389"/>
      <point x="316" y="-310"/>
      <point x="269" y="-196"/>
      <point x="269" y="-122" type="qcurve"/>
      <point x="269" y="251" type="line"/>
      <point x="269" y="297"/>
      <point x="245" y="373"/>
      <point x="207" y="425"/>
      <point x="162" y="450"/>
      <point x="99" y="450" type="qcurve"/>
      <point x="99" y="669" type="line"/>
      <point x="162" y="669"/>
      <point x="207" y="693"/>
      <point x="245" y="744"/>
      <point x="269" y="822"/>
      <point x="269" y="871" type="qcurve"/>
      <point x="269" y="1244" type="line"/>
      <point x="269" y="1317"/>
      <point x="316" y="1432"/>
      <point x="390" y="1511"/>
      <point x="483" y="1552"/>
      <point x="528" y="1552" type="qcurve"/>
      <point x="714" y="1552" type="line"/>
      <point x="714" y="1349" type="line"/>
      <point x="568" y="1349" type="line"/>
      <point x="555" y="1349"/>
      <point x="537" y="1334"/>
      <point x="520" y="1297"/>
      <point x="513" y="1239"/>
      <point x="513" y="1209" type="qcurve"/>
      <point x="513" y="838" type="line"/>
      <point x="513" y="753"/>
      <point x="465" y="634"/>
      <point x="397" y="562"/>
      <point x="325" y="527"/>
      <point x="285" y="523" type="qcurve"/>
      <point x="285" y="601" type="line"/>
      <point x="328" y="591"/>
      <point x="398" y="552"/>
      <point x="465" y="477"/>
      <point x="513" y="363"/>
      <point x="513" y="283" type="qcurve"/>
      <point x="513" y="-91" type="line"/>
      <point x="513" y="-122"/>
      <point x="520" y="-177"/>
      <point x="537" y="-212"/>
      <point x="555" y="-228"/>
      <point x="568" y="-228" type="qcurve"/>
    </contour>
  </outline>
</glyph>
<glyph name="bar" format="2">
  <advance width="541"/>
  <unicode hex="007C"/>
  <outline>
    <contour>
      <point x="380" y="-463" type="line"/>
      <point x="161" y="-463" type="line"/>
      <point x="161" y="1665" type="line"/>
      <point x="380" y="1665" type="line"/>
    </contour>
  </outline>
</glyph>
<glyph name="braceright" format="2">
  <advance width="762"/>
  <unicode hex="007D"/>
  <outline>
    <contour>
      <point x="49" y="-228" type="line"/>
      <point x="195" y="-228" type="line"/>
      <point x="208" y="-228"/>
      <point x="226" y="-212"/>
      <point x="243" y="-177"/>
      <point x="250" y="-122"/>
      <point x="250" y="-91" type="qcurve"/>
      <point x="250" y="283" type="line"/>
      <point x="250" y="363"/>
      <point x="298" y="477"/>
      <point x="365" y="552"/>
      <point x="435" y="591"/>
      <point x="478" y="601" type="qcurve"/>
      <point x="478" y="523" type="line"/>
      <point x="438" y="527"/>
      <point x="366" y="562"/>
      <point x="298" y="634"/>
      <point x="250" y="753"/>
      <point x="250" y="838" type="qcurve"/>
      <point x="250" y="1209" type="line"/>
      <point x="250" y="1239"/>
      <point x="243" y="1297"/>
      <point x="226" y="1334"/>
      <point x="208" y="1349"/>
      <point x="195" y="1349" type="qcurve"/>
      <point x="49" y="1349" type="line"/>
      <point x="49" y="1552" type="line"/>
      <point x="235" y="1552" type="line"/>
      <point x="280" y="1552"/>
      <point x="373" y="1511"/>
      <point x="447" y="1432"/>
      <point x="494" y="1317"/>
      <point x="494" y="1244" type="qcurve"/>
      <point x="494" y="871" type="line"/>
      <point x="494" y="822"/>
      <point x="518" y="744"/>
      <point x="556" y="693"/>
      <point x="601" y="669"/>
      <point x="664" y="669" type="qcurve"/>
      <point x="664" y="450" type="line"/>
      <point x="601" y="450"/>
      <point x="556" y="425"/>
      <point x="518" y="373"/>
      <point x="494" y="297"/>
      <point x="494" y="251" type="qcurve"/>
      <point x="494" y="-122" type="line"/>
      <point x="494" y="-196"/>
      <point x="447" y="-310"/>
      <point x="373" y="-389"/>
      <point x="280" y="-431"/>
      <point x="235" y="-431" type="qcurve"/>
      <point x="49" y="-431" type="line"/>
    </contour>
  </outline>
</glyph>
<glyph name="asciitilde" format="2">
  <advance width="1325"/>
  <unicode hex="007E"/>
  <outline>
    <contour>
      <point x="1183" y="566" type="line"/>
      <point x="1143" y="509"/>
      <point x="1089" y="441"/>
      <point x="1021" y="386"/>
      <point x="933" y="350"/>
      <point x="878" y="350" type="qcurve"/>
      <point x="813" y="350"/>
      <point x="703" y="392"/>
      <point x="649" y="423" type="qcurve"/>
      <point x="601" y="450"/>
      <point x="497" y="497"/>
      <point x="433" y="497" type="qcurve"/>
      <point x="409" y="497"/>
      <point x="372" y="477"/>
      <point x="337" y="440"/>
      <point x="309" y="390"/>
      <point x="269" y="303" type="qcurve"/>
      <point x="141" y="480" type="line"/>
      <point x="170" y="538"/>
      <point x="222" y="608"/>
      <point x="292" y="665"/>
      <point x="385" y="700"/>
      <point x="444" y="700" type="qcurve"/>
      <point x="503" y="700"/>
      <point x="626" y="658"/>
      <point x="687" y="631" type="qcurve"/>
      <point x="745" y="606"/>
      <point x="849" y="553"/>
      <point x="880" y="553" type="qcurve"/>
      <point x="900" y="553"/>
      <point x="937" y="573"/>
      <point x="973" y="611"/>
      <point x="1009" y="664"/>
      <point x="1059" y="738" type="qcurve"/>
    </contour>
  </outline>
</glyph>
<glyph name="arabiccomma" format="2">
  <advance width="649"/>
  <unicode hex="060C"/>
  <outline>
    <contour>
      <point x="477" y="1" type="line"/>
      <point x="170" y="1" type="line"/>
      <point x="170" y="247" type="line"/>
      <point x="167" y="376"/>
      <point x="291" y="568"/>
      <point x="475" y="622" type="qcurve"/>
      <point x="475" y="438" type="line"/>
      <point x="422" y="420"/>
      <point x="386" y="386"/>
      <point x="365" y="339"/>
      <point x="354" y="290"/>
      <point x="353" y="308" type="qcurve"/>
      <point x="477" y="308" type="line"/>
    </contour>
  </outline>
</glyph>
<glyph name="arabicsemicolon" format="2">
  <advance width="649"/>
  <unicode hex="061B"/>
  <outline>
    <contour>
      <point x="477" y="703" type="line"/>
      <point x="170" y="703" type="line"/>
      <point x="170" y="949" type="line"/>
      <point x="167" y="1078"/>
      <point x="291" y="1270"/>
      <point x="475" y="1324" type="qcurve"/>
      <point x="475" y="1140" type="line"/>
      <point x="422" y="1122"/>
      <point x="386" y="1088"/>
      <point x="365" y="1041"/>
      <point x="354" y="992"/>
      <point x="353" y="1010" type="qcurve"/>
      <point x="477" y="1010" type="line"/>
    </contour>
    <contour>
      <point x="170" y="299" type="line"/>
      <point x="477" y="299" type="line"/>
      <point x="477" y="-9" type="line"/>
      <point x="170" y="-9" type="line"/>
    </contour>
  </outline>
</glyph>
<glyph name="arabicquestionmark" format="2">
  <advance width="1053"/>
  <unicode hex="061F"/>
  <outline>
    <contour>
      <point x="458" y="421" type="line"/>
      <point x="458" y="511" type="line"/>
      <point x="458" y="560"/>
      <point x="433" y="628"/>
      <point x="369" y="689"/>
      <point x="307" y="726" type="qcurve"/>
      <point x="86" y="859"/>
      <point x="86" y="1092" type="qcurve"/>
      <point x="86" y="1201"/>
      <point x="201" y="1379"/>
      <point x="405" y="1479"/>
      <point x="535" y="1479" type="qcurve"/>
      <point x="677" y="1479"/>
      <point x="881" y="1371"/>
      <point x="990" y="1183"/>
      <point x="997" y="1041" type="qcurve"/>
      <point x="777" y="1041" type="line"/>
      <point x="768" y="1162"/>
      <point x="645" y="1273"/>
      <point x="542" y="1273" type="qcurve"/>
      <point x="475" y="1273"/>
      <point x="375" y="1224"/>
      <point x="322" y="1138"/>
      <point x="322" y="1083" type="qcurve"/>
      <point x="322" y="1012"/>
      <point x="388" y="914"/>
      <point x="471" y="863" type="qcurve"/>
      <point x="580" y="799"/>
      <point x="684" y="644"/>
      <point x="683" y="538" type="qcurve"/>
      <point x="683" y="421" type="line"/>
    </contour>
    <contour>
      <point x="511" y="-35"/>
      <point x="431" y="46"/>
      <point x="431" y="104" type="qcurve"/>
      <point x="431" y="163"/>
      <point x="511" y="243"/>
      <point x="570" y="243" type="qcurve"/>
      <point x="628" y="243"/>
      <point x="709" y="163"/>
      <point x="709" y="104" type="qcurve"/>
      <point x="709" y="46"/>
      <point x="628" y="-35"/>
      <point x="570" y="-35" type="qcurve"/>
    </contour>
  </outline>
</glyph>
<glyph name="hamza-arab" format="2">
  <advance width="1070"/>
  <unicode hex="0621"/>
  <anchor x="535" y="0" name="bottom-arab"/>
  <anchor x="577" y="767" name="top-arab"/>
  <outline>
    <contour>
      <point x="945" y="179" type="line"/>
      <point x="945" y="-24" type="line"/>
      <point x="71" y="-24" type="line"/>
      <point x="71" y="179" type="line"/>
      <point x="253" y="179" type="line"/>
      <point x="264" y="179"/>
      <point x="177" y="335"/>
      <point x="177" y="427" type="qcurve"/>
      <point x="177" y="532"/>
      <point x="280" y="699"/>
      <point x="462" y="792"/>
      <point x="577" y="792" type="qcurve"/>
      <point x="717" y="792"/>
      <point x="827" y="705" type="qcurve"/>
      <point x="827" y="501" type="line"/>
      <point x="687" y="588"/>
      <point x="605" y="588" type="qcurve"/>
      <point x="548" y="588"/>
      <point x="460" y="546"/>
      <point x="413" y="474"/>
      <point x="413" y="427" type="qcurve"/>
      <point x="413" y="357"/>
      <point x="493" y="244"/>
      <point x="639" y="179"/>
      <point x="730" y="179" type="qcurve"/>
    </contour>
  </outline>
</glyph>
<glyph name="alefhamzaabove-arab" format="2">
  <advance width="539"/>
  <unicode hex="0623"/>
  <anchor x="270" y="0" name="bottom-arab"/>
  <anchor x="275" y="1726" name="top-arab"/>
  <outline>
    <contour>
      <point x="152" y="1323" type="line"/>
      <point x="387" y="1323" type="line"/>
      <point x="387" y="947" type="line"/>
      <point x="387" y="-25" type="line"/>
      <point x="152" y="-25" type="line"/>
      <point x="152" y="947" type="line"/>
    </contour>
    <contour>
      <point x="474" y="1548" type="line"/>
      <point x="474" y="1436" type="line"/>
      <point x="83" y="1436" type="line"/>
      <point x="83" y="1548" type="line"/>
      <point x="162" y="1548" type="line"/>
      <point x="149" y="1570"/>
      <point x="125" y="1623"/>
      <point x="125" y="1655" type="qcurve"/>
      <point x="125" y="1703"/>
      <point x="175" y="1777"/>
      <point x="264" y="1819"/>
      <point x="320" y="1819" type="qcurve"/>
      <point x="375" y="1819"/>
      <point x="426" y="1805" type="qcurve"/>
      <point x="426" y="1693" type="line"/>
      <point x="377" y="1706"/>
      <point x="330" y="1706" type="qcurve"/>
      <point x="293" y="1706"/>
      <point x="247" y="1666"/>
      <point x="247" y="1634" type="qcurve"/>
      <point x="247" y="1596"/>
      <point x="308" y="1548"/>
      <point x="356" y="1548" type="qcurve"/>
    </contour>
  </outline>
</glyph>
<glyph name="alef-arab" format="2">
  <advance width="546"/>
  <unicode hex="0627"/>
  <anchor x="273" y="0" name="bottom-arab"/>
  <anchor x="273" y="1411" name="top-arab"/>
  <outline>
    <contour>
      <point x="157" y="1468" type="line"/>
      <point x="388" y="1468" type="line"/>
      <point x="388" y="1072" type="line"/>
      <point x="390" y="-25" type="line"/>
      <point x="155" y="-25" type="line"/>
      <point x="157" y="1072" type="line"/>
    </contour>
  </outline>
</glyph>
<glyph name="hah-arab" format="2">
  <advance width="1454"/>
  <unicode hex="062D"/>
  <anchor x="905" y="-650" name="bottom-arab"/>
  <anchor x="541" y="1049" name="top-arab"/>
  <outline>
    <contour>
      <point x="985" y="179" type="line"/>
      <point x="975" y="194"/>
      <point x="963" y="215" type="qcurve"/>
      <point x="936" y="261"/>
      <point x="899" y="349" type="qcurve"/>
      <point x="835" y="498" type="line"/>
      <point x="786" y="615"/>
      <point x="700" y="730"/>
      <point x="652" y="750" type="qcurve"/>
      <point x="616" y="764"/>
      <point x="564" y="764" type="qcurve"/>
      <point x="254" y="764" type="line"/>
      <point x="254" y="974" type="line"/>
      <point x="523" y="974" type="line"/>
      <point x="667" y="974"/>
      <point x="850" y="911"/>
      <point x="985" y="748"/>
      <point x="1049" y="591" type="qcurve"/>
      <point x="1111" y="439" type="line"/>
      <point x="1150" y="344"/>
      <point x="1160" y="335" type="qcurve"/>
      <point x="1175" y="304"/>
      <point x="1189" y="284" type="qcurve"/>
      <point x="1244" y="199"/>
      <point x="1288" y="199" type="qcurve"/>
      <point x="1356" y="199" type="line"/>
      <point x="1256" y="-25" type="line"/>
      <point x="503" y="-25" type="line"/>
      <point x="412" y="-27"/>
      <point x="394" y="-146" type="qcurve"/>
      <point x="390" y="-173"/>
      <point x="390" y="-199" type="qcurve"/>
      <point x="390" y="-259"/>
      <point x="444" y="-387"/>
      <point x="588" y="-487"/>
      <point x="694" y="-501" type="qcurve"/>
      <point x="711" y="-503"/>
      <point x="1127" y="-503" type="qcurve"/>
      <point x="1002" y="-701" type="line"/>
      <point x="650" y="-701" type="line"/>
      <point x="488" y="-679"/>
      <point x="251" y="-516"/>
      <point x="195" y="-389" type="qcurve"/>
      <point x="154" y="-296"/>
      <point x="154" y="-191" type="qcurve"/>
      <point x="154" y="-153"/>
      <point x="159" y="-115" type="qcurve"/>
      <point x="178" y="28"/>
      <point x="299" y="179"/>
      <point x="445" y="179" type="qcurve"/>
    </contour>
  </outline>
</glyph>
<glyph name="dal-arab" format="2">
  <advance width="1094"/>
  <unicode hex="062F"/>
  <anchor x="490" y="0" name="bottom-arab"/>
  <anchor x="417" y="1049" name="top-arab"/>
  <outline>
    <contour>
      <point x="964" y="-25" type="line"/>
      <point x="99" y="-25" type="line"/>
      <point x="99" y="179" type="line"/>
      <point x="729" y="179" type="line"/>
      <point x="729" y="405" type="line"/>
      <point x="729" y="594"/>
      <point x="575" y="769"/>
      <point x="413" y="769" type="qcurve"/>
      <point x="181" y="769" type="line"/>
      <point x="181" y="973" type="line"/>
      <point x="410" y="973" type="line"/>
      <point x="688" y="973"/>
      <point x="964" y="698"/>
      <point x="964" y="419" type="qcurve"/>
    </contour>
  </outline>
</glyph>
<glyph name="reh-arab" format="2">
  <advance width="721"/>
  <unicode hex="0631"/>
  <anchor x="271" y="-459" name="bottom-arab"/>
  <anchor x="461" y="916" name="top-arab"/>
  <outline>
    <contour>
      <point x="-80" y="-285" type="line"/>
      <point x="82" y="-285" type="line"/>
      <point x="215" y="-285"/>
      <point x="343" y="-147"/>
      <point x="343" y="3" type="qcurve"/>
      <point x="343" y="941" type="line"/>
      <point x="578" y="941" type="line"/>
      <point x="578" y="-2" type="line"/>
      <point x="578" y="-243"/>
      <point x="335" y="-483"/>
      <point x="95" y="-483" type="qcurve"/>
      <point x="-80" y="-483" type="line"/>
    </contour>
  </outline>
</glyph>
<glyph name="seen-arab" format="2">
  <advance width="2590"/>
  <unicode hex="0633"/>
  <anchor x="1806" y="0" name="bottom-arab"/>
  <anchor x="1813" y="930" name="top-arab"/>
  <outline>
    <contour>
      <point x="1791" y="149" type="qcurve"/>
      <point x="1748" y="73"/>
      <point x="1660" y="21" type="qcurve"/>
      <point x="1578" y="-25"/>
      <point x="1466" y="-25" type="qcurve"/>
      <point x="1289" y="-25" type="line"/>
      <point x="1271" y="-155"/>
      <point x="1117" y="-371"/>
      <point x="864" y="-484"/>
      <point x="697" y="-484" type="qcurve"/>
      <point x="509" y="-484"/>
      <point x="236" y="-342"/>
      <point x="92" y="-72"/>
      <point x="92" y="112" type="qcurve"/>
      <point x="92" y="498" type="line"/>
      <point x="327" y="498" type="line"/>
      <point x="327" y="112" type="line"/>
      <point x="327" y="-12"/>
      <point x="414" y="-188"/>
      <point x="580" y="-280"/>
      <point x="697" y="-280" type="qcurve"/>
      <point x="814" y="-280"/>
      <point x="978" y="-188"/>
      <point x="1065" y="-11"/>
      <point x="1065" y="154" type="qcurve"/>
      <point x="1065" y="941" type="line"/>
      <point x="1300" y="941" type="line"/>
      <point x="1300" y="179" type="line"/>
      <point x="1467" y="179" type="line"/>
      <point x="1574" y="179"/>
      <point x="1695" y="301"/>
      <point x="1695" y="425" type="qcurve"/>
      <point x="1695" y="941" type="line"/>
      <point x="1931" y="941" type="line"/>
      <point x="1931" y="425" type="line"/>
      <point x="1931" y="300"/>
      <point x="2044" y="179"/>
      <point x="2128" y="179" type="qcurve"/>
      <point x="2169" y="179"/>
      <point x="2281" y="300"/>
      <point x="2281" y="425" type="qcurve"/>
      <point x="2281" y="941" type="line"/>
      <point x="2517" y="941" type="line"/>
      <point x="2517" y="424" type="line"/>
      <point x="2501" y="205"/>
      <point x="2291" y="-25"/>
      <point x="2105" y="-25" type="qcurve"/>
      <point x="1974" y="-25"/>
      <point x="1895" y="32" type="qcurve"/>
      <point x="1830" y="79"/>
    </contour>
  </outline>
</glyph>
<glyph name="sad-arab" format="2">
  <advance width="2582"/>
  <unicode hex="0635"/>
  <anchor x="1727" y="0" name="bottom-arab"/>
  <anchor x="1797" y="815" name="top-arab"/>
  <outline>
    <contour>
      <point x="2232" y="884"/>
      <point x="2479" y="612"/>
      <point x="2479" y="409" type="qcurve"/>
      <point x="2479" y="203"/>
      <point x="2232" y="-25"/>
      <point x="1999" y="-25" type="qcurve"/>
      <point x="1289" y="-25" type="line"/>
      <point x="1272" y="-155"/>
      <point x="1117" y="-371"/>
      <point x="864" y="-484"/>
      <point x="698" y="-484" type="qcurve"/>
      <point x="509" y="-484"/>
      <point x="236" y="-342"/>
      <point x="92" y="-72"/>
      <point x="92" y="113" type="qcurve"/>
      <point x="92" y="498" type="line"/>
      <point x="327" y="498" type="line"/>
      <point x="327" y="113" type="line"/>
      <point x="327" y="-12"/>
      <point x="415" y="-188"/>
      <point x="580" y="-280"/>
      <point x="698" y="-280" type="qcurve"/>
      <point x="814" y="-280"/>
      <point x="979" y="-188"/>
      <point x="1066" y="-11"/>
      <point x="1066" y="114" type="qcurve"/>
      <point x="1066" y="616" type="line"/>
      <point x="1066" y="841" type="line"/>
      <point x="1307" y="841" type="line"/>
      <point x="1307" y="670" type="line"/>
      <point x="2001" y="840" type="line"/>
    </contour>
    <contour>
      <point x="2125" y="179"/>
      <point x="2244" y="298"/>
      <point x="2244" y="409" type="qcurve"/>
      <point x="2244" y="519"/>
      <point x="2127" y="636"/>
      <point x="2010" y="612" type="qcurve"/>
      <point x="1301" y="443" type="line"/>
      <point x="1301" y="179" type="line"/>
      <point x="1999" y="179" type="line"/>
    </contour>
  </outline>
</glyph>
<glyph name="tah-arab" format="2">
  <advance width="1790"/>
  <unicode hex="0637"/>
  <anchor x="1103" y="0" name="bottom-arab"/>
  <anchor x="1103" y="816" name="top-arab"/>
  <outline>
    <contour>
      <point x="1452" y="409" type="qcurve"/>
      <point x="1452" y="519"/>
      <point x="1336" y="636"/>
      <point x="1218" y="612" type="qcurve"/>
      <point x="509" y="443" type="line"/>
      <point x="509" y="179" type="line"/>
      <point x="1207" y="179" type="line"/>
      <point x="1334" y="179"/>
      <point x="1452" y="298"/>
    </contour>
    <contour>
      <point x="94" y="-25" type="line"/>
      <point x="94" y="188" type="line"/>
      <point x="186" y="188"/>
      <point x="239" y="188" type="qcurve"/>
      <point x="268" y="188"/>
      <point x="274" y="188" type="qcurve"/>
      <point x="274" y="617" type="line"/>
      <point x="274" y="1092" type="line"/>
      <point x="274" y="1481" type="line"/>
      <point x="509" y="1481" type="line"/>
      <point x="509" y="1092" type="line"/>
      <point x="509" y="669" type="line"/>
      <point x="1210" y="840" type="line"/>
      <point x="1440" y="884"/>
      <point x="1687" y="612"/>
      <point x="1687" y="409" type="qcurve"/>
      <point x="1687" y="203"/>
      <point x="1441" y="-25"/>
      <point x="1207" y="-25" type="qcurve"/>
    </contour>
  </outline>
</glyph>
<glyph name="arabictatweelmod" format="2">
  <advance width="579"/>
  <unicode hex="0640"/>
  <outline>
    <contour>
      <point x="-60" y="-8" type="line"/>
      <point x="-60" y="162" type="line"/>
      <point x="-9" y="179" type="line"/>
      <point x="579" y="179" type="line"/>
      <point x="630" y="162" type="line"/>
      <point x="630" y="-8" type="line"/>
      <point x="579" y="-25" type="line"/>
      <point x="-9" y="-25" type="line"/>
    </contour>
  </outline>
</glyph>
<glyph name="kaf-arab" format="2">
  <advance width="1869"/>
  <unicode hex="0643"/>
  <anchor x="1009" y="0" name="bottom-arab"/>
  <anchor x="917" y="1134" name="top-arab"/>
  <outline>
    <contour>
      <point x="976" y="533" type="qcurve"/>
      <point x="622" y="533" type="line"/>
      <point x="622" y="662" type="line"/>
      <point x="956" y="662" type="line"/>
      <point x="1008" y="662"/>
      <point x="1053" y="708"/>
      <point x="1053" y="742" type="qcurve"/>
      <point x="1053" y="777"/>
      <point x="1008" y="822"/>
      <point x="956" y="822" type="qcurve"/>
      <point x="703" y="822" type="line"/>
      <point x="703" y="921" type="line"/>
      <point x="905" y="1197" type="line"/>
      <point x="1039" y="1166" type="line"/>
      <point x="879" y="951" type="line"/>
      <point x="976" y="951" type="line"/>
      <point x="1087" y="951"/>
      <point x="1206" y="840"/>
      <point x="1206" y="742" type="qcurve"/>
      <point x="1206" y="643"/>
      <point x="1087" y="533"/>
    </contour>
    <contour>
      <point x="1284" y="-25" type="qcurve"/>
      <point x="653" y="-25" type="line"/>
      <point x="103" y="-25"/>
      <point x="103" y="502" type="qcurve"/>
      <point x="103" y="759" type="line"/>
      <point x="334" y="759" type="line"/>
      <point x="334" y="503" type="line"/>
      <point x="334" y="395"/>
      <point x="365" y="327" type="qcurve"/>
      <point x="397" y="251"/>
      <point x="537" y="179"/>
      <point x="653" y="179" type="qcurve"/>
      <point x="1254" y="179" type="line"/>
      <point x="1380" y="179"/>
      <point x="1498" y="304"/>
      <point x="1498" y="451" type="qcurve"/>
      <point x="1498" y="1468" type="line"/>
      <point x="1733" y="1468" type="line"/>
      <point x="1733" y="451" type="line"/>
      <point x="1733" y="216"/>
      <point x="1505" y="-25"/>
    </contour>
  </outline>
</glyph>
<glyph name="lam-arab" format="2">
  <advance width="1288"/>
  <unicode hex="0644"/>
  <anchor x="612" y="-380" name="bottom-arab"/>
  <anchor x="470" y="684" name="top-arab"/>
  <outline>
    <contour>
      <point x="625" y="-424" type="qcurve"/>
      <point x="461" y="-424"/>
      <point x="224" y="-277"/>
      <point x="100" y="-4"/>
      <point x="100" y="180" type="qcurve"/>
      <point x="100" y="476" type="line"/>
      <point x="335" y="476" type="line"/>
      <point x="335" y="181" type="line"/>
      <point x="335" y="58"/>
      <point x="407" y="-114"/>
      <point x="540" y="-202"/>
      <point x="625" y="-202" type="qcurve"/>
      <point x="708" y="-202"/>
      <point x="841" y="-114"/>
      <point x="912" y="59"/>
      <point x="912" y="223" type="qcurve"/>
      <point x="912" y="1467" type="line"/>
      <point x="1144" y="1467" type="line"/>
      <point x="1144" y="69" type="line"/>
      <point x="1132" y="-87"/>
      <point x="999" y="-308"/>
      <point x="779" y="-424"/>
    </contour>
  </outline>
</glyph>
<glyph name="meem-arab" format="2">
  <advance width="1692"/>
  <unicode hex="0645"/>
  <anchor x="344" y="-209" name="bottom-arab"/>
  <anchor x="966" y="874" name="top-arab"/>
  <outline>
    <contour>
      <point x="1143" y="209" type="qcurve"/>
      <point x="1175" y="209"/>
      <point x="1276" y="227"/>
      <point x="1368" y="311"/>
      <point x="1383" y="379" type="qcurve"/>
      <point x="1389" y="406"/>
      <point x="1389" y="432" type="qcurve"/>
      <point x="1389" y="502"/>
      <point x="1275" y="634"/>
      <point x="1125" y="636" type="qcurve"/>
      <point x="841" y="637" type="line"/>
      <point x="826" y="569" type="line"/>
      <point x="814" y="517"/>
      <point x="814" y="472" type="qcurve"/>
      <point x="814" y="395"/>
      <point x="906" y="252"/>
      <point x="1045" y="220" type="qcurve"/>
      <point x="1097" y="209"/>
    </contour>
    <contour>
      <point x="110" y="-300" type="line"/>
      <point x="10" y="-78" type="line"/>
      <point x="281" y="-18" type="line"/>
      <point x="378" y="3"/>
      <point x="437" y="42" type="qcurve"/>
      <point x="506" y="86"/>
      <point x="531" y="164" type="qcurve"/>
      <point x="547" y="214"/>
      <point x="563" y="278" type="qcurve"/>
      <point x="683" y="863" type="line"/>
      <point x="1166" y="867" type="line"/>
      <point x="1326" y="867"/>
      <point x="1535" y="698"/>
      <point x="1574" y="582" type="qcurve"/>
      <point x="1595" y="517"/>
      <point x="1595" y="446" type="qcurve"/>
      <point x="1595" y="391"/>
      <point x="1582" y="332" type="qcurve"/>
      <point x="1552" y="202"/>
      <point x="1382" y="25"/>
      <point x="1258" y="-8" type="qcurve"/>
      <point x="1196" y="-24"/>
      <point x="1130" y="-24" type="qcurve"/>
      <point x="1064" y="-24"/>
      <point x="994" y="-8" type="qcurve"/>
      <point x="822" y="31"/>
      <point x="742" y="133" type="qcurve"/>
      <point x="696" y="-162"/>
      <point x="340" y="-245" type="qcurve"/>
    </contour>
  </outline>
</glyph>
<glyph name="heh-arab" format="2">
  <advance width="1071"/>
  <unicode hex="0647"/>
  <anchor x="566" y="-4" name="bottom-arab"/>
  <anchor x="613" y="916" name="top-arab"/>
  <outline>
    <contour>
      <point x="399" y="-28" type="qcurve"/>
      <point x="109" y="29"/>
      <point x="76" y="418" type="qcurve"/>
      <point x="62" y="561"/>
      <point x="158" y="798"/>
      <point x="357" y="944"/>
      <point x="490" y="957" type="qcurve"/>
      <point x="626" y="970"/>
      <point x="846" y="862"/>
      <point x="987" y="635"/>
      <point x="967" y="476" type="qcurve"/>
      <point x="900" y="1" type="line"/>
      <point x="662" y="-72"/>
    </contour>
    <contour>
      <point x="697" y="183" type="line"/>
      <point x="732" y="465" type="line"/>
      <point x="750" y="613"/>
      <point x="616" y="764"/>
      <point x="510" y="754" type="qcurve"/>
      <point x="441" y="747"/>
      <point x="346" y="667"/>
      <point x="301" y="528"/>
      <point x="310" y="438" type="qcurve"/>
      <point x="323" y="296"/>
      <point x="481" y="163"/>
      <point x="627" y="176" type="qcurve"/>
    </contour>
  </outline>
</glyph>
<glyph name="waw-arab" format="2">
  <advance width="1152"/>
  <unicode hex="0648"/>
  <anchor x="373" y="-458" name="bottom-arab"/>
  <anchor x="566" y="944" name="top-arab"/>
  <outline>
    <contour>
      <point x="702" y="969"/>
      <point x="912" y="842"/>
      <point x="1029" y="604"/>
      <point x="1029" y="444" type="qcurve"/>
      <point x="1029" y="163" type="line"/>
      <point x="1029" y="-164"/>
      <point x="706" y="-483"/>
      <point x="373" y="-483" type="qcurve"/>
      <point x="115" y="-483" type="line"/>
      <point x="115" y="-269" type="line"/>
      <point x="375" y="-269" type="line"/>
      <point x="561" y="-269"/>
      <point x="753" y="-135"/>
      <point x="776" y="-25" type="qcurve"/>
      <point x="629" y="-25" type="line"/>
      <point x="367" y="-25"/>
      <point x="103" y="225"/>
      <point x="103" y="475" type="qcurve"/>
      <point x="103" y="617"/>
      <point x="221" y="842"/>
      <point x="432" y="969"/>
      <point x="566" y="969" type="qcurve"/>
    </contour>
    <contour>
      <point x="794" y="179" type="line"/>
      <point x="794" y="444" type="line"/>
      <point x="794" y="601"/>
      <point x="676" y="765"/>
      <point x="566" y="765" type="qcurve"/>
      <point x="500" y="765"/>
      <point x="397" y="693"/>
      <point x="338" y="561"/>
      <point x="338" y="475" type="qcurve"/>
      <point x="338" y="324"/>
      <point x="480" y="179"/>
      <point x="629" y="179" type="qcurve"/>
    </contour>
  </outline>
</glyph>
<glyph name="alefmaksura-arab" format="2">
  <advance width="2096"/>
  <unicode hex="0649"/>
  <anchor x="983" y="-9" name="bottom-arab"/>
  <anchor x="830" y="793" name="top-arab"/>
  <outline>
    <contour>
      <point x="1223" y="-224" type="qcurve"/>
      <point x="1223" y="-225" type="line"/>
      <point x="691" y="-225" type="line"/>
      <point x="405" y="-225"/>
      <point x="269" y="-83" type="qcurve"/>
      <point x="141" y="49"/>
      <point x="141" y="302" type="qcurve"/>
      <point x="141" y="519"/>
      <point x="141" y="559" type="qcurve"/>
      <point x="372" y="559" type="line"/>
      <point x="372" y="518"/>
      <point x="372" y="303" type="qcurve"/>
      <point x="372" y="195"/>
      <point x="403" y="127" type="qcurve"/>
      <point x="435" y="51"/>
      <point x="575" y="-21"/>
      <point x="691" y="-21" type="qcurve"/>
      <point x="1173" y="-21" type="line"/>
      <point x="1325" y="-21"/>
      <point x="1443" y="98"/>
      <point x="1443" y="209" type="qcurve"/>
      <point x="1443" y="319"/>
      <point x="1325" y="438"/>
      <point x="1198" y="438" type="qcurve"/>
      <point x="780" y="438" type="line"/>
      <point x="780" y="599" type="line"/>
      <point x="1215" y="1042" type="line"/>
      <point x="1368" y="915" type="line"/>
      <point x="1090" y="642" type="line"/>
      <point x="1198" y="642" type="line"/>
      <point x="1432" y="642"/>
      <point x="1678" y="413"/>
      <point x="1678" y="209" type="qcurve"/>
      <point x="1678" y="3"/>
      <point x="1555" y="-111" type="qcurve"/>
      <point x="1444" y="-214"/>
    </contour>
  </outline>
</glyph>
<glyph name="yeh-arab" format="2">
  <advance width="1693"/>
  <unicode hex="064A"/>
  <anchor x="821" y="-389" name="bottom-arab"/>
  <anchor x="577" y="653" name="top-arab"/>
  <outline>
    <contour>
      <point x="1223" y="-224" type="qcurve"/>
      <point x="1223" y="-225" type="line"/>
      <point x="691" y="-225" type="line"/>
      <point x="405" y="-225"/>
      <point x="269" y="-83" type="qcurve"/>
      <point x="141" y="49"/>
      <point x="141" y="302" type="qcurve"/>
      <point x="141" y="519"/>
      <point x="141" y="559" type="qcurve"/>
      <point x="372" y="559" type="line"/>
      <point x="372" y="518"/>
      <point x="372" y="303" type="qcurve"/>
      <point x="372" y="195"/>
      <point x="403" y="127" type="qcurve"/>
      <point x="435" y="51"/>
      <point x="575" y="-21"/>
      <point x="691" y="-21" type="qcurve"/>
      <point x="1173" y="-21" type="line"/>
      <point x="1325" y="-21"/>
      <point x="1443" y="98"/>
      <point x="1443" y="209" type="qcurve"/>
      <point x="1443" y="319"/>
      <point x="1325" y="438"/>
      <point x="1198" y="438" type="qcurve"/>
      <point x="780" y="438" type="line"/>
      <point x="780" y="599" type="line"/>
      <point x="1215" y="1042" type="line"/>
      <point x="1368" y="915" type="line"/>
      <point x="1090" y="642" type="line"/>
      <point x="1198" y="642" type="line"/>
      <point x="1432" y="642"/>
      <point x="1678" y="413"/>
      <point x="1678" y="209" type="qcurve"/>
      <point x="1678" y="3"/>
      <point x="1555" y="-111" type="qcurve"/>
      <point x="1444" y="-214"/>
    </contour>
    <contour>
      <point x="598" y="-469"/>
      <point x="598" y="-414" type="qcurve"/>
      <point x="598" y="-358"/>
      <point x="678" y="-279"/>
      <point x="734" y="-279" type="qcurve"/>
      <point x="791" y="-279"/>
      <point x="871" y="-358"/>
      <point x="871" y="-414" type="qcurve"/>
      <point x="871" y="-470"/>
      <point x="790" y="-548"/>
      <point x="734" y="-548" type="qcurve"/>
      <point x="678" y="-548"/>
    </contour>
    <contour>
      <point x="890" y="-469"/>
      <point x="890" y="-414" type="qcurve"/>
      <point x="890" y="-358"/>
      <point x="970" y="-279"/>
      <point x="1026" y="-279" type="qcurve"/>
      <point x="1083" y="-279"/>
      <point x="1163" y="-358"/>
      <point x="1163" y="-414" type="qcurve"/>
      <point x="1163" y="-470"/>
      <point x="1082" y="-548"/>
      <point x="1026" y="-548" type="qcurve"/>
      <point x="970" y="-548"/>
    </contour>
  </outline>
</glyph>
<glyph name="arabicdammatancomb" format="2">
  <advance width="0"/>
  <unicode hex="064C"/>
  <anchor x="404" y="1049" name="top-arab"/>
  <anchor x="404" y="1523" name="top-arab"/>
  <outline>
    <contour>
      <point x="573" y="1635"/>
      <point x="654" y="1589"/>
      <point x="701" y="1509"/>
      <point x="701" y="1459" type="qcurve"/>
      <point x="701" y="1363"/>
      <point x="571" y="1239"/>
      <point x="460" y="1227" type="qcurve"/>
      <point x="386" y="1220" type="line"/>
      <point x="359" y="1217"/>
      <point x="336" y="1217" type="qcurve"/>
      <point x="242" y="1217"/>
      <point x="149" y="1314"/>
      <point x="140" y="1422" type="qcurve"/>
      <point x="34" y="1409" type="line"/>
      <point x="34" y="1512" type="line"/>
      <point x="246" y="1539" type="line"/>
      <point x="246" y="1475" type="line"/>
      <point x="246" y="1417"/>
      <point x="264" y="1350"/>
      <point x="309" y="1319"/>
      <point x="351" y="1319" type="qcurve"/>
      <point x="360" y="1319"/>
      <point x="425" y="1319" type="qcurve"/>
      <point x="381" y="1356"/>
      <point x="344" y="1429"/>
      <point x="344" y="1464" type="qcurve"/>
      <point x="344" y="1513"/>
      <point x="391" y="1591"/>
      <point x="473" y="1635"/>
      <point x="523" y="1635" type="qcurve"/>
    </contour>
    <contour>
      <point x="558" y="1366"/>
      <point x="593" y="1422"/>
      <point x="593" y="1457" type="qcurve"/>
      <point x="593" y="1491"/>
      <point x="552" y="1535"/>
      <point x="520" y="1535" type="qcurve"/>
      <point x="491" y="1535"/>
      <point x="453" y="1495"/>
      <point x="453" y="1463" type="qcurve"/>
      <point x="453" y="1435"/>
      <point x="493" y="1373"/>
      <point x="527" y="1349" type="qcurve"/>
    </contour>
  </outline>
</glyph>
<glyph name="arabickasratancomb" format="2">
  <advance width="0"/>
  <unicode hex="064D"/>
  <anchor x="292" y="0" name="bottom-arab"/>
  <anchor x="292" y="-443" name="bottom-arab"/>
  <outline>
    <contour>
      <point x="48" y="-160" type="line"/>
      <point x="537" y="-111" type="line"/>
      <point x="537" y="-219" type="line"/>
      <point x="48" y="-269" type="line"/>
    </contour>
    <contour>
      <point x="48" y="-364" type="line"/>
      <point x="537" y="-314" type="line"/>
      <point x="537" y="-423" type="line"/>
      <point x="48" y="-472" type="line"/>
    </contour>
  </outline>
</glyph>
<glyph name="arabicdammacomb" format="2">
  <advance width="0"/>
  <unicode hex="064F"/>
  <anchor x="305" y="1049" name="top-arab"/>
  <anchor x="304" y="1523" name="top-arab"/>
  <outline>
    <contour>
      <point x="420" y="1636"/>
      <point x="502" y="1590"/>
      <point x="549" y="1510"/>
      <point x="549" y="1461" type="qcurve"/>
      <point x="549" y="1357"/>
      <point x="394" y="1243"/>
      <point x="231" y="1227" type="qcurve"/>
      <point x="47" y="1208" type="line"/>
      <point x="47" y="1317" type="line"/>
      <point x="259" y="1343" type="line"/>
      <point x="222" y="1368"/>
      <point x="192" y="1433"/>
      <point x="192" y="1465" type="qcurve"/>
      <point x="192" y="1514"/>
      <point x="239" y="1592"/>
      <point x="320" y="1636"/>
      <point x="370" y="1636" type="qcurve"/>
    </contour>
    <contour>
      <point x="441" y="1392"/>
      <point x="441" y="1461" type="qcurve"/>
      <point x="441" y="1493"/>
      <point x="399" y="1536"/>
      <point x="368" y="1536" type="qcurve"/>
      <point x="339" y="1536"/>
      <point x="301" y="1496"/>
      <point x="301" y="1464" type="qcurve"/>
      <point x="301" y="1439"/>
      <point x="333" y="1386"/>
      <point x="360" y="1363" type="qcurve"/>
    </contour>
  </outline>
</glyph>
<glyph name="arabickasracomb" format="2">
  <advance width="0"/>
  <unicode hex="0650"/>
  <anchor x="292" y="0" name="bottom-arab"/>
  <anchor x="292" y="-240" name="bottom-arab"/>
  <outline>
    <contour>
      <point x="48" y="-160" type="line"/>
      <point x="537" y="-111" type="line"/>
      <point x="537" y="-219" type="line"/>
      <point x="48" y="-269" type="line"/>
    </contour>
  </outline>
</glyph>
<glyph name="arabicshaddacomb" format="2">
  <advance width="0"/>
  <unicode hex="0651"/>
  <anchor x="313" y="1049" name="top-arab"/>
  <anchor x="313" y="1431" name="top-arab"/>
  <outline>
    <contour>
      <point x="566" y="1532" type="line"/>
      <point x="566" y="1436" type="line"/>
      <point x="566" y="1343"/>
      <point x="489" y="1246"/>
      <point x="415" y="1246" type="qcurve"/>
      <point x="337" y="1246"/>
      <point x="305" y="1311" type="qcurve"/>
      <point x="305" y="1311" type="line"/>
      <point x="282" y="1264"/>
      <point x="225" y="1226"/>
      <point x="187" y="1226" type="qcurve"/>
      <point x="126" y="1226"/>
      <point x="60" y="1309"/>
      <point x="60" y="1387" type="qcurve"/>
      <point x="60" y="1493" type="line"/>
      <point x="169" y="1493" type="line"/>
      <point x="169" y="1389" type="line"/>
      <point x="169" y="1359"/>
      <point x="192" y="1327"/>
      <point x="214" y="1327" type="qcurve"/>
      <point x="259" y="1327"/>
      <point x="259" y="1393" type="qcurve"/>
      <point x="259" y="1513" type="line"/>
      <point x="367" y="1513" type="line"/>
      <point x="367" y="1408" type="line"/>
      <point x="367" y="1379"/>
      <point x="390" y="1347"/>
      <point x="412" y="1347" type="qcurve"/>
      <point x="457" y="1347"/>
      <point x="457" y="1412" type="qcurve"/>
      <point x="457" y="1532" type="line"/>
    </contour>
  </outline>
</glyph>
<glyph name="arabicsukuncomb" format="2">
  <advance width="0"/>
  <unicode hex="0652"/>
  <anchor x="281" y="1049" name="top-arab"/>
  <anchor x="281" y="1495" name="top-arab"/>
  <outline>
    <contour>
      <point x="225" y="1225"/>
      <point x="135" y="1275"/>
      <point x="83" y="1362"/>
      <point x="83" y="1416" type="qcurve"/>
      <point x="83" y="1471"/>
      <point x="135" y="1560"/>
      <point x="225" y="1612"/>
      <point x="281" y="1612" type="qcurve"/>
      <point x="336" y="1612"/>
      <point x="426" y="1560"/>
      <point x="478" y="1471"/>
      <point x="478" y="1416" type="qcurve"/>
      <point x="478" y="1362"/>
      <point x="426" y="1275"/>
      <point x="336" y="1225"/>
      <point x="281" y="1225" type="qcurve"/>
    </contour>
    <contour>
      <point x="319" y="1325"/>
      <point x="369" y="1377"/>
      <point x="369" y="1417" type="qcurve"/>
      <point x="369" y="1457"/>
      <point x="319" y="1512"/>
      <point x="281" y="1512" type="qcurve"/>
      <point x="243" y="1512"/>
      <point x="192" y="1458"/>
      <point x="192" y="1417" type="qcurve"/>
      <point x="192" y="1377"/>
      <point x="243" y="1325"/>
      <point x="281" y="1325" type="qcurve"/>
    </contour>
  </outline>
</glyph>
<glyph name="arabicmaddahcomb" format="2">
  <advance width="0"/>
  <unicode hex="0653"/>
  <anchor x="344" y="1049" name="top-arab"/>
  <anchor x="344" y="1287" name="top-arab"/>
  <outline>
    <contour>
      <point x="488" y="1225"/>
      <point x="430" y="1235"/>
      <point x="386" y="1245" type="qcurve"/>
      <point x="342" y="1256"/>
      <point x="275" y="1267"/>
      <point x="236" y="1267" type="qcurve"/>
      <point x="169" y="1267"/>
      <point x="102" y="1242" type="qcurve"/>
      <point x="102" y="1351" type="line"/>
      <point x="167" y="1375"/>
      <point x="228" y="1375" type="qcurve"/>
      <point x="273" y="1375"/>
      <point x="338" y="1364"/>
      <point x="389" y="1353" type="qcurve"/>
      <point x="432" y="1343"/>
      <point x="488" y="1333"/>
      <point x="522" y="1333" type="qcurve"/>
      <point x="564" y="1333"/>
      <point x="642" y="1349"/>
      <point x="687" y="1365" type="qcurve"/>
      <point x="687" y="1256" type="line"/>
      <point x="641" y="1241"/>
      <point x="564" y="1225"/>
      <point x="522" y="1225" type="qcurve"/>
    </contour>
  </outline>
</glyph>
<glyph name="arabichamzacomb" format="2">
  <advance width="0"/>
  <unicode hex="0654"/>
  <anchor x="299" y="1049" name="top-arab"/>
  <anchor x="304" y="1509" name="top-arab"/>
  <outline>
    <contour>
      <point x="494" y="1348" type="line"/>
      <point x="494" y="1236" type="line"/>
      <point x="103" y="1236" type="line"/>
      <point x="103" y="1348" type="line"/>
      <point x="182" y="1348" type="line"/>
      <point x="169" y="1370"/>
      <point x="145" y="1423"/>
      <point x="145" y="1455" type="qcurve"/>
      <point x="145" y="1503"/>
      <point x="195" y="1577"/>
      <point x="284" y="1619"/>
      <point x="340" y="1619" type="qcurve"/>
      <point x="395" y="1619"/>
      <point x="446" y="1605" type="qcurve"/>
      <point x="446" y="1493" type="line"/>
      <point x="397" y="1506"/>
      <point x="350" y="1506" type="qcurve"/>
      <point x="313" y="1506"/>
      <point x="267" y="1466"/>
      <point x="267" y="1434" type="qcurve"/>
      <point x="267" y="1396"/>
      <point x="328" y="1348"/>
      <point x="376" y="1348" type="qcurve"/>
    </contour>
  </outline>
</glyph>
<glyph name="arabichamzabelowcomb" format="2">
  <advance width="0"/>
  <unicode hex="0655"/>
  <anchor x="317" y="-3" name="bottom-arab"/>
  <anchor x="297" y="-467" name="bottom-arab"/>
  <outline>
    <contour>
      <point x="494" y="-381" type="line"/>
      <point x="494" y="-493" type="line"/>
      <point x="103" y="-493" type="line"/>
      <point x="103" y="-381" type="line"/>
      <point x="182" y="-381" type="line"/>
      <point x="169" y="-359"/>
      <point x="145" y="-306"/>
      <point x="145" y="-274" type="qcurve"/>
      <point x="145" y="-226"/>
      <point x="195" y="-152"/>
      <point x="284" y="-110"/>
      <point x="340" y="-110" type="qcurve"/>
      <point x="395" y="-110"/>
      <point x="446" y="-124" type="qcurve"/>
      <point x="446" y="-236" type="line"/>
      <point x="397" y="-223"/>
      <point x="350" y="-223" type="qcurve"/>
      <point x="313" y="-223"/>
      <point x="267" y="-263"/>
      <point x="267" y="-295" type="qcurve"/>
      <point x="267" y="-333"/>
      <point x="328" y="-381"/>
      <point x="376" y="-381" type="qcurve"/>
    </contour>
  </outline>
</glyph>
<glyph name="arabicindiczero-arab" format="2">
  <advance width="560"/>
  <unicode hex="0660"/>
  <outline>
    <contour>
      <point x="223" y="338"/>
      <point x="141" y="419"/>
      <point x="141" y="476" type="qcurve"/>
      <point x="141" y="533"/>
      <point x="223" y="615"/>
      <point x="280" y="615" type="qcurve"/>
      <point x="337" y="615"/>
      <point x="418" y="533"/>
      <point x="418" y="476" type="qcurve"/>
      <point x="418" y="419"/>
      <point x="337" y="338"/>
      <point x="280" y="338" type="qcurve"/>
    </contour>
  </outline>
</glyph>
<glyph name="arabicindicone-arab" format="2">
  <advance width="533"/>
  <unicode hex="0661"/>
  <outline>
    <contour>
      <point x="150" y="1264" type="line"/>
      <point x="382" y="1264" type="line"/>
      <point x="382" y="-25" type="line"/>
      <point x="150" y="-25" type="line"/>
    </contour>
  </outline>
</glyph>
<glyph name="arabicindictwo-arab" format="2">
  <advance width="912"/>
  <unicode hex="0662"/>
  <outline>
    <contour>
      <point x="886" y="1074" type="line"/>
      <point x="326" y="1074" type="line"/>
      <point x="403" y="-25" type="line"/>
      <point x="171" y="-25" type="line"/>
      <point x="80" y="1295" type="line"/>
      <point x="886" y="1295" type="line"/>
    </contour>
  </outline>
</glyph>
<glyph name="arabicindicthree-arab" format="2">
  <advance width="1194"/>
  <unicode hex="0663"/>
  <outline>
    <contour>
      <point x="1126" y="1264" type="line"/>
      <point x="1126" y="698" type="line"/>
      <point x="842" y="698" type="line"/>
      <point x="753" y="698"/>
      <point x="622" y="770"/>
      <point x="612" y="788" type="qcurve"/>
      <point x="580" y="690"/>
      <point x="423" y="690" type="qcurve"/>
      <point x="357" y="690"/>
      <point x="350" y="694" type="qcurve"/>
      <point x="423" y="-25" type="line"/>
      <point x="193" y="-25" type="line"/>
      <point x="70" y="1264" type="line"/>
      <point x="296" y="1264" type="line"/>
      <point x="316" y="995" type="line"/>
      <point x="319" y="939"/>
      <point x="380" y="878"/>
      <point x="427" y="878" type="qcurve"/>
      <point x="481" y="878"/>
      <point x="538" y="951"/>
      <point x="538" y="1027" type="qcurve"/>
      <point x="538" y="1264" type="line"/>
      <point x="712" y="1264" type="line"/>
      <point x="712" y="1027" type="line"/>
      <point x="712" y="958"/>
      <point x="785" y="887"/>
      <point x="851" y="887" type="qcurve"/>
      <point x="926" y="887" type="line"/>
      <point x="926" y="1264" type="line"/>
    </contour>
  </outline>
</glyph>
<glyph name="arabicindicfour-arab" format="2">
  <advance width="970"/>
  <unicode hex="0664"/>
  <outline>
    <contour>
      <point x="889" y="165" type="line"/>
      <point x="889" y="-25" type="line"/>
      <point x="603" y="-25" type="line"/>
      <point x="350" y="-25"/>
      <point x="83" y="145"/>
      <point x="83" y="308" type="qcurve"/>
      <point x="83" y="431"/>
      <point x="225" y="597"/>
      <point x="279" y="611" type="qcurve"/>
      <point x="246" y="623"/>
      <point x="127" y="788"/>
      <point x="127" y="899" type="qcurve"/>
      <point x="127" y="1010"/>
      <point x="240" y="1175"/>
      <point x="454" y="1264"/>
      <point x="603" y="1264" type="qcurve"/>
      <point x="816" y="1264" type="line"/>
      <point x="816" y="1074" type="line"/>
      <point x="601" y="1074" type="line"/>
      <point x="485" y="1074"/>
      <point x="360" y="975"/>
      <point x="360" y="891" type="qcurve"/>
      <point x="360" y="839"/>
      <point x="414" y="759"/>
      <point x="524" y="713"/>
      <point x="601" y="713" type="qcurve"/>
      <point x="816" y="713" type="line"/>
      <point x="816" y="539" type="line"/>
      <point x="601" y="539" type="line"/>
      <point x="469" y="539"/>
      <point x="331" y="434"/>
      <point x="331" y="340" type="qcurve"/>
      <point x="331" y="258"/>
      <point x="469" y="165"/>
      <point x="602" y="165" type="qcurve"/>
    </contour>
  </outline>
</glyph>
<glyph name="arabicindicfive-arab" format="2">
  <advance width="1155"/>
  <unicode hex="0665"/>
  <outline>
    <contour>
      <point x="424" y="79"/>
      <point x="201" y="204"/>
      <point x="84" y="440"/>
      <point x="84" y="601" type="qcurve"/>
      <point x="84" y="774"/>
      <point x="201" y="1046"/>
      <point x="425" y="1201"/>
      <point x="578" y="1201" type="qcurve"/>
      <point x="731" y="1201"/>
      <point x="954" y="1046"/>
      <point x="1071" y="774"/>
      <point x="1071" y="601" type="qcurve"/>
      <point x="1071" y="440"/>
      <point x="954" y="204"/>
      <point x="732" y="79"/>
      <point x="578" y="79" type="qcurve"/>
    </contour>
    <contour>
      <point x="701" y="270"/>
      <point x="838" y="442"/>
      <point x="838" y="601" type="qcurve"/>
      <point x="838" y="722"/>
      <point x="774" y="910"/>
      <point x="657" y="1011"/>
      <point x="578" y="1011" type="qcurve"/>
      <point x="499" y="1011"/>
      <point x="382" y="909"/>
      <point x="317" y="722"/>
      <point x="317" y="601" type="qcurve"/>
      <point x="317" y="442"/>
      <point x="455" y="270"/>
      <point x="578" y="270" type="qcurve"/>
    </contour>
  </outline>
</glyph>
<glyph name="arabicindicsix-arab" format="2">
  <advance width="983"/>
  <unicode hex="0666"/>
  <outline>
    <contour>
      <point x="640" y="-25" type="line"/>
      <point x="593" y="1058" type="line"/>
      <point x="26" y="1058" type="line"/>
      <point x="26" y="1279" type="line"/>
      <point x="812" y="1279" type="line"/>
      <point x="873" y="-25" type="line"/>
    </contour>
  </outline>
</glyph>
<glyph name="arabicindicseven-arab" format="2">
  <advance width="1188"/>
  <unicode hex="0667"/>
  <outline>
    <contour>
      <point x="590" y="278" type="line"/>
      <point x="900" y="1264" type="line"/>
      <point x="1153" y="1264" type="line"/>
      <point x="724" y="-25" type="line"/>
      <point x="464" y="-25" type="line"/>
      <point x="45" y="1264" type="line"/>
      <point x="309" y="1264" type="line"/>
    </contour>
  </outline>
</glyph>
<glyph name="arabicindiceight-arab" format="2">
  <advance width="1185"/>
  <unicode hex="0668"/>
  <outline>
    <contour>
      <point x="590" y="961" type="line"/>
      <point x="309" y="-25" type="line"/>
      <point x="45" y="-25" type="line"/>
      <point x="464" y="1264" type="line"/>
      <point x="724" y="1264" type="line"/>
      <point x="1153" y="-25" type="line"/>
      <point x="900" y="-25" type="line"/>
    </contour>
  </outline>
</glyph>
<glyph name="arabicindicnine-arab" format="2">
  <advance width="1048"/>
  <unicode hex="0669"/>
  <outline>
    <contour>
      <point x="744" y="-25" type="line"/>
      <point x="697" y="574" type="line"/>
      <point x="402" y="521"/>
      <point x="176" y="586"/>
      <point x="56" y="765"/>
      <point x="56" y="890" type="qcurve"/>
      <point x="56" y="1007"/>
      <point x="170" y="1176"/>
      <point x="383" y="1264"/>
      <point x="527" y="1264" type="qcurve"/>
      <point x="876" y="1264" type="line"/>
      <point x="968" y="-25" type="line"/>
    </contour>
    <contour>
      <point x="685" y="774" type="qcurve"/>
      <point x="658" y="1074" type="line"/>
      <point x="527" y="1074" type="line"/>
      <point x="412" y="1074"/>
      <point x="289" y="977"/>
      <point x="289" y="890" type="qcurve"/>
      <point x="289" y="792"/>
      <point x="421" y="715"/>
    </contour>
  </outline>
</glyph>
<glyph name="percentsign-arab" format="2">
  <advance width="1648"/>
  <unicode hex="066A"/>
  <outline>
    <contour>
      <point x="278" y="756"/>
      <point x="128" y="848"/>
      <point x="46" y="1014"/>
      <point x="46" y="1120" type="qcurve"/>
      <point x="46" y="1227"/>
      <point x="128" y="1393"/>
      <point x="278" y="1485"/>
      <point x="375" y="1485" type="qcurve"/>
      <point x="472" y="1485"/>
      <point x="621" y="1392"/>
      <point x="703" y="1227"/>
      <point x="703" y="1120" type="qcurve"/>
      <point x="703" y="1013"/>
      <point x="621" y="849"/>
      <point x="472" y="756"/>
      <point x="375" y="756" type="qcurve"/>
    </contour>
    <contour>
      <point x="1233" y="1468" type="line"/>
      <point x="1456" y="1468" type="line"/>
      <point x="417" y="-25" type="line"/>
      <point x="192" y="-25" type="line"/>
    </contour>
    <contour>
      <point x="418" y="925"/>
      <point x="485" y="971"/>
      <point x="523" y="1060"/>
      <point x="523" y="1120" type="qcurve"/>
      <point x="523" y="1180"/>
      <point x="485" y="1269"/>
      <point x="418" y="1315"/>
      <point x="375" y="1315" type="qcurve"/>
      <point x="332" y="1315"/>
      <point x="265" y="1268"/>
      <point x="226" y="1180"/>
      <point x="226" y="1120" type="qcurve"/>
      <point x="226" y="1060"/>
      <point x="265" y="972"/>
      <point x="332" y="925"/>
      <point x="375" y="925" type="qcurve"/>
    </contour>
    <contour>
      <point x="1177" y="-41"/>
      <point x="1027" y="51"/>
      <point x="945" y="217"/>
      <point x="945" y="323" type="qcurve"/>
      <point x="945" y="430"/>
      <point x="1027" y="596"/>
      <point x="1177" y="688"/>
      <point x="1274" y="688" type="qcurve"/>
      <point x="1371" y="688"/>
      <point x="1520" y="595"/>
      <point x="1602" y="430"/>
      <point x="1602" y="323" type="qcurve"/>
      <point x="1602" y="216"/>
      <point x="1520" y="52"/>
      <point x="1371" y="-41"/>
      <point x="1274" y="-41" type="qcurve"/>
    </contour>
    <contour>
      <point x="1317" y="128"/>
      <point x="1384" y="174"/>
      <point x="1422" y="263"/>
      <point x="1422" y="323" type="qcurve"/>
      <point x="1422" y="383"/>
      <point x="1384" y="472"/>
      <point x="1317" y="518"/>
      <point x="1274" y="518" type="qcurve"/>
      <point x="1231" y="518"/>
      <point x="1164" y="471"/>
      <point x="1125" y="383"/>
      <point x="1125" y="323" type="qcurve"/>
      <point x="1125" y="263"/>
      <point x="1164" y="175"/>
      <point x="1231" y="128"/>
      <point x="1274" y="128" type="qcurve"/>
    </contour>
  </outline>
</glyph>
<glyph name="decimalseparator-arab" format="2">
  <advance width="583"/>
  <unicode hex="066B"/>
  <outline>
    <contour>
      <point x="194" y="247" type="line"/>
      <point x="432" y="247" type="line"/>
      <point x="281" y="-312" type="line"/>
      <point x="87" y="-312" type="line"/>
    </contour>
  </outline>
</glyph>
<glyph name="fivepointedstar-arab" format="2">
  <advance width="888"/>
  <unicode hex="066D"/>
  <outline>
    <contour>
      <point x="359" y="960" type="line"/>
      <point x="160" y="837" type="line"/>
      <point x="79" y="985" type="line"/>
      <point x="281" y="1104" type="line"/>
      <point x="80" y="1224" type="line"/>
      <point x="161" y="1369" type="line"/>
      <point x="360" y="1248" type="line"/>
      <point x="355" y="1468" type="line"/>
      <point x="532" y="1468" type="line"/>
      <point x="528" y="1247" type="line"/>
      <point x="724" y="1369" type="line"/>
      <point x="809" y="1224" type="line"/>
      <point x="605" y="1103" type="line"/>
      <point x="809" y="984" type="line"/>
      <point x="723" y="837" type="line"/>
      <point x="528" y="959" type="line"/>
      <point x="532" y="738" type="line"/>
      <point x="354" y="738" type="line"/>
    </contour>
  </outline>
</glyph>
<glyph name="dotlessbeh-arab" format="2">
  <advance width="1874"/>
  <unicode hex="066E"/>
  <anchor x="925" y="0" name="bottom-arab"/>
  <anchor x="905" y="658" name="top-arab"/>
  <outline>
    <contour>
      <point x="1254" y="179" type="line"/>
      <point x="1380" y="179"/>
      <point x="1498" y="304"/>
      <point x="1498" y="450" type="qcurve"/>
      <point x="1498" y="941" type="line"/>
      <point x="1743" y="941" type="line"/>
      <point x="1743" y="450" type="line"/>
      <point x="1733" y="216"/>
      <point x="1619" y="96" type="qcurve"/>
      <point x="1506" y="-24"/>
      <point x="1288" y="-25" type="qcurve"/>
      <point x="653" y="-25" type="line"/>
      <point x="367" y="-25"/>
      <point x="231" y="117" type="qcurve"/>
      <point x="103" y="249"/>
      <point x="103" y="502" type="qcurve"/>
      <point x="103" y="719"/>
      <point x="103" y="759" type="qcurve"/>
      <point x="334" y="759" type="line"/>
      <point x="334" y="718"/>
      <point x="334" y="503" type="qcurve"/>
      <point x="334" y="395"/>
      <point x="365" y="327" type="qcurve"/>
      <point x="397" y="251"/>
      <point x="537" y="179"/>
      <point x="653" y="179" type="qcurve"/>
    </contour>
  </outline>
</glyph>
<glyph name="dotlessqaf-arab" format="2">
  <advance width="1508"/>
  <unicode hex="066F"/>
  <anchor x="738" y="-459" name="bottom-arab"/>
  <anchor x="921" y="944" name="top-arab"/>
  <outline>
    <contour>
      <point x="1059" y="969"/>
      <point x="1269" y="842"/>
      <point x="1386" y="604"/>
      <point x="1386" y="444" type="qcurve"/>
      <point x="1386" y="114" type="line"/>
      <point x="1386" y="-72"/>
      <point x="1231" y="-342"/>
      <point x="940" y="-484"/>
      <point x="740" y="-484" type="qcurve"/>
      <point x="539" y="-484"/>
      <point x="247" y="-342"/>
      <point x="92" y="-72"/>
      <point x="92" y="111" type="qcurve"/>
      <point x="92" y="398" type="line"/>
      <point x="327" y="398" type="line"/>
      <point x="327" y="111" type="line"/>
      <point x="327" y="-11"/>
      <point x="424" y="-187"/>
      <point x="609" y="-280"/>
      <point x="740" y="-280" type="qcurve"/>
      <point x="905" y="-280"/>
      <point x="1110" y="-131"/>
      <point x="1134" y="-25" type="qcurve"/>
      <point x="985" y="-25" type="line"/>
      <point x="723" y="-25"/>
      <point x="460" y="225"/>
      <point x="460" y="475" type="qcurve"/>
      <point x="460" y="617"/>
      <point x="577" y="842"/>
      <point x="789" y="969"/>
      <point x="923" y="969" type="qcurve"/>
    </contour>
    <contour>
      <point x="695" y="324"/>
      <point x="837" y="179"/>
      <point x="985" y="179" type="qcurve"/>
      <point x="1151" y="179" type="line"/>
      <point x="1151" y="444" type="line"/>
      <point x="1151" y="601"/>
      <point x="1033" y="765"/>
      <point x="923" y="765" type="qcurve"/>
      <point x="857" y="765"/>
      <point x="754" y="693"/>
      <point x="695" y="562"/>
      <point x="695" y="475" type="qcurve"/>
    </contour>
  </outline>
</glyph>
<glyph name="arabicalefcomb" format="2">
  <advance width="0"/>
  <unicode hex="0670"/>
  <anchor x="182" y="1049" name="top-arab"/>
  <anchor x="182" y="1567" name="top-arab"/>
  <outline>
    <contour>
      <point x="127" y="1660" type="line"/>
      <point x="236" y="1660" type="line"/>
      <point x="236" y="1236" type="line"/>
      <point x="127" y="1236" type="line"/>
    </contour>
  </outline>
</glyph>
<glyph name="dotlessfeh-arab" format="2">
  <advance width="2113"/>
  <unicode hex="06A1"/>
  <anchor x="1016" y="0" name="bottom-arab"/>
  <anchor x="1527" y="944" name="top-arab"/>
  <outline>
    <contour>
      <point x="1660" y="179" type="line"/>
      <point x="1722" y="457" type="line"/>
      <point x="1753" y="602"/>
      <point x="1634" y="765"/>
      <point x="1528" y="765" type="qcurve"/>
      <point x="1459" y="765"/>
      <point x="1356" y="694"/>
      <point x="1299" y="560"/>
      <point x="1299" y="470" type="qcurve"/>
      <point x="1299" y="327"/>
      <point x="1444" y="179"/>
      <point x="1590" y="179" type="qcurve"/>
    </contour>
    <contour>
      <point x="1160" y="179" type="line"/>
      <point x="1064" y="281"/>
      <point x="1064" y="471" type="qcurve"/>
      <point x="1064" y="615"/>
      <point x="1182" y="842"/>
      <point x="1393" y="969"/>
      <point x="1527" y="969" type="qcurve"/>
      <point x="1663" y="969"/>
      <point x="1873" y="842"/>
      <point x="1991" y="601"/>
      <point x="1956" y="445" type="qcurve"/>
      <point x="1845" y="-25" type="line"/>
      <point x="698" y="-25" type="line"/>
      <point x="412" y="-25"/>
      <point x="276" y="117" type="qcurve"/>
      <point x="157" y="240"/>
      <point x="157" y="470" type="qcurve"/>
      <point x="157" y="568"/>
      <point x="157" y="759" type="qcurve"/>
      <point x="375" y="759" type="line"/>
      <point x="375" y="569"/>
      <point x="375" y="490" type="qcurve"/>
      <point x="375" y="392"/>
      <point x="410" y="327" type="qcurve"/>
      <point x="442" y="251"/>
      <point x="582" y="179"/>
      <point x="698" y="179" type="qcurve"/>
    </contour>
  </outline>
</glyph>
<glyph name="noonghunna-arab" format="2">
  <advance width="1454"/>
  <unicode hex="06BA"/>
  <anchor x="697" y="-459" name="bottom-arab"/>
  <anchor x="691" y="584" name="top-arab"/>
  <outline>
    <contour>
      <point x="1285" y="-1" type="line"/>
      <point x="1272" y="-154"/>
      <point x="1117" y="-371"/>
      <point x="864" y="-484"/>
      <point x="697" y="-484" type="qcurve"/>
      <point x="509" y="-484"/>
      <point x="236" y="-342"/>
      <point x="92" y="-72"/>
      <point x="92" y="112" type="qcurve"/>
      <point x="92" y="498" type="line"/>
      <point x="327" y="498" type="line"/>
      <point x="327" y="112" type="line"/>
      <point x="327" y="-12"/>
      <point x="414" y="-188"/>
      <point x="580" y="-280"/>
      <point x="697" y="-280" type="qcurve"/>
      <point x="814" y="-280"/>
      <point x="978" y="-188"/>
      <point x="1065" y="-12"/>
      <point x="1060" y="153" type="qcurve"/>
      <point x="1060" y="941" type="line"/>
      <point x="1285" y="941" type="line"/>
      <point x="1285" y="152" type="line"/>
    </contour>
  </outline>
</glyph>
<glyph name="fullstop-arab" format="2">
  <advance width="570"/>
  <unicode hex="06D4"/>
  <outline>
    <contour>
      <point x="227" y="-35"/>
      <point x="146" y="46"/>
      <point x="146" y="104" type="qcurve"/>
      <point x="146" y="162"/>
      <point x="227" y="243"/>
      <point x="285" y="243" type="qcurve"/>
      <point x="343" y="243"/>
      <point x="424" y="162"/>
      <point x="424" y="104" type="qcurve"/>
      <point x="424" y="46"/>
      <point x="343" y="-35"/>
      <point x="285" y="-35" type="qcurve"/>
    </contour>
  </outline>
</glyph>
<glyph name="symboldotaccentmod-arab" format="2">
  <advance width="50"/>
  <unicode hex="FBB2"/>
  <anchor x="170" y="18" name="top-arab"/>
  <anchor x="170" y="427" name="top-arab"/>
  <outline>
    <contour>
      <point x="114" y="183"/>
      <point x="34" y="262"/>
      <point x="34" y="317" type="qcurve"/>
      <point x="34" y="373"/>
      <point x="114" y="452"/>
      <point x="170" y="452" type="qcurve"/>
      <point x="227" y="452"/>
      <point x="307" y="373"/>
      <point x="307" y="317" type="qcurve"/>
      <point x="307" y="261"/>
      <point x="226" y="183"/>
      <point x="170" y="183" type="qcurve"/>
    </contour>
  </outline>
</glyph>
<glyph name="symboltwodotsabovemod-arab" format="2">
  <advance width="50"/>
  <unicode hex="FBB4"/>
  <anchor x="317" y="18" name="top-arab"/>
  <anchor x="317" y="427" name="top-arab"/>
  <outline>
    <contour>
      <point x="94" y="183"/>
      <point x="14" y="262"/>
      <point x="14" y="317" type="qcurve"/>
      <point x="14" y="373"/>
      <point x="94" y="452"/>
      <point x="150" y="452" type="qcurve"/>
      <point x="207" y="452"/>
      <point x="287" y="373"/>
      <point x="287" y="317" type="qcurve"/>
      <point x="287" y="261"/>
      <point x="206" y="183"/>
      <point x="150" y="183" type="qcurve"/>
    </contour>
    <contour>
      <point x="425" y="183"/>
      <point x="345" y="262"/>
      <point x="345" y="317" type="qcurve"/>
      <point x="345" y="373"/>
      <point x="425" y="452"/>
      <point x="481" y="452" type="qcurve"/>
      <point x="538" y="452"/>
      <point x="618" y="373"/>
      <point x="618" y="317" type="qcurve"/>
      <point x="618" y="261"/>
      <point x="537" y="183"/>
      <point x="481" y="183" type="qcurve"/>
    </contour>
  </outline>
</glyph>
<glyph name="symbolthreedotsabovemod-arab" format="2">
  <advance width="50"/>
  <unicode hex="FBB6"/>
  <anchor x="333" y="18" name="top-arab"/>
  <anchor x="332" y="695" name="top-arab"/>
  <outline>
    <contour>
      <point x="276" y="547"/>
      <point x="196" y="626"/>
      <point x="196" y="681" type="qcurve"/>
      <point x="196" y="737"/>
      <point x="276" y="816"/>
      <point x="332" y="816" type="qcurve"/>
      <point x="389" y="816"/>
      <point x="469" y="737"/>
      <point x="469" y="681" type="qcurve"/>
      <point x="469" y="625"/>
      <point x="388" y="547"/>
      <point x="332" y="547" type="qcurve"/>
    </contour>
    <contour>
      <point x="102" y="283"/>
      <point x="22" y="362"/>
      <point x="22" y="417" type="qcurve"/>
      <point x="22" y="473"/>
      <point x="102" y="552"/>
      <point x="158" y="552" type="qcurve"/>
      <point x="215" y="552"/>
      <point x="295" y="473"/>
      <point x="295" y="417" type="qcurve"/>
      <point x="295" y="361"/>
      <point x="214" y="283"/>
      <point x="158" y="283" type="qcurve"/>
    </contour>
    <contour>
      <point x="449" y="283"/>
      <point x="369" y="362"/>
      <point x="369" y="417" type="qcurve"/>
      <point x="369" y="473"/>
      <point x="449" y="552"/>
      <point x="505" y="552" type="qcurve"/>
      <point x="562" y="552"/>
      <point x="642" y="473"/>
      <point x="642" y="417" type="qcurve"/>
      <point x="642" y="361"/>
      <point x="561" y="283"/>
      <point x="505" y="283" type="qcurve"/>
    </contour>
  </outline>
</glyph>
<glyph name="ornateparenleft" format="2">
  <advance width="740"/>
  <unicode hex="FD3E"/>
  <outline>
    <contour>
      <point x="333" y="-136"/>
      <point x="190" y="303"/>
      <point x="190" y="568" type="qcurve"/>
      <point x="190" y="833"/>
      <point x="333" y="1272"/>
      <point x="487" y="1468" type="qcurve"/>
      <point x="700" y="1468" type="line"/>
      <point x="597" y="1349"/>
      <point x="483" y="1066"/>
      <point x="417" y="727"/>
      <point x="417" y="568" type="qcurve"/>
      <point x="417" y="409"/>
      <point x="483" y="70"/>
      <point x="597" y="-213"/>
      <point x="700" y="-332" type="qcurve"/>
      <point x="487" y="-332" type="line"/>
    </contour>
  </outline>
</glyph>
<glyph name="ornateparenright" format="2">
  <advance width="740"/>
  <unicode hex="FD3F"/>
  <outline>
    <contour>
      <point x="407" y="1272"/>
      <point x="550" y="833"/>
      <point x="550" y="568" type="qcurve"/>
      <point x="550" y="303"/>
      <point x="407" y="-136"/>
      <point x="253" y="-332" type="qcurve"/>
      <point x="40" y="-332" type="line"/>
      <point x="143" y="-213"/>
      <point x="257" y="70"/>
      <point x="323" y="409"/>
      <point x="323" y="568" type="qcurve"/>
      <point x="323" y="727"/>
      <point x="257" y="1066"/>
      <point x="143" y="1349"/>
      <point x="40" y="1468" type="qcurve"/>
      <point x="253" y="1468" type="line"/>
    </contour>
  </outline>
</glyph>
<glyph name="alef-arab.fina" format="2">
  <advance width="634"/>
  <unicode hex="FE8E"/>
  <anchor x="252" y="0" name="bottom-arab"/>
  <anchor x="261" y="1411" name="top-arab"/>
  <outline>
    <contour>
      <point x="371" y="-25"/>
      <point x="143" y="216"/>
      <point x="143" y="451" type="qcurve"/>
      <point x="138" y="1084" type="line"/>
      <point x="138" y="1468" type="line"/>
      <point x="382" y="1468" type="line"/>
      <point x="382" y="1084" type="line"/>
      <point x="378" y="451" type="line"/>
      <point x="378" y="304"/>
      <point x="495" y="179"/>
      <point x="622" y="179" type="qcurve"/>
      <point x="635" y="179" type="line"/>
      <point x="686" y="162" type="line"/>
      <point x="686" y="-8" type="line"/>
      <point x="635" y="-25" type="line"/>
      <point x="592" y="-25" type="line"/>
    </contour>
  </outline>
</glyph>
<glyph name="jeem-arab.fina" format="2">
  <advance width="1444"/>
  <unicode hex="FE9E"/>
  <anchor x="825" y="-650" name="bottom-arab"/>
  <anchor x="541" y="1049" name="top-arab"/>
  <outline>
    <contour>
      <point x="880" y="-239" type="qcurve"/>
      <point x="880" y="-295"/>
      <point x="799" y="-373"/>
      <point x="743" y="-373" type="qcurve"/>
      <point x="687" y="-373"/>
      <point x="607" y="-294"/>
      <point x="607" y="-239" type="qcurve"/>
      <point x="607" y="-183"/>
      <point x="687" y="-104"/>
      <point x="743" y="-104" type="qcurve"/>
      <point x="800" y="-104"/>
      <point x="880" y="-183"/>
    </contour>
    <contour>
      <point x="1337" y="182" type="qcurve"/>
      <point x="1351" y="180"/>
      <point x="1367" y="179" type="qcurve"/>
      <point x="1452" y="179" type="line"/>
      <point x="1503" y="162" type="line"/>
      <point x="1503" y="-13" type="line"/>
      <point x="1451" y="-25" type="line"/>
      <point x="503" y="-25" type="line"/>
      <point x="412" y="-27"/>
      <point x="394" y="-146" type="qcurve"/>
      <point x="390" y="-173"/>
      <point x="390" y="-199" type="qcurve"/>
      <point x="390" y="-259"/>
      <point x="444" y="-387"/>
      <point x="588" y="-487"/>
      <point x="694" y="-501" type="qcurve"/>
      <point x="711" y="-503"/>
      <point x="739" y="-503" type="qcurve"/>
      <point x="844" y="-503"/>
      <point x="1127" y="-503" type="qcurve"/>
      <point x="1002" y="-701" type="line"/>
      <point x="750" y="-701"/>
      <point x="650" y="-701" type="qcurve"/>
      <point x="488" y="-679"/>
      <point x="251" y="-516"/>
      <point x="195" y="-389" type="qcurve"/>
      <point x="154" y="-296"/>
      <point x="154" y="-191" type="qcurve"/>
      <point x="154" y="-153"/>
      <point x="159" y="-115" type="qcurve"/>
      <point x="178" y="28"/>
      <point x="299" y="179"/>
      <point x="445" y="179" type="qcurve"/>
      <point x="1012" y="179" type="line"/>
      <point x="1012" y="147" type="line"/>
      <point x="990" y="168"/>
      <point x="936" y="261"/>
      <point x="899" y="349" type="qcurve"/>
      <point x="835" y="498" type="line"/>
      <point x="786" y="615"/>
      <point x="700" y="730"/>
      <point x="652" y="750" type="qcurve"/>
      <point x="616" y="764"/>
      <point x="564" y="764" type="qcurve"/>
      <point x="545" y="764"/>
      <point x="254" y="764" type="qcurve"/>
      <point x="254" y="974" type="line"/>
      <point x="523" y="974" type="line"/>
      <point x="667" y="974"/>
      <point x="850" y="911"/>
      <point x="985" y="748"/>
      <point x="1049" y="591" type="qcurve"/>
      <point x="1111" y="439" type="line"/>
      <point x="1152" y="339"/>
      <point x="1224" y="230"/>
      <point x="1258" y="208" type="qcurve"/>
      <point x="1275" y="196"/>
      <point x="1304" y="189" type="qcurve"/>
      <point x="1319" y="185"/>
    </contour>
  </outline>
</glyph>
<glyph name="hah-arab.init" format="2">
  <advance width="1418"/>
  <unicode hex="FEA3"/>
  <anchor x="388" y="0" name="bottom-arab"/>
  <anchor x="526" y="1049" name="top-arab"/>
  <outline>
    <contour>
      <point x="-30" y="-25" type="line"/>
      <point x="-22" y="179" type="line"/>
      <point x="989" y="179" type="line"/>
      <point x="989" y="147" type="line"/>
      <point x="967" y="168"/>
      <point x="913" y="261"/>
      <point x="876" y="349" type="qcurve"/>
      <point x="812" y="498" type="line"/>
      <point x="763" y="615"/>
      <point x="677" y="729"/>
      <point x="579" y="770"/>
      <point x="500" y="770" type="qcurve"/>
      <point x="231" y="770" type="line"/>
      <point x="231" y="974" type="line"/>
      <point x="500" y="974" type="line"/>
      <point x="644" y="974"/>
      <point x="827" y="911"/>
      <point x="962" y="748"/>
      <point x="1026" y="591" type="qcurve"/>
      <point x="1088" y="439" type="line"/>
      <point x="1129" y="339"/>
      <point x="1201" y="230"/>
      <point x="1263" y="189"/>
      <point x="1368" y="189" type="qcurve"/>
      <point x="1268" y="-25" type="line"/>
      <point x="1204" y="-25" type="line"/>
    </contour>
  </outline>
</glyph>
<glyph name="hah-arab.medi" format="2">
  <advance width="1418"/>
  <unicode hex="FEA4"/>
  <anchor x="610" y="0" name="bottom-arab"/>
  <anchor x="527" y="1049" name="top-arab"/>
  <outline>
    <contour>
      <point x="-30" y="-25" type="line"/>
      <point x="-22" y="179" type="line"/>
      <point x="989" y="179" type="line"/>
      <point x="989" y="147" type="line"/>
      <point x="967" y="168"/>
      <point x="913" y="261"/>
      <point x="876" y="349" type="qcurve"/>
      <point x="812" y="498" type="line"/>
      <point x="763" y="615"/>
      <point x="677" y="729"/>
      <point x="579" y="770"/>
      <point x="500" y="770" type="qcurve"/>
      <point x="231" y="770" type="line"/>
      <point x="231" y="974" type="line"/>
      <point x="500" y="974" type="line"/>
      <point x="644" y="974"/>
      <point x="827" y="911"/>
      <point x="962" y="748"/>
      <point x="1026" y="591" type="qcurve"/>
      <point x="1088" y="439" type="line"/>
      <point x="1129" y="339"/>
      <point x="1201" y="230"/>
      <point x="1268" y="186"/>
      <point x="1344" y="179" type="qcurve"/>
      <point x="1429" y="179" type="line"/>
      <point x="1480" y="162" type="line"/>
      <point x="1480" y="-13" type="line"/>
      <point x="1428" y="-25" type="line"/>
    </contour>
  </outline>
</glyph>
<glyph name="dal-arab.fina" format="2">
  <advance width="1166"/>
  <unicode hex="FEAA"/>
  <anchor x="490" y="0" name="bottom-arab"/>
  <anchor x="417" y="1049" name="top-arab"/>
  <outline>
    <contour>
      <point x="964" y="179" type="line"/>
      <point x="1173" y="179" type="line"/>
      <point x="1224" y="162" type="line"/>
      <point x="1224" y="-8" type="line"/>
      <point x="1173" y="-25" type="line"/>
      <point x="99" y="-25" type="line"/>
      <point x="99" y="179" type="line"/>
      <point x="729" y="179" type="line"/>
      <point x="729" y="405" type="line"/>
      <point x="729" y="594"/>
      <point x="575" y="769"/>
      <point x="413" y="769" type="qcurve"/>
      <point x="181" y="769" type="line"/>
      <point x="181" y="973" type="line"/>
      <point x="410" y="973" type="line"/>
      <point x="688" y="973"/>
      <point x="964" y="698"/>
      <point x="964" y="419" type="qcurve"/>
    </contour>
  </outline>
</glyph>
<glyph name="reh-arab.fina" format="2">
  <advance width="784"/>
  <unicode hex="FEAE"/>
  <anchor x="271" y="-459" name="bottom-arab"/>
  <anchor x="461" y="916" name="top-arab"/>
  <outline>
    <contour>
      <point x="578" y="-25" type="line"/>
      <point x="572" y="-249"/>
      <point x="457" y="-363" type="qcurve"/>
      <point x="335" y="-483"/>
      <point x="95" y="-483" type="qcurve"/>
      <point x="-80" y="-483" type="line"/>
      <point x="-80" y="-285" type="line"/>
      <point x="82" y="-285" type="line"/>
      <point x="215" y="-285"/>
      <point x="343" y="-147"/>
      <point x="343" y="3" type="qcurve"/>
      <point x="343" y="941" type="line"/>
      <point x="578" y="941" type="line"/>
      <point x="578" y="179" type="line"/>
      <point x="790" y="179" type="line"/>
      <point x="841" y="162" type="line"/>
      <point x="841" y="-8" type="line"/>
      <point x="790" y="-25" type="line"/>
    </contour>
  </outline>
</glyph>
<glyph name="zain-arab.fina" format="2">
  <advance width="784"/>
  <unicode hex="FEB0"/>
  <anchor x="146" y="-459" name="bottom-arab"/>
  <anchor x="336" y="1250" name="top-arab"/>
  <outline>
    <contour>
      <point x="325" y="1110"/>
      <point x="325" y="1165" type="qcurve"/>
      <point x="325" y="1221"/>
      <point x="405" y="1300"/>
      <point x="461" y="1300" type="qcurve"/>
      <point x="518" y="1300"/>
      <point x="598" y="1221"/>
      <point x="598" y="1165" type="qcurve"/>
      <point x="598" y="1109"/>
      <point x="517" y="1031"/>
      <point x="461" y="1031" type="qcurve"/>
      <point x="405" y="1031"/>
    </contour>
    <contour>
      <point x="578" y="-25" type="line"/>
      <point x="572" y="-249"/>
      <point x="457" y="-363" type="qcurve"/>
      <point x="335" y="-483"/>
      <point x="95" y="-483" type="qcurve"/>
      <point x="-80" y="-483" type="line"/>
      <point x="-80" y="-285" type="line"/>
      <point x="82" y="-285" type="line"/>
      <point x="215" y="-285"/>
      <point x="343" y="-147"/>
      <point x="343" y="3" type="qcurve"/>
      <point x="343" y="941" type="line"/>
      <point x="578" y="941" type="line"/>
      <point x="578" y="179" type="line"/>
      <point x="790" y="179" type="line"/>
      <point x="841" y="162" type="line"/>
      <point x="841" y="-8" type="line"/>
      <point x="790" y="-25" type="line"/>
    </contour>
  </outline>
</glyph>
<glyph name="seen-arab.fina" format="2">
  <advance width="2742"/>
  <unicode hex="FEB2"/>
  <anchor x="1806" y="0" name="bottom-arab"/>
  <anchor x="1813" y="930" name="top-arab"/>
  <outline>
    <contour>
      <point x="2386" y="79" type="qcurve"/>
      <point x="2282" y="-25"/>
      <point x="2105" y="-25" type="qcurve"/>
      <point x="1995" y="-25"/>
      <point x="1906" y="32" type="qcurve"/>
      <point x="1832" y="78"/>
      <point x="1792" y="149" type="qcurve"/>
      <point x="1750" y="75"/>
      <point x="1671" y="29" type="qcurve"/>
      <point x="1578" y="-25"/>
      <point x="1466" y="-25" type="qcurve"/>
      <point x="1289" y="-25" type="line"/>
      <point x="1271" y="-155"/>
      <point x="1117" y="-371"/>
      <point x="864" y="-484"/>
      <point x="697" y="-484" type="qcurve"/>
      <point x="509" y="-484"/>
      <point x="236" y="-342"/>
      <point x="92" y="-72"/>
      <point x="92" y="112" type="qcurve"/>
      <point x="92" y="498" type="line"/>
      <point x="327" y="498" type="line"/>
      <point x="327" y="112" type="line"/>
      <point x="327" y="-12"/>
      <point x="414" y="-188"/>
      <point x="580" y="-280"/>
      <point x="697" y="-280" type="qcurve"/>
      <point x="814" y="-280"/>
      <point x="978" y="-188"/>
      <point x="1065" y="-11"/>
      <point x="1065" y="154" type="qcurve"/>
      <point x="1065" y="425" type="line"/>
      <point x="1065" y="941" type="line"/>
      <point x="1300" y="941" type="line"/>
      <point x="1300" y="425" type="line"/>
      <point x="1300" y="179" type="line"/>
      <point x="1467" y="179" type="line"/>
      <point x="1574" y="179"/>
      <point x="1635" y="241" type="qcurve"/>
      <point x="1659" y="265"/>
      <point x="1673" y="298" type="qcurve"/>
      <point x="1695" y="348"/>
      <point x="1695" y="425" type="qcurve"/>
      <point x="1695" y="941" type="line"/>
      <point x="1931" y="941" type="line"/>
      <point x="1931" y="425" type="line"/>
      <point x="1931" y="300"/>
      <point x="2044" y="179"/>
      <point x="2128" y="179" type="qcurve"/>
      <point x="2169" y="179"/>
      <point x="2281" y="300"/>
      <point x="2281" y="425" type="qcurve"/>
      <point x="2281" y="941" type="line"/>
      <point x="2513" y="941" type="line"/>
      <point x="2513" y="424" type="line"/>
      <point x="2513" y="365"/>
      <point x="2502" y="314" type="qcurve"/>
      <point x="2518" y="265"/>
      <point x="2540" y="243" type="qcurve"/>
      <point x="2600" y="179"/>
      <point x="2716" y="179" type="qcurve"/>
      <point x="2744" y="179" type="line"/>
      <point x="2794" y="159" type="line"/>
      <point x="2794" y="-8" type="line"/>
      <point x="2743" y="-25" type="line"/>
      <point x="2673" y="-25" type="line"/>
      <point x="2540" y="-25"/>
      <point x="2446" y="32" type="qcurve"/>
      <point x="2414" y="51"/>
    </contour>
  </outline>
</glyph>
<glyph name="seen-arab.init" format="2">
  <advance width="1737"/>
  <unicode hex="FEB3"/>
  <anchor x="934" y="0" name="bottom-arab"/>
  <anchor x="974" y="930" name="top-arab"/>
  <outline>
    <contour>
      <point x="223" y="179" type="line"/>
      <point x="223" y="416" type="line"/>
      <point x="223" y="941" type="line"/>
      <point x="458" y="941" type="line"/>
      <point x="458" y="416" type="line"/>
      <point x="458" y="179" type="line"/>
      <point x="625" y="179" type="line"/>
      <point x="732" y="179"/>
      <point x="792" y="241" type="qcurve"/>
      <point x="817" y="265"/>
      <point x="831" y="298" type="qcurve"/>
      <point x="853" y="348"/>
      <point x="853" y="416" type="qcurve"/>
      <point x="853" y="941" type="line"/>
      <point x="1089" y="941" type="line"/>
      <point x="1089" y="416" type="line"/>
      <point x="1089" y="300"/>
      <point x="1202" y="179"/>
      <point x="1286" y="179" type="qcurve"/>
      <point x="1326" y="179"/>
      <point x="1439" y="300"/>
      <point x="1439" y="416" type="qcurve"/>
      <point x="1439" y="941" type="line"/>
      <point x="1658" y="941" type="line"/>
      <point x="1658" y="415" type="line"/>
      <point x="1658" y="204"/>
      <point x="1449" y="-25"/>
      <point x="1263" y="-25" type="qcurve"/>
      <point x="1132" y="-25"/>
      <point x="1048" y="32" type="qcurve"/>
      <point x="979" y="78"/>
      <point x="939" y="149" type="qcurve"/>
      <point x="898" y="74"/>
      <point x="817" y="24" type="qcurve"/>
      <point x="736" y="-25"/>
      <point x="624" y="-25" type="qcurve"/>
      <point x="0" y="-25" type="line"/>
      <point x="-51" y="-8" type="line"/>
      <point x="-51" y="162" type="line"/>
      <point x="0" y="179" type="line"/>
    </contour>
  </outline>
</glyph>
<glyph name="seen-arab.medi" format="2">
  <advance width="1908"/>
  <unicode hex="FEB4"/>
  <anchor x="897" y="0" name="bottom-arab"/>
  <anchor x="967" y="930" name="top-arab"/>
  <outline>
    <contour>
      <point x="1661" y="356" type="qcurve"/>
      <point x="1681" y="274"/>
      <point x="1710" y="243" type="qcurve"/>
      <point x="1771" y="179"/>
      <point x="1887" y="179" type="qcurve"/>
      <point x="1915" y="179" type="line"/>
      <point x="1965" y="159" type="line"/>
      <point x="1965" y="-8" type="line"/>
      <point x="1914" y="-25" type="line"/>
      <point x="1844" y="-25" type="line"/>
      <point x="1711" y="-25"/>
      <point x="1617" y="32" type="qcurve"/>
      <point x="1579" y="54"/>
      <point x="1546" y="89" type="qcurve"/>
      <point x="1442" y="-25"/>
      <point x="1256" y="-25" type="qcurve"/>
      <point x="1125" y="-25"/>
      <point x="1041" y="32" type="qcurve"/>
      <point x="972" y="78"/>
      <point x="932" y="149" type="qcurve"/>
      <point x="891" y="74"/>
      <point x="810" y="24" type="qcurve"/>
      <point x="729" y="-25"/>
      <point x="617" y="-25" type="qcurve"/>
      <point x="-7" y="-25" type="line"/>
      <point x="-58" y="-8" type="line"/>
      <point x="-58" y="162" type="line"/>
      <point x="-7" y="179" type="line"/>
      <point x="217" y="179" type="line"/>
      <point x="216" y="278" type="line"/>
      <point x="216" y="416" type="line"/>
      <point x="216" y="941" type="line"/>
      <point x="451" y="941" type="line"/>
      <point x="451" y="416" type="line"/>
      <point x="451" y="179" type="line"/>
      <point x="618" y="179" type="line"/>
      <point x="725" y="179"/>
      <point x="785" y="241" type="qcurve"/>
      <point x="810" y="265"/>
      <point x="824" y="298" type="qcurve"/>
      <point x="846" y="348"/>
      <point x="846" y="416" type="qcurve"/>
      <point x="846" y="941" type="line"/>
      <point x="1082" y="941" type="line"/>
      <point x="1082" y="416" type="line"/>
      <point x="1082" y="300"/>
      <point x="1195" y="179"/>
      <point x="1279" y="179" type="qcurve"/>
      <point x="1319" y="179"/>
      <point x="1432" y="300"/>
      <point x="1432" y="416" type="qcurve"/>
      <point x="1432" y="941" type="line"/>
      <point x="1661" y="941" type="line"/>
      <point x="1661" y="415" type="line"/>
      <point x="1661" y="384"/>
    </contour>
  </outline>
</glyph>
<glyph name="sad-arab.fina" format="2">
  <advance width="2647"/>
  <unicode hex="FEBA"/>
  <anchor x="1727" y="0" name="bottom-arab"/>
  <anchor x="1797" y="815" name="top-arab"/>
  <outline>
    <contour>
      <point x="2244" y="298"/>
      <point x="2244" y="409" type="qcurve"/>
      <point x="2244" y="519"/>
      <point x="2127" y="636"/>
      <point x="2010" y="612" type="qcurve"/>
      <point x="1301" y="443" type="line"/>
      <point x="1301" y="179" type="line"/>
      <point x="1999" y="179" type="line"/>
      <point x="2125" y="179"/>
    </contour>
    <contour>
      <point x="2451" y="233" type="qcurve"/>
      <point x="2510" y="179"/>
      <point x="2617" y="179" type="qcurve"/>
      <point x="2644" y="179" type="line"/>
      <point x="2695" y="159" type="line"/>
      <point x="2695" y="-8" type="line"/>
      <point x="2644" y="-25" type="line"/>
      <point x="2574" y="-25" type="line"/>
      <point x="2441" y="-25"/>
      <point x="2347" y="32" type="qcurve"/>
      <point x="2329" y="42"/>
      <point x="2313" y="55" type="qcurve"/>
      <point x="2195" y="-25"/>
      <point x="1999" y="-25" type="qcurve"/>
      <point x="1289" y="-25" type="line"/>
      <point x="1272" y="-155"/>
      <point x="1117" y="-371"/>
      <point x="864" y="-484"/>
      <point x="698" y="-484" type="qcurve"/>
      <point x="509" y="-484"/>
      <point x="236" y="-342"/>
      <point x="92" y="-72"/>
      <point x="92" y="113" type="qcurve"/>
      <point x="92" y="498" type="line"/>
      <point x="327" y="498" type="line"/>
      <point x="327" y="113" type="line"/>
      <point x="327" y="-12"/>
      <point x="415" y="-188"/>
      <point x="580" y="-280"/>
      <point x="698" y="-280" type="qcurve"/>
      <point x="814" y="-280"/>
      <point x="979" y="-188"/>
      <point x="1066" y="-11"/>
      <point x="1066" y="114" type="qcurve"/>
      <point x="1066" y="616" type="line"/>
      <point x="1066" y="841" type="line"/>
      <point x="1307" y="841" type="line"/>
      <point x="1307" y="670" type="line"/>
      <point x="2001" y="840" type="line"/>
      <point x="2232" y="884"/>
      <point x="2479" y="612"/>
      <point x="2479" y="409" type="qcurve"/>
      <point x="2479" y="310"/>
    </contour>
  </outline>
</glyph>
<glyph name="sad-arab.init" format="2">
  <advance width="1663"/>
  <unicode hex="FEBB"/>
  <anchor x="966" y="0" name="bottom-arab"/>
  <anchor x="966" y="816" name="top-arab"/>
  <outline>
    <contour>
      <point x="1325" y="409" type="qcurve"/>
      <point x="1325" y="519"/>
      <point x="1209" y="636"/>
      <point x="1091" y="612" type="qcurve"/>
      <point x="382" y="443" type="line"/>
      <point x="382" y="179" type="line"/>
      <point x="1080" y="179" type="line"/>
      <point x="1207" y="179"/>
      <point x="1325" y="298"/>
    </contour>
    <contour>
      <point x="-6" y="-25" type="line"/>
      <point x="-57" y="-8" type="line"/>
      <point x="-57" y="162" type="line"/>
      <point x="-6" y="179" type="line"/>
      <point x="147" y="179" type="line"/>
      <point x="147" y="616" type="line"/>
      <point x="147" y="841" type="line"/>
      <point x="386" y="841" type="line"/>
      <point x="386" y="670" type="line"/>
      <point x="1083" y="840" type="line"/>
      <point x="1313" y="884"/>
      <point x="1560" y="612"/>
      <point x="1560" y="409" type="qcurve"/>
      <point x="1560" y="203"/>
      <point x="1314" y="-25"/>
      <point x="1080" y="-25" type="qcurve"/>
    </contour>
  </outline>
</glyph>
<glyph name="sad-arab.medi" format="2">
  <advance width="1718"/>
  <unicode hex="FEBC"/>
  <anchor x="969" y="0" name="bottom-arab"/>
  <anchor x="969" y="816" name="top-arab"/>
  <outline>
    <contour>
      <point x="1328" y="409" type="qcurve"/>
      <point x="1328" y="519"/>
      <point x="1212" y="636"/>
      <point x="1094" y="612" type="qcurve"/>
      <point x="385" y="443" type="line"/>
      <point x="385" y="179" type="line"/>
      <point x="1083" y="179" type="line"/>
      <point x="1210" y="179"/>
      <point x="1328" y="298"/>
    </contour>
    <contour>
      <point x="-3" y="-25" type="line"/>
      <point x="-54" y="-8" type="line"/>
      <point x="-54" y="162" type="line"/>
      <point x="-3" y="179" type="line"/>
      <point x="150" y="179" type="line"/>
      <point x="150" y="616" type="line"/>
      <point x="150" y="841" type="line"/>
      <point x="389" y="841" type="line"/>
      <point x="389" y="670" type="line"/>
      <point x="1086" y="840" type="line"/>
      <point x="1316" y="884"/>
      <point x="1563" y="612"/>
      <point x="1563" y="409" type="qcurve"/>
      <point x="1563" y="306"/>
      <point x="1532" y="226" type="qcurve"/>
      <point x="1591" y="179"/>
      <point x="1691" y="179" type="qcurve"/>
      <point x="1719" y="179" type="line"/>
      <point x="1769" y="159" type="line"/>
      <point x="1769" y="-8" type="line"/>
      <point x="1718" y="-25" type="line"/>
      <point x="1648" y="-25" type="line"/>
      <point x="1515" y="-25"/>
      <point x="1421" y="32" type="qcurve"/>
      <point x="1406" y="41"/>
      <point x="1392" y="52" type="qcurve"/>
      <point x="1275" y="-25"/>
      <point x="1083" y="-25" type="qcurve"/>
    </contour>
  </outline>
</glyph>
<glyph name="tah-arab.fina" format="2">
  <advance width="1852"/>
  <unicode hex="FEC2"/>
  <anchor x="1103" y="0" name="bottom-arab"/>
  <anchor x="1103" y="816" name="top-arab"/>
  <outline>
    <contour>
      <point x="1462" y="409" type="qcurve"/>
      <point x="1462" y="519"/>
      <point x="1346" y="636"/>
      <point x="1228" y="612" type="qcurve"/>
      <point x="519" y="443" type="line"/>
      <point x="519" y="179" type="line"/>
      <point x="1217" y="179" type="line"/>
      <point x="1344" y="179"/>
      <point x="1462" y="298"/>
    </contour>
    <contour>
      <point x="284" y="188" type="qcurve"/>
      <point x="284" y="617" type="line"/>
      <point x="284" y="1084" type="line"/>
      <point x="284" y="1481" type="line"/>
      <point x="519" y="1481" type="line"/>
      <point x="519" y="1084" type="line"/>
      <point x="519" y="669" type="line"/>
      <point x="1220" y="840" type="line"/>
      <point x="1450" y="884"/>
      <point x="1697" y="612"/>
      <point x="1697" y="409" type="qcurve"/>
      <point x="1697" y="296"/>
      <point x="1666" y="226" type="qcurve"/>
      <point x="1714" y="179"/>
      <point x="1825" y="179" type="qcurve"/>
      <point x="1853" y="179" type="line"/>
      <point x="1903" y="159" type="line"/>
      <point x="1903" y="-8" type="line"/>
      <point x="1852" y="-25" type="line"/>
      <point x="1782" y="-25" type="line"/>
      <point x="1649" y="-25"/>
      <point x="1555" y="32" type="qcurve"/>
      <point x="1531" y="46"/>
      <point x="1525" y="51" type="qcurve"/>
      <point x="1422" y="-25"/>
      <point x="1217" y="-25" type="qcurve"/>
      <point x="104" y="-25" type="line"/>
      <point x="104" y="188" type="line"/>
      <point x="196" y="188"/>
      <point x="249" y="188" type="qcurve"/>
      <point x="278" y="188"/>
    </contour>
  </outline>
</glyph>
<glyph name="tah-arab.init" format="2">
  <advance width="1676"/>
  <unicode hex="FEC3"/>
  <anchor x="995" y="0" name="bottom-arab"/>
  <anchor x="995" y="816" name="top-arab"/>
  <outline>
    <contour>
      <point x="1338" y="409" type="qcurve"/>
      <point x="1338" y="519"/>
      <point x="1222" y="636"/>
      <point x="1104" y="612" type="qcurve"/>
      <point x="395" y="443" type="line"/>
      <point x="395" y="179" type="line"/>
      <point x="1093" y="179" type="line"/>
      <point x="1220" y="179"/>
      <point x="1338" y="298"/>
    </contour>
    <contour>
      <point x="160" y="179" type="line"/>
      <point x="160" y="617" type="line"/>
      <point x="160" y="1090" type="line"/>
      <point x="160" y="1481" type="line"/>
      <point x="395" y="1481" type="line"/>
      <point x="395" y="1090" type="line"/>
      <point x="395" y="669" type="line"/>
      <point x="1096" y="840" type="line"/>
      <point x="1326" y="884"/>
      <point x="1573" y="612"/>
      <point x="1573" y="409" type="qcurve"/>
      <point x="1573" y="203"/>
      <point x="1327" y="-25"/>
      <point x="1093" y="-25" type="qcurve"/>
      <point x="-3" y="-25" type="line"/>
      <point x="-54" y="-8" type="line"/>
      <point x="-54" y="162" type="line"/>
      <point x="-3" y="179" type="line"/>
    </contour>
  </outline>
</glyph>
<glyph name="tah-arab.medi" format="2">
  <advance width="1730"/>
  <unicode hex="FEC4"/>
  <anchor x="994" y="0" name="bottom-arab"/>
  <anchor x="994" y="816" name="top-arab"/>
  <outline>
    <contour>
      <point x="1337" y="409" type="qcurve"/>
      <point x="1337" y="519"/>
      <point x="1221" y="636"/>
      <point x="1103" y="612" type="qcurve"/>
      <point x="394" y="443" type="line"/>
      <point x="394" y="179" type="line"/>
      <point x="1092" y="179" type="line"/>
      <point x="1219" y="179"/>
      <point x="1337" y="298"/>
    </contour>
    <contour>
      <point x="1541" y="226" type="qcurve"/>
      <point x="1589" y="179"/>
      <point x="1700" y="179" type="qcurve"/>
      <point x="1728" y="179" type="line"/>
      <point x="1778" y="159" type="line"/>
      <point x="1778" y="-8" type="line"/>
      <point x="1727" y="-25" type="line"/>
      <point x="1657" y="-25" type="line"/>
      <point x="1524" y="-25"/>
      <point x="1430" y="32" type="qcurve"/>
      <point x="1406" y="46"/>
      <point x="1400" y="51" type="qcurve"/>
      <point x="1297" y="-25"/>
      <point x="1092" y="-25" type="qcurve"/>
      <point x="-4" y="-25" type="line"/>
      <point x="-55" y="-8" type="line"/>
      <point x="-55" y="162" type="line"/>
      <point x="-4" y="179" type="line"/>
      <point x="159" y="179" type="line"/>
      <point x="159" y="617" type="line"/>
      <point x="159" y="1091" type="line"/>
      <point x="159" y="1481" type="line"/>
      <point x="394" y="1481" type="line"/>
      <point x="394" y="1091" type="line"/>
      <point x="394" y="669" type="line"/>
      <point x="1095" y="840" type="line"/>
      <point x="1325" y="884"/>
      <point x="1572" y="612"/>
      <point x="1572" y="409" type="qcurve"/>
      <point x="1572" y="296"/>
    </contour>
  </outline>
</glyph>
<glyph name="ain-arab.fina" format="2">
  <advance width="1194"/>
  <unicode hex="FECA"/>
  <anchor x="845" y="-650" name="bottom-arab"/>
  <anchor x="697" y="939" name="top-arab"/>
  <outline>
    <contour>
      <point x="437" y="50" type="qcurve"/>
      <point x="433" y="46" type="line"/>
      <point x="357" y="-33"/>
      <point x="342" y="-145" type="qcurve"/>
      <point x="330" y="-236"/>
      <point x="394" y="-387"/>
      <point x="538" y="-487"/>
      <point x="644" y="-512" type="qcurve"/>
      <point x="727" y="-512"/>
      <point x="1077" y="-512" type="qcurve"/>
      <point x="952" y="-701" type="line"/>
      <point x="700" y="-701"/>
      <point x="600" y="-701" type="qcurve"/>
      <point x="438" y="-679"/>
      <point x="201" y="-516"/>
      <point x="89" y="-263"/>
      <point x="109" y="-115" type="qcurve"/>
      <point x="128" y="28"/>
      <point x="209" y="131" type="qcurve"/>
      <point x="231" y="159"/>
      <point x="260" y="184" type="qcurve"/>
      <point x="233" y="218"/>
      <point x="212" y="257" type="qcurve"/>
      <point x="146" y="388"/>
      <point x="146" y="511" type="qcurve"/>
      <point x="146" y="660"/>
      <point x="289" y="896"/>
      <point x="546" y="1028"/>
      <point x="709" y="1028" type="qcurve"/>
      <point x="812" y="1028"/>
      <point x="958" y="992" type="qcurve"/>
      <point x="898" y="774" type="line"/>
      <point x="808" y="794"/>
      <point x="727" y="794" type="qcurve"/>
      <point x="619" y="794"/>
      <point x="472" y="732"/>
      <point x="381" y="601"/>
      <point x="381" y="511" type="qcurve"/>
      <point x="381" y="418"/>
      <point x="511" y="242"/>
      <point x="748" y="179"/>
      <point x="902" y="179" type="qcurve"/>
      <point x="1244" y="179" type="line"/>
      <point x="1244" y="-26" type="line"/>
      <point x="1019" y="-28"/>
      <point x="789" y="-18" type="qcurve"/>
      <point x="581" y="-13"/>
    </contour>
  </outline>
</glyph>
<glyph name="ain-arab.init" format="2">
  <advance width="1257"/>
  <unicode hex="FECB"/>
  <anchor x="669" y="0" name="bottom-arab"/>
  <anchor x="709" y="939" name="top-arab"/>
  <outline>
    <contour>
      <point x="280" y="176" type="qcurve"/>
      <point x="249" y="213"/>
      <point x="225" y="257" type="qcurve"/>
      <point x="159" y="388"/>
      <point x="159" y="511" type="qcurve"/>
      <point x="159" y="660"/>
      <point x="302" y="896"/>
      <point x="559" y="1028"/>
      <point x="722" y="1028" type="qcurve"/>
      <point x="825" y="1028"/>
      <point x="971" y="992" type="qcurve"/>
      <point x="911" y="764" type="line"/>
      <point x="821" y="794"/>
      <point x="740" y="794" type="qcurve"/>
      <point x="632" y="794"/>
      <point x="485" y="732"/>
      <point x="394" y="601"/>
      <point x="394" y="511" type="qcurve"/>
      <point x="394" y="418"/>
      <point x="524" y="242"/>
      <point x="760" y="179"/>
      <point x="913" y="179" type="qcurve"/>
      <point x="1157" y="179" type="line"/>
      <point x="1157" y="-26" type="line"/>
      <point x="-6" y="-25" type="line"/>
      <point x="-57" y="-8" type="line"/>
      <point x="-57" y="162" type="line"/>
      <point x="-6" y="179" type="line"/>
      <point x="271" y="179" type="line"/>
      <point x="275" y="178"/>
    </contour>
  </outline>
</glyph>
<glyph name="ain-arab.medi" format="2">
  <advance width="1128"/>
  <unicode hex="FECC"/>
  <anchor x="645" y="0" name="bottom-arab"/>
  <anchor x="650" y="963" name="top-arab"/>
  <outline>
    <contour>
      <point x="244" y="179" type="line"/>
      <point x="214" y="215"/>
      <point x="191" y="257" type="qcurve"/>
      <point x="125" y="388"/>
      <point x="125" y="511" type="qcurve"/>
      <point x="125" y="660"/>
      <point x="268" y="896"/>
      <point x="525" y="1028"/>
      <point x="688" y="1028" type="qcurve"/>
      <point x="791" y="1028"/>
      <point x="937" y="992" type="qcurve"/>
      <point x="887" y="764" type="line"/>
      <point x="787" y="794"/>
      <point x="706" y="794" type="qcurve"/>
      <point x="598" y="794"/>
      <point x="451" y="732"/>
      <point x="360" y="601"/>
      <point x="360" y="511" type="qcurve"/>
      <point x="360" y="418"/>
      <point x="490" y="242"/>
      <point x="727" y="179"/>
      <point x="881" y="179" type="qcurve"/>
      <point x="1135" y="179" type="line"/>
      <point x="1186" y="162" type="line"/>
      <point x="1186" y="-8" type="line"/>
      <point x="1135" y="-25" type="line"/>
      <point x="1123" y="-25" type="line"/>
      <point x="1123" y="-26" type="line"/>
      <point x="1079" y="-25" type="line"/>
      <point x="-10" y="-25" type="line"/>
      <point x="-51" y="-11" type="line"/>
      <point x="-51" y="165" type="line"/>
      <point x="-10" y="179" type="line"/>
    </contour>
  </outline>
</glyph>
<glyph name="kaf-arab.init" format="2">
  <advance width="1154"/>
  <unicode hex="FEDB"/>
  <anchor x="330" y="0" name="bottom-arab"/>
  <anchor x="581" y="1364" name="top-arab"/>
  <outline>
    <contour>
      <point x="-57" y="-8" type="line"/>
      <point x="-57" y="162" type="line"/>
      <point x="-6" y="179" type="line"/>
      <point x="571" y="179" type="line"/>
      <point x="698" y="179"/>
      <point x="816" y="298"/>
      <point x="816" y="409" type="qcurve"/>
      <point x="816" y="519"/>
      <point x="698" y="638"/>
      <point x="571" y="638" type="qcurve"/>
      <point x="153" y="638" type="line"/>
      <point x="153" y="797" type="line"/>
      <point x="654" y="1442" type="line"/>
      <point x="840" y="1320" type="line"/>
      <point x="454" y="842" type="line"/>
      <point x="571" y="842" type="line"/>
      <point x="805" y="842"/>
      <point x="1051" y="613"/>
      <point x="1051" y="409" type="qcurve"/>
      <point x="1051" y="203"/>
      <point x="805" y="-25"/>
      <point x="571" y="-25" type="qcurve"/>
      <point x="-6" y="-25" type="line"/>
    </contour>
  </outline>
</glyph>
<glyph name="kaf-arab.medi" format="2">
  <advance width="1206"/>
  <unicode hex="FEDC"/>
  <anchor x="605" y="0" name="bottom-arab"/>
  <anchor x="598" y="1334" name="top-arab"/>
  <outline>
    <contour>
      <point x="1261" y="162" type="line"/>
      <point x="1261" y="-8" type="line"/>
      <point x="1210" y="-25" type="line"/>
      <point x="1" y="-25" type="line"/>
      <point x="-50" y="-8" type="line"/>
      <point x="-50" y="162" type="line"/>
      <point x="1" y="179" type="line"/>
      <point x="578" y="179" type="line"/>
      <point x="705" y="179"/>
      <point x="823" y="298"/>
      <point x="823" y="409" type="qcurve"/>
      <point x="823" y="519"/>
      <point x="705" y="638"/>
      <point x="578" y="638" type="qcurve"/>
      <point x="160" y="638" type="line"/>
      <point x="160" y="797" type="line"/>
      <point x="651" y="1442" type="line"/>
      <point x="847" y="1320" type="line"/>
      <point x="461" y="842" type="line"/>
      <point x="578" y="842" type="line"/>
      <point x="733" y="842"/>
      <point x="949" y="739"/>
      <point x="1058" y="547"/>
      <point x="1058" y="416" type="qcurve"/>
      <point x="1058" y="325"/>
      <point x="994" y="183"/>
      <point x="943" y="145" type="qcurve"/>
      <point x="943" y="179" type="line"/>
      <point x="1210" y="179" type="line"/>
    </contour>
  </outline>
</glyph>
<glyph name="lam-arab.fina" format="2">
  <advance width="1331"/>
  <unicode hex="FEDE"/>
  <anchor x="680" y="-389" name="bottom-arab"/>
  <anchor x="1013" y="1443" name="top-arab"/>
  <outline>
    <contour>
      <point x="1131" y="-25" type="line"/>
      <point x="1111" y="-122"/>
      <point x="1066" y="-197" type="qcurve"/>
      <point x="999" y="-308"/>
      <point x="779" y="-424"/>
      <point x="625" y="-424" type="qcurve"/>
      <point x="461" y="-424"/>
      <point x="224" y="-277"/>
      <point x="100" y="-4"/>
      <point x="100" y="180" type="qcurve"/>
      <point x="100" y="476" type="line"/>
      <point x="335" y="476" type="line"/>
      <point x="335" y="181" type="line"/>
      <point x="335" y="58"/>
      <point x="407" y="-114"/>
      <point x="540" y="-202"/>
      <point x="625" y="-202" type="qcurve"/>
      <point x="708" y="-202"/>
      <point x="841" y="-114"/>
      <point x="912" y="59"/>
      <point x="912" y="223" type="qcurve"/>
      <point x="912" y="1467" type="line"/>
      <point x="1144" y="1467" type="line"/>
      <point x="1144" y="179" type="line"/>
      <point x="1335" y="179" type="line"/>
      <point x="1386" y="162" type="line"/>
      <point x="1386" y="-8" type="line"/>
      <point x="1335" y="-25" type="line"/>
    </contour>
  </outline>
</glyph>
<glyph name="lam-arab.init" format="2">
  <advance width="603"/>
  <unicode hex="FEDF"/>
  <anchor x="248" y="0" name="bottom-arab"/>
  <anchor x="323" y="1443" name="top-arab"/>
  <outline>
    <contour>
      <point x="275" y="-25"/>
      <point x="54" y="-25" type="qcurve"/>
      <point x="1" y="-25" type="line"/>
      <point x="-50" y="-8" type="line"/>
      <point x="-50" y="162" type="line"/>
      <point x="1" y="179" type="line"/>
      <point x="14" y="179" type="line"/>
      <point x="140" y="179"/>
      <point x="258" y="304"/>
      <point x="258" y="451" type="qcurve"/>
      <point x="258" y="1083" type="line"/>
      <point x="258" y="1468" type="line"/>
      <point x="503" y="1468" type="line"/>
      <point x="503" y="1084" type="line"/>
      <point x="503" y="451" type="line"/>
      <point x="503" y="216"/>
    </contour>
  </outline>
</glyph>
<glyph name="lam-arab.medi" format="2">
  <advance width="728"/>
  <unicode hex="FEE0"/>
  <anchor x="354" y="0" name="bottom-arab"/>
  <anchor x="354" y="1443" name="top-arab"/>
  <outline>
    <contour>
      <point x="783" y="159" type="line"/>
      <point x="783" y="-8" type="line"/>
      <point x="732" y="-25" type="line"/>
      <point x="674" y="-25" type="line"/>
      <point x="534" y="-25"/>
      <point x="379" y="94"/>
      <point x="338" y="193" type="qcurve"/>
      <point x="369" y="193" type="line"/>
      <point x="335" y="93"/>
      <point x="128" y="-25"/>
      <point x="8" y="-25" type="qcurve"/>
      <point x="-4" y="-25" type="line"/>
      <point x="-55" y="-8" type="line"/>
      <point x="-55" y="162" type="line"/>
      <point x="-4" y="179" type="line"/>
      <point x="8" y="179" type="line"/>
      <point x="124" y="179"/>
      <point x="246" y="308"/>
      <point x="241" y="441" type="qcurve"/>
      <point x="241" y="1081" type="line"/>
      <point x="241" y="1468" type="line"/>
      <point x="487" y="1468" type="line"/>
      <point x="487" y="1081" type="line"/>
      <point x="487" y="441" type="line"/>
      <point x="482" y="308"/>
      <point x="604" y="179"/>
      <point x="720" y="179" type="qcurve"/>
      <point x="733" y="179" type="line"/>
    </contour>
  </outline>
</glyph>
<glyph name="meem-arab.init" format="2">
  <advance width="1343"/>
  <unicode hex="FEE3"/>
  <anchor x="598" y="0" name="bottom-arab"/>
  <anchor x="660" y="944" name="top-arab"/>
  <outline>
    <contour>
      <point x="485" y="637" type="line"/>
      <point x="469" y="569" type="line"/>
      <point x="437" y="427"/>
      <point x="549" y="252"/>
      <point x="689" y="220" type="qcurve"/>
      <point x="776" y="201"/>
      <point x="919" y="227"/>
      <point x="1011" y="311"/>
      <point x="1027" y="379" type="qcurve"/>
      <point x="1051" y="482"/>
      <point x="918" y="634"/>
      <point x="769" y="636" type="qcurve"/>
    </contour>
    <contour>
      <point x="220" y="344" type="qcurve"/>
      <point x="327" y="863" type="line"/>
      <point x="810" y="867" type="line"/>
      <point x="970" y="867"/>
      <point x="1178" y="698"/>
      <point x="1256" y="465"/>
      <point x="1225" y="332" type="qcurve"/>
      <point x="1196" y="202"/>
      <point x="1025" y="25"/>
      <point x="777" y="-41"/>
      <point x="637" y="-8" type="qcurve"/>
      <point x="436" y="37"/>
      <point x="361" y="170" type="qcurve"/>
      <point x="319" y="113" type="line"/>
      <point x="277" y="62"/>
      <point x="226" y="32" type="qcurve"/>
      <point x="149" y="-16"/>
      <point x="81" y="-25" type="qcurve"/>
      <point x="-1" y="-25" type="line"/>
      <point x="-52" y="-8" type="line"/>
      <point x="-52" y="164" type="line"/>
      <point x="-5" y="179" type="line"/>
      <point x="28" y="179"/>
      <point x="61" y="184" type="qcurve"/>
      <point x="137" y="195"/>
      <point x="178" y="244" type="qcurve"/>
      <point x="199" y="267"/>
    </contour>
  </outline>
</glyph>
<glyph name="meem-arab.medi" format="2">
  <advance width="1441"/>
  <unicode hex="FEE4"/>
  <anchor x="674" y="0" name="bottom-arab"/>
  <anchor x="736" y="944" name="top-arab"/>
  <outline>
    <contour>
      <point x="485" y="637" type="line"/>
      <point x="469" y="569" type="line"/>
      <point x="437" y="427"/>
      <point x="549" y="252"/>
      <point x="689" y="220" type="qcurve"/>
      <point x="776" y="201"/>
      <point x="919" y="227"/>
      <point x="1011" y="311"/>
      <point x="1027" y="379" type="qcurve"/>
      <point x="1051" y="482"/>
      <point x="918" y="634"/>
      <point x="769" y="636" type="qcurve"/>
    </contour>
    <contour>
      <point x="319" y="113" type="line"/>
      <point x="277" y="62"/>
      <point x="226" y="32" type="qcurve"/>
      <point x="149" y="-16"/>
      <point x="81" y="-25" type="qcurve"/>
      <point x="-1" y="-25" type="line"/>
      <point x="-52" y="-8" type="line"/>
      <point x="-52" y="164" type="line"/>
      <point x="-5" y="179" type="line"/>
      <point x="28" y="179"/>
      <point x="61" y="184" type="qcurve"/>
      <point x="137" y="195"/>
      <point x="178" y="244" type="qcurve"/>
      <point x="199" y="267"/>
      <point x="220" y="344" type="qcurve"/>
      <point x="327" y="863" type="line"/>
      <point x="810" y="867" type="line"/>
      <point x="970" y="867"/>
      <point x="1178" y="698"/>
      <point x="1256" y="465"/>
      <point x="1225" y="332" type="qcurve"/>
      <point x="1219" y="307"/>
      <point x="1212" y="283" type="qcurve"/>
      <point x="1230" y="259"/>
      <point x="1245" y="243" type="qcurve"/>
      <point x="1306" y="179"/>
      <point x="1422" y="179" type="qcurve"/>
      <point x="1450" y="179" type="line"/>
      <point x="1500" y="159" type="line"/>
      <point x="1500" y="-8" type="line"/>
      <point x="1449" y="-25" type="line"/>
      <point x="1379" y="-25" type="line"/>
      <point x="1246" y="-25"/>
      <point x="1152" y="32" type="qcurve"/>
      <point x="1115" y="54"/>
      <point x="1083" y="87" type="qcurve"/>
      <point x="1006" y="20"/>
      <point x="901" y="-8" type="qcurve"/>
      <point x="777" y="-41"/>
      <point x="637" y="-8" type="qcurve"/>
      <point x="436" y="37"/>
      <point x="361" y="170" type="qcurve"/>
    </contour>
  </outline>
</glyph>
